<ttFont>
    <TTGlyph name="A" xMin="-43" yMin="0" xMax="571" yMax="710">
      <contour>
        <pt x="394" y="710" on="1"/>
        <pt x="438" y="710" on="1"/>
        <pt x="571" y="0" on="1"/>
        <pt x="517" y="0" on="1"/>
        <pt x="473" y="234" on="1"/>
        <pt x="154" y="234" on="1"/>
        <pt x="12" y="0" on="1"/>
        <pt x="-43" y="0" on="1"/>
      </contour>
      <contour>
        <pt x="469" y="276" on="1"/>
        <pt x="403" y="648" on="1"/>
        <pt x="175" y="276" on="1"/>
      </contour>
    </TTGlyph>
    <TTGlyph name="A.sc" xMin="-37" yMin="0" xMax="477" yMax="545">
      <contour>
        <pt x="316" y="545" on="1"/>
        <pt x="356" y="545" on="1"/>
        <pt x="477" y="0" on="1"/>
        <pt x="428" y="0" on="1"/>
        <pt x="389" y="175" on="1"/>
        <pt x="126" y="175" on="1"/>
        <pt x="13" y="0" on="1"/>
        <pt x="-37" y="0" on="1"/>
      </contour>
      <contour>
        <pt x="384" y="216" on="1"/>
        <pt x="323" y="486" on="1"/>
        <pt x="147" y="216" on="1"/>
      </contour>
    </TTGlyph>
    <TTGlyph name="AE" xMin="-82" yMin="0" xMax="958" yMax="710">
      <contour>
        <pt x="506" y="710" on="1"/>
        <pt x="958" y="710" on="1"/>
        <pt x="947" y="664" on="1"/>
        <pt x="560" y="664" on="1"/>
        <pt x="502" y="386" on="1"/>
        <pt x="837" y="386" on="1"/>
        <pt x="827" y="339" on="1"/>
        <pt x="491" y="339" on="1"/>
        <pt x="429" y="46" on="1"/>
        <pt x="824" y="46" on="1"/>
        <pt x="815" y="0" on="1"/>
        <pt x="369" y="0" on="1"/>
        <pt x="419" y="234" on="1"/>
        <pt x="166" y="234" on="1"/>
        <pt x="-25" y="0" on="1"/>
        <pt x="-82" y="0" on="1"/>
      </contour>
      <contour>
        <pt x="426" y="280" on="1"/>
        <pt x="503" y="646" on="1"/>
        <pt x="200" y="280" on="1"/>
      </contour>
    </TTGlyph>
    <TTGlyph name="AEacute" xMin="-82" yMin="0" xMax="958" yMax="917">
      <contour>
        <pt x="558" y="816" on="1"/>
        <pt x="527" y="832" on="1"/>
        <pt x="603" y="917" on="1"/>
        <pt x="660" y="917" on="1"/>
      </contour>
      <contour>
        <pt x="506" y="710" on="1"/>
        <pt x="958" y="710" on="1"/>
        <pt x="947" y="664" on="1"/>
        <pt x="560" y="664" on="1"/>
        <pt x="502" y="386" on="1"/>
        <pt x="837" y="386" on="1"/>
        <pt x="827" y="339" on="1"/>
        <pt x="491" y="339" on="1"/>
        <pt x="429" y="46" on="1"/>
        <pt x="824" y="46" on="1"/>
        <pt x="815" y="0" on="1"/>
        <pt x="369" y="0" on="1"/>
        <pt x="419" y="234" on="1"/>
        <pt x="166" y="234" on="1"/>
        <pt x="-25" y="0" on="1"/>
        <pt x="-82" y="0" on="1"/>
      </contour>
      <contour>
        <pt x="426" y="280" on="1"/>
        <pt x="503" y="646" on="1"/>
        <pt x="200" y="280" on="1"/>
      </contour>
    </TTGlyph>
    <TTGlyph name="Aacute" xMin="-43" yMin="0" xMax="571" yMax="917">
      <contour>
        <pt x="394" y="710" on="1"/>
        <pt x="438" y="710" on="1"/>
        <pt x="571" y="0" on="1"/>
        <pt x="517" y="0" on="1"/>
        <pt x="473" y="234" on="1"/>
        <pt x="154" y="234" on="1"/>
        <pt x="12" y="0" on="1"/>
        <pt x="-43" y="0" on="1"/>
      </contour>
      <contour>
        <pt x="469" y="276" on="1"/>
        <pt x="403" y="648" on="1"/>
        <pt x="175" y="276" on="1"/>
      </contour>
      <contour>
        <pt x="430" y="816" on="1"/>
        <pt x="399" y="832" on="1"/>
        <pt x="475" y="917" on="1"/>
        <pt x="532" y="917" on="1"/>
      </contour>
    </TTGlyph>
    <TTGlyph name="Abreve" xMin="-43" yMin="0" xMax="571" yMax="917">
      <contour>
        <pt x="394" y="710" on="1"/>
        <pt x="438" y="710" on="1"/>
        <pt x="571" y="0" on="1"/>
        <pt x="517" y="0" on="1"/>
        <pt x="473" y="234" on="1"/>
        <pt x="154" y="234" on="1"/>
        <pt x="12" y="0" on="1"/>
        <pt x="-43" y="0" on="1"/>
      </contour>
      <contour>
        <pt x="469" y="276" on="1"/>
        <pt x="403" y="648" on="1"/>
        <pt x="175" y="276" on="1"/>
      </contour>
      <contour>
        <pt x="438" y="853" on="1"/>
        <pt x="458" y="853" on="0"/>
        <pt x="498" y="890" on="0"/>
        <pt x="506" y="917" on="1"/>
        <pt x="538" y="917" on="1"/>
        <pt x="534" y="898" on="0"/>
        <pt x="513" y="864" on="0"/>
        <pt x="484" y="839" on="0"/>
        <pt x="450" y="825" on="0"/>
        <pt x="433" y="825" on="1"/>
        <pt x="401" y="825" on="0"/>
        <pt x="363" y="866" on="0"/>
        <pt x="363" y="897" on="1"/>
        <pt x="363" y="906" on="0"/>
        <pt x="366" y="917" on="1"/>
        <pt x="399" y="917" on="1"/>
        <pt x="398" y="912" on="0"/>
        <pt x="398" y="903" on="1"/>
        <pt x="398" y="883" on="0"/>
        <pt x="421" y="853" on="0"/>
      </contour>
    </TTGlyph>
    <TTGlyph name="Acircumflex" xMin="-43" yMin="0" xMax="571" yMax="917">
      <contour>
        <pt x="394" y="710" on="1"/>
        <pt x="438" y="710" on="1"/>
        <pt x="571" y="0" on="1"/>
        <pt x="517" y="0" on="1"/>
        <pt x="473" y="234" on="1"/>
        <pt x="154" y="234" on="1"/>
        <pt x="12" y="0" on="1"/>
        <pt x="-43" y="0" on="1"/>
      </contour>
      <contour>
        <pt x="469" y="276" on="1"/>
        <pt x="403" y="648" on="1"/>
        <pt x="175" y="276" on="1"/>
      </contour>
      <contour>
        <pt x="331" y="836" on="1"/>
        <pt x="440" y="917" on="1"/>
        <pt x="477" y="917" on="1"/>
        <pt x="552" y="836" on="1"/>
        <pt x="519" y="819" on="1"/>
        <pt x="451" y="882" on="1"/>
        <pt x="357" y="819" on="1"/>
      </contour>
    </TTGlyph>
    <TTGlyph name="Adblgrave" xMin="-43" yMin="0" xMax="571" yMax="918">
      <contour>
        <pt x="394" y="710" on="1"/>
        <pt x="438" y="710" on="1"/>
        <pt x="571" y="0" on="1"/>
        <pt x="517" y="0" on="1"/>
        <pt x="473" y="234" on="1"/>
        <pt x="154" y="234" on="1"/>
        <pt x="12" y="0" on="1"/>
        <pt x="-43" y="0" on="1"/>
      </contour>
      <contour>
        <pt x="469" y="276" on="1"/>
        <pt x="403" y="648" on="1"/>
        <pt x="175" y="276" on="1"/>
      </contour>
      <contour>
        <pt x="440" y="918" on="1"/>
        <pt x="490" y="918" on="1"/>
        <pt x="529" y="833" on="1"/>
        <pt x="497" y="817" on="1"/>
      </contour>
      <contour>
        <pt x="328" y="918" on="1"/>
        <pt x="380" y="918" on="1"/>
        <pt x="417" y="833" on="1"/>
        <pt x="385" y="817" on="1"/>
      </contour>
    </TTGlyph>
    <TTGlyph name="Adieresis" xMin="-43" yMin="0" xMax="571" yMax="916">
      <contour>
        <pt x="394" y="710" on="1"/>
        <pt x="438" y="710" on="1"/>
        <pt x="571" y="0" on="1"/>
        <pt x="517" y="0" on="1"/>
        <pt x="473" y="234" on="1"/>
        <pt x="154" y="234" on="1"/>
        <pt x="12" y="0" on="1"/>
        <pt x="-43" y="0" on="1"/>
      </contour>
      <contour>
        <pt x="469" y="276" on="1"/>
        <pt x="403" y="648" on="1"/>
        <pt x="175" y="276" on="1"/>
      </contour>
      <contour>
        <pt x="346" y="828" on="1"/>
        <pt x="364" y="916" on="1"/>
        <pt x="408" y="916" on="1"/>
        <pt x="389" y="828" on="1"/>
      </contour>
      <contour>
        <pt x="477" y="828" on="1"/>
        <pt x="496" y="916" on="1"/>
        <pt x="539" y="916" on="1"/>
        <pt x="521" y="828" on="1"/>
      </contour>
    </TTGlyph>
    <TTGlyph name="Agrave" xMin="-43" yMin="0" xMax="571" yMax="918">
      <contour>
        <pt x="394" y="710" on="1"/>
        <pt x="438" y="710" on="1"/>
        <pt x="571" y="0" on="1"/>
        <pt x="517" y="0" on="1"/>
        <pt x="473" y="234" on="1"/>
        <pt x="154" y="234" on="1"/>
        <pt x="12" y="0" on="1"/>
        <pt x="-43" y="0" on="1"/>
      </contour>
      <contour>
        <pt x="469" y="276" on="1"/>
        <pt x="403" y="648" on="1"/>
        <pt x="175" y="276" on="1"/>
      </contour>
      <contour>
        <pt x="366" y="918" on="1"/>
        <pt x="421" y="918" on="1"/>
        <pt x="462" y="833" on="1"/>
        <pt x="425" y="817" on="1"/>
      </contour>
    </TTGlyph>
    <TTGlyph name="Ainvertedbreve" xMin="-43" yMin="0" xMax="571" yMax="917">
      <contour>
        <pt x="394" y="710" on="1"/>
        <pt x="438" y="710" on="1"/>
        <pt x="571" y="0" on="1"/>
        <pt x="517" y="0" on="1"/>
        <pt x="473" y="234" on="1"/>
        <pt x="154" y="234" on="1"/>
        <pt x="12" y="0" on="1"/>
        <pt x="-43" y="0" on="1"/>
      </contour>
      <contour>
        <pt x="469" y="276" on="1"/>
        <pt x="403" y="648" on="1"/>
        <pt x="175" y="276" on="1"/>
      </contour>
      <contour>
        <pt x="356" y="825" on="1"/>
        <pt x="364" y="863" on="0"/>
        <pt x="422" y="917" on="0"/>
        <pt x="460" y="917" on="1"/>
        <pt x="493" y="917" on="0"/>
        <pt x="529" y="873" on="0"/>
        <pt x="529" y="844" on="1"/>
        <pt x="529" y="839" on="0"/>
        <pt x="529" y="830" on="0"/>
        <pt x="527" y="825" on="1"/>
        <pt x="496" y="825" on="1"/>
        <pt x="496" y="830" on="0"/>
        <pt x="497" y="838" on="0"/>
        <pt x="497" y="843" on="1"/>
        <pt x="497" y="889" on="0"/>
        <pt x="457" y="889" on="1"/>
        <pt x="428" y="889" on="0"/>
        <pt x="394" y="851" on="0"/>
        <pt x="388" y="825" on="1"/>
      </contour>
    </TTGlyph>
    <TTGlyph name="Amacron" xMin="-43" yMin="0" xMax="587" yMax="895">
      <contour>
        <pt x="394" y="710" on="1"/>
        <pt x="438" y="710" on="1"/>
        <pt x="571" y="0" on="1"/>
        <pt x="517" y="0" on="1"/>
        <pt x="473" y="234" on="1"/>
        <pt x="154" y="234" on="1"/>
        <pt x="12" y="0" on="1"/>
        <pt x="-43" y="0" on="1"/>
      </contour>
      <contour>
        <pt x="469" y="276" on="1"/>
        <pt x="403" y="648" on="1"/>
        <pt x="175" y="276" on="1"/>
      </contour>
      <contour>
        <pt x="307" y="858" on="1"/>
        <pt x="315" y="895" on="1"/>
        <pt x="587" y="895" on="1"/>
        <pt x="579" y="858" on="1"/>
      </contour>
    </TTGlyph>
    <TTGlyph name="Aogonek" xMin="-43" yMin="-169" xMax="571" yMax="710">
      <contour>
        <pt x="488" y="-169" on="1"/>
        <pt x="462" y="-163" on="0"/>
        <pt x="437" y="-133" on="0"/>
        <pt x="437" y="-113" on="1"/>
        <pt x="437" y="-84" on="0"/>
        <pt x="479" y="-32" on="0"/>
        <pt x="530" y="0" on="1"/>
        <pt x="517" y="0" on="1"/>
        <pt x="473" y="234" on="1"/>
        <pt x="154" y="234" on="1"/>
        <pt x="12" y="0" on="1"/>
        <pt x="-43" y="0" on="1"/>
        <pt x="394" y="710" on="1"/>
        <pt x="438" y="710" on="1"/>
        <pt x="571" y="0" on="1"/>
        <pt x="515" y="-34" on="0"/>
        <pt x="472" y="-79" on="0"/>
        <pt x="472" y="-102" on="1"/>
        <pt x="472" y="-133" on="0"/>
        <pt x="511" y="-139" on="1"/>
      </contour>
      <contour>
        <pt x="469" y="276" on="1"/>
        <pt x="403" y="648" on="1"/>
        <pt x="175" y="276" on="1"/>
      </contour>
    </TTGlyph>
    <TTGlyph name="Aring" xMin="-43" yMin="0" xMax="571" yMax="917">
      <contour>
        <pt x="394" y="710" on="1"/>
        <pt x="438" y="710" on="1"/>
        <pt x="571" y="0" on="1"/>
        <pt x="517" y="0" on="1"/>
        <pt x="473" y="234" on="1"/>
        <pt x="154" y="234" on="1"/>
        <pt x="12" y="0" on="1"/>
        <pt x="-43" y="0" on="1"/>
      </contour>
      <contour>
        <pt x="469" y="276" on="1"/>
        <pt x="403" y="648" on="1"/>
        <pt x="175" y="276" on="1"/>
      </contour>
      <contour>
        <pt x="378" y="843" on="1"/>
        <pt x="378" y="875" on="0"/>
        <pt x="426" y="917" on="0"/>
        <pt x="458" y="917" on="1"/>
        <pt x="482" y="917" on="0"/>
        <pt x="510" y="889" on="0"/>
        <pt x="510" y="867" on="1"/>
        <pt x="510" y="835" on="0"/>
        <pt x="463" y="792" on="0"/>
        <pt x="431" y="792" on="1"/>
        <pt x="406" y="792" on="0"/>
        <pt x="378" y="820" on="0"/>
      </contour>
      <contour>
        <pt x="452" y="894" on="1"/>
        <pt x="434" y="894" on="0"/>
        <pt x="405" y="868" on="0"/>
        <pt x="405" y="847" on="1"/>
        <pt x="405" y="833" on="0"/>
        <pt x="422" y="815" on="0"/>
        <pt x="436" y="815" on="1"/>
        <pt x="452" y="815" on="0"/>
        <pt x="484" y="842" on="0"/>
        <pt x="484" y="862" on="1"/>
        <pt x="484" y="877" on="0"/>
        <pt x="466" y="894" on="0"/>
      </contour>
    </TTGlyph>
    <TTGlyph name="Aringacute" xMin="-43" yMin="0" xMax="571" yMax="918">
      <contour>
        <pt x="358" y="738" on="1"/>
        <pt x="358" y="770" on="0"/>
        <pt x="406" y="812" on="0"/>
        <pt x="438" y="812" on="1"/>
        <pt x="462" y="812" on="0"/>
        <pt x="490" y="784" on="0"/>
        <pt x="490" y="762" on="1"/>
        <pt x="490" y="738" on="0"/>
        <pt x="463" y="700" on="0"/>
        <pt x="441" y="692" on="1"/>
        <pt x="571" y="0" on="1"/>
        <pt x="517" y="0" on="1"/>
        <pt x="473" y="234" on="1"/>
        <pt x="154" y="234" on="1"/>
        <pt x="12" y="0" on="1"/>
        <pt x="-43" y="0" on="1"/>
        <pt x="383" y="693" on="1"/>
        <pt x="358" y="705" on="0"/>
      </contour>
      <contour>
        <pt x="469" y="276" on="1"/>
        <pt x="403" y="648" on="1"/>
        <pt x="175" y="276" on="1"/>
      </contour>
      <contour>
        <pt x="432" y="789" on="1"/>
        <pt x="414" y="789" on="0"/>
        <pt x="385" y="763" on="0"/>
        <pt x="385" y="742" on="1"/>
        <pt x="385" y="728" on="0"/>
        <pt x="402" y="710" on="0"/>
        <pt x="416" y="710" on="1"/>
        <pt x="432" y="710" on="0"/>
        <pt x="464" y="737" on="0"/>
        <pt x="464" y="757" on="1"/>
        <pt x="464" y="772" on="0"/>
        <pt x="446" y="789" on="0"/>
      </contour>
      <contour>
        <pt x="439" y="819" on="1"/>
        <pt x="408" y="835" on="1"/>
        <pt x="484" y="918" on="1"/>
        <pt x="541" y="918" on="1"/>
      </contour>
    </TTGlyph>
    <TTGlyph name="Atilde" xMin="-43" yMin="0" xMax="601" yMax="917">
      <contour>
        <pt x="394" y="710" on="1"/>
        <pt x="438" y="710" on="1"/>
        <pt x="571" y="0" on="1"/>
        <pt x="517" y="0" on="1"/>
        <pt x="473" y="234" on="1"/>
        <pt x="154" y="234" on="1"/>
        <pt x="12" y="0" on="1"/>
        <pt x="-43" y="0" on="1"/>
      </contour>
      <contour>
        <pt x="469" y="276" on="1"/>
        <pt x="403" y="648" on="1"/>
        <pt x="175" y="276" on="1"/>
      </contour>
      <contour>
        <pt x="496" y="834" on="1"/>
        <pt x="475" y="834" on="0"/>
        <pt x="445" y="846" on="0"/>
        <pt x="421" y="861" on="0"/>
        <pt x="399" y="874" on="0"/>
        <pt x="384" y="874" on="1"/>
        <pt x="368" y="874" on="0"/>
        <pt x="346" y="860" on="0"/>
        <pt x="333" y="843" on="0"/>
        <pt x="326" y="828" on="0"/>
        <pt x="326" y="826" on="1"/>
        <pt x="292" y="826" on="1"/>
        <pt x="293" y="830" on="0"/>
        <pt x="305" y="857" on="0"/>
        <pt x="329" y="886" on="0"/>
        <pt x="365" y="909" on="0"/>
        <pt x="391" y="909" on="1"/>
        <pt x="410" y="909" on="0"/>
        <pt x="437" y="896" on="0"/>
        <pt x="461" y="881" on="0"/>
        <pt x="485" y="869" on="0"/>
        <pt x="503" y="869" on="1"/>
        <pt x="522" y="869" on="0"/>
        <pt x="546" y="883" on="0"/>
        <pt x="561" y="900" on="0"/>
        <pt x="568" y="915" on="0"/>
        <pt x="568" y="917" on="1"/>
        <pt x="601" y="917" on="1"/>
        <pt x="600" y="912" on="0"/>
        <pt x="588" y="885" on="0"/>
        <pt x="563" y="857" on="0"/>
        <pt x="524" y="834" on="0"/>
      </contour>
    </TTGlyph>
    <TTGlyph name="B" xMin="27" yMin="0" xMax="614" yMax="710">
      <contour>
        <pt x="178" y="710" on="1"/>
        <pt x="494" y="710" on="1"/>
        <pt x="524" y="710" on="0"/>
        <pt x="569" y="685" on="0"/>
        <pt x="599" y="645" on="0"/>
        <pt x="614" y="593" on="0"/>
        <pt x="614" y="565" on="1"/>
        <pt x="614" y="533" on="0"/>
        <pt x="594" y="471" on="0"/>
        <pt x="557" y="419" on="0"/>
        <pt x="507" y="377" on="0"/>
        <pt x="477" y="364" on="1"/>
        <pt x="522" y="349" on="0"/>
        <pt x="569" y="270" on="0"/>
        <pt x="569" y="219" on="1"/>
        <pt x="569" y="173" on="0"/>
        <pt x="530" y="93" on="0"/>
        <pt x="467" y="34" on="0"/>
        <pt x="386" y="0" on="0"/>
        <pt x="344" y="0" on="1"/>
        <pt x="27" y="0" on="1"/>
      </contour>
      <contour>
        <pt x="353" y="46" on="1"/>
        <pt x="384" y="46" on="0"/>
        <pt x="443" y="76" on="0"/>
        <pt x="490" y="124" on="0"/>
        <pt x="518" y="186" on="0"/>
        <pt x="518" y="219" on="1"/>
        <pt x="518" y="243" on="0"/>
        <pt x="505" y="285" on="0"/>
        <pt x="480" y="318" on="0"/>
        <pt x="444" y="337" on="0"/>
        <pt x="422" y="337" on="1"/>
        <pt x="150" y="337" on="1"/>
        <pt x="88" y="46" on="1"/>
      </contour>
      <contour>
        <pt x="404" y="380" on="1"/>
        <pt x="435" y="380" on="0"/>
        <pt x="492" y="409" on="0"/>
        <pt x="536" y="457" on="0"/>
        <pt x="562" y="519" on="0"/>
        <pt x="562" y="552" on="1"/>
        <pt x="562" y="599" on="0"/>
        <pt x="514" y="664" on="0"/>
        <pt x="470" y="664" on="1"/>
        <pt x="219" y="664" on="1"/>
        <pt x="159" y="380" on="1"/>
      </contour>
    </TTGlyph>
    <TTGlyph name="B.sc" xMin="22" yMin="0" xMax="505" yMax="545">
      <contour>
        <pt x="138" y="545" on="1"/>
        <pt x="404" y="545" on="1"/>
        <pt x="429" y="545" on="0"/>
        <pt x="467" y="526" on="0"/>
        <pt x="492" y="494" on="0"/>
        <pt x="505" y="453" on="0"/>
        <pt x="505" y="432" on="1"/>
        <pt x="505" y="382" on="0"/>
        <pt x="444" y="299" on="0"/>
        <pt x="395" y="280" on="1"/>
        <pt x="433" y="268" on="0"/>
        <pt x="473" y="206" on="0"/>
        <pt x="473" y="167" on="1"/>
        <pt x="473" y="131" on="0"/>
        <pt x="441" y="70" on="0"/>
        <pt x="389" y="25" on="0"/>
        <pt x="322" y="0" on="0"/>
        <pt x="286" y="0" on="1"/>
        <pt x="22" y="0" on="1"/>
      </contour>
      <contour>
        <pt x="294" y="41" on="1"/>
        <pt x="319" y="41" on="0"/>
        <pt x="367" y="62" on="0"/>
        <pt x="404" y="98" on="0"/>
        <pt x="427" y="143" on="0"/>
        <pt x="427" y="167" on="1"/>
        <pt x="427" y="202" on="0"/>
        <pt x="384" y="255" on="0"/>
        <pt x="346" y="255" on="1"/>
        <pt x="123" y="255" on="1"/>
        <pt x="78" y="41" on="1"/>
      </contour>
      <contour>
        <pt x="333" y="295" on="1"/>
        <pt x="357" y="295" on="0"/>
        <pt x="402" y="316" on="0"/>
        <pt x="437" y="350" on="0"/>
        <pt x="457" y="395" on="0"/>
        <pt x="457" y="419" on="1"/>
        <pt x="457" y="454" on="0"/>
        <pt x="416" y="503" on="0"/>
        <pt x="381" y="503" on="1"/>
        <pt x="175" y="503" on="1"/>
        <pt x="132" y="295" on="1"/>
      </contour>
    </TTGlyph>
    <TTGlyph name="C" xMin="49" yMin="-6" xMax="668" yMax="714">
      <contour>
        <pt x="295" y="-6" on="1"/>
        <pt x="236" y="-6" on="0"/>
        <pt x="145" y="44" on="0"/>
        <pt x="82" y="128" on="0"/>
        <pt x="49" y="236" on="0"/>
        <pt x="49" y="293" on="1"/>
        <pt x="49" y="366" on="0"/>
        <pt x="110" y="515" on="0"/>
        <pt x="218" y="637" on="0"/>
        <pt x="366" y="714" on="0"/>
        <pt x="453" y="714" on="1"/>
        <pt x="498" y="714" on="0"/>
        <pt x="570" y="691" on="0"/>
        <pt x="624" y="650" on="0"/>
        <pt x="660" y="593" on="0"/>
        <pt x="668" y="559" on="1"/>
        <pt x="621" y="535" on="1"/>
        <pt x="612" y="572" on="0"/>
        <pt x="574" y="622" on="0"/>
        <pt x="525" y="653" on="0"/>
        <pt x="468" y="667" on="0"/>
        <pt x="439" y="667" on="1"/>
        <pt x="390" y="667" on="0"/>
        <pt x="301" y="636" on="0"/>
        <pt x="226" y="582" on="0"/>
        <pt x="165" y="509" on="0"/>
        <pt x="123" y="427" on="0"/>
        <pt x="100" y="338" on="0"/>
        <pt x="100" y="296" on="1"/>
        <pt x="100" y="244" on="0"/>
        <pt x="129" y="152" on="0"/>
        <pt x="183" y="82" on="0"/>
        <pt x="260" y="41" on="0"/>
        <pt x="308" y="41" on="1"/>
        <pt x="338" y="41" on="0"/>
        <pt x="406" y="57" on="0"/>
        <pt x="472" y="91" on="0"/>
        <pt x="533" y="144" on="0"/>
        <pt x="558" y="180" on="1"/>
        <pt x="598" y="159" on="1"/>
        <pt x="572" y="119" on="0"/>
        <pt x="501" y="57" on="0"/>
        <pt x="419" y="15" on="0"/>
        <pt x="334" y="-6" on="0"/>
      </contour>
    </TTGlyph>
    <TTGlyph name="C.sc" xMin="36" yMin="-5" xMax="550" yMax="548">
      <contour>
        <pt x="246" y="-5" on="1"/>
        <pt x="196" y="-5" on="0"/>
        <pt x="118" y="35" on="0"/>
        <pt x="64" y="100" on="0"/>
        <pt x="36" y="184" on="0"/>
        <pt x="36" y="229" on="1"/>
        <pt x="36" y="284" on="0"/>
        <pt x="85" y="398" on="0"/>
        <pt x="174" y="490" on="0"/>
        <pt x="295" y="548" on="0"/>
        <pt x="367" y="548" on="1"/>
        <pt x="442" y="548" on="0"/>
        <pt x="535" y="481" on="0"/>
        <pt x="550" y="429" on="1"/>
        <pt x="507" y="406" on="1"/>
        <pt x="499" y="434" on="0"/>
        <pt x="467" y="472" on="0"/>
        <pt x="426" y="495" on="0"/>
        <pt x="379" y="505" on="0"/>
        <pt x="355" y="505" on="1"/>
        <pt x="295" y="505" on="0"/>
        <pt x="195" y="455" on="0"/>
        <pt x="124" y="376" on="0"/>
        <pt x="84" y="279" on="0"/>
        <pt x="84" y="232" on="1"/>
        <pt x="84" y="193" on="0"/>
        <pt x="108" y="123" on="0"/>
        <pt x="153" y="69" on="0"/>
        <pt x="218" y="38" on="0"/>
        <pt x="258" y="38" on="1"/>
        <pt x="308" y="38" on="0"/>
        <pt x="420" y="87" on="0"/>
        <pt x="461" y="142" on="1"/>
        <pt x="496" y="122" on="1"/>
        <pt x="475" y="91" on="0"/>
        <pt x="416" y="44" on="0"/>
        <pt x="349" y="12" on="0"/>
        <pt x="278" y="-5" on="0"/>
      </contour>
    </TTGlyph>
    <TTGlyph name="Cacute" xMin="49" yMin="-6" xMax="668" yMax="917">
      <contour>
        <pt x="472" y="816" on="1"/>
        <pt x="441" y="832" on="1"/>
        <pt x="517" y="917" on="1"/>
        <pt x="574" y="917" on="1"/>
      </contour>
      <contour>
        <pt x="295" y="-6" on="1"/>
        <pt x="236" y="-6" on="0"/>
        <pt x="145" y="44" on="0"/>
        <pt x="82" y="128" on="0"/>
        <pt x="49" y="236" on="0"/>
        <pt x="49" y="293" on="1"/>
        <pt x="49" y="366" on="0"/>
        <pt x="110" y="515" on="0"/>
        <pt x="218" y="637" on="0"/>
        <pt x="366" y="714" on="0"/>
        <pt x="453" y="714" on="1"/>
        <pt x="498" y="714" on="0"/>
        <pt x="570" y="691" on="0"/>
        <pt x="624" y="650" on="0"/>
        <pt x="660" y="593" on="0"/>
        <pt x="668" y="559" on="1"/>
        <pt x="621" y="535" on="1"/>
        <pt x="612" y="572" on="0"/>
        <pt x="574" y="622" on="0"/>
        <pt x="525" y="653" on="0"/>
        <pt x="468" y="667" on="0"/>
        <pt x="439" y="667" on="1"/>
        <pt x="390" y="667" on="0"/>
        <pt x="301" y="636" on="0"/>
        <pt x="226" y="582" on="0"/>
        <pt x="165" y="509" on="0"/>
        <pt x="123" y="427" on="0"/>
        <pt x="100" y="338" on="0"/>
        <pt x="100" y="296" on="1"/>
        <pt x="100" y="244" on="0"/>
        <pt x="129" y="152" on="0"/>
        <pt x="183" y="82" on="0"/>
        <pt x="260" y="41" on="0"/>
        <pt x="308" y="41" on="1"/>
        <pt x="338" y="41" on="0"/>
        <pt x="406" y="57" on="0"/>
        <pt x="472" y="91" on="0"/>
        <pt x="533" y="144" on="0"/>
        <pt x="558" y="180" on="1"/>
        <pt x="598" y="159" on="1"/>
        <pt x="572" y="119" on="0"/>
        <pt x="501" y="57" on="0"/>
        <pt x="419" y="15" on="0"/>
        <pt x="334" y="-6" on="0"/>
      </contour>
    </TTGlyph>
    <TTGlyph name="Ccaron" xMin="49" yMin="-6" xMax="668" yMax="917">
      <contour>
        <pt x="384" y="900" on="1"/>
        <pt x="417" y="917" on="1"/>
        <pt x="485" y="854" on="1"/>
        <pt x="579" y="917" on="1"/>
        <pt x="605" y="900" on="1"/>
        <pt x="496" y="819" on="1"/>
        <pt x="459" y="819" on="1"/>
      </contour>
      <contour>
        <pt x="295" y="-6" on="1"/>
        <pt x="236" y="-6" on="0"/>
        <pt x="145" y="44" on="0"/>
        <pt x="82" y="128" on="0"/>
        <pt x="49" y="236" on="0"/>
        <pt x="49" y="293" on="1"/>
        <pt x="49" y="366" on="0"/>
        <pt x="110" y="515" on="0"/>
        <pt x="218" y="637" on="0"/>
        <pt x="366" y="714" on="0"/>
        <pt x="453" y="714" on="1"/>
        <pt x="498" y="714" on="0"/>
        <pt x="570" y="691" on="0"/>
        <pt x="624" y="650" on="0"/>
        <pt x="660" y="593" on="0"/>
        <pt x="668" y="559" on="1"/>
        <pt x="621" y="535" on="1"/>
        <pt x="612" y="572" on="0"/>
        <pt x="574" y="622" on="0"/>
        <pt x="525" y="653" on="0"/>
        <pt x="468" y="667" on="0"/>
        <pt x="439" y="667" on="1"/>
        <pt x="390" y="667" on="0"/>
        <pt x="301" y="636" on="0"/>
        <pt x="226" y="582" on="0"/>
        <pt x="165" y="509" on="0"/>
        <pt x="123" y="427" on="0"/>
        <pt x="100" y="338" on="0"/>
        <pt x="100" y="296" on="1"/>
        <pt x="100" y="244" on="0"/>
        <pt x="129" y="152" on="0"/>
        <pt x="183" y="82" on="0"/>
        <pt x="260" y="41" on="0"/>
        <pt x="308" y="41" on="1"/>
        <pt x="338" y="41" on="0"/>
        <pt x="406" y="57" on="0"/>
        <pt x="472" y="91" on="0"/>
        <pt x="533" y="144" on="0"/>
        <pt x="558" y="180" on="1"/>
        <pt x="598" y="159" on="1"/>
        <pt x="572" y="119" on="0"/>
        <pt x="501" y="57" on="0"/>
        <pt x="419" y="15" on="0"/>
        <pt x="334" y="-6" on="0"/>
      </contour>
    </TTGlyph>
    <TTGlyph name="Ccedilla" xMin="46" yMin="-171" xMax="665" yMax="714">
      <contour>
        <pt x="189" y="-125" on="1"/>
        <pt x="202" y="-132" on="0"/>
        <pt x="244" y="-144" on="0"/>
        <pt x="268" y="-144" on="1"/>
        <pt x="333" y="-144" on="0"/>
        <pt x="333" y="-99" on="1"/>
        <pt x="333" y="-83" on="0"/>
        <pt x="310" y="-71" on="0"/>
        <pt x="292" y="-71" on="1"/>
        <pt x="272" y="-71" on="0"/>
        <pt x="226" y="-81" on="0"/>
        <pt x="213" y="-85" on="1"/>
        <pt x="272" y="-5" on="1"/>
        <pt x="218" y="-1" on="0"/>
        <pt x="133" y="52" on="0"/>
        <pt x="76" y="134" on="0"/>
        <pt x="46" y="238" on="0"/>
        <pt x="46" y="293" on="1"/>
        <pt x="46" y="366" on="0"/>
        <pt x="107" y="515" on="0"/>
        <pt x="215" y="637" on="0"/>
        <pt x="363" y="714" on="0"/>
        <pt x="450" y="714" on="1"/>
        <pt x="495" y="714" on="0"/>
        <pt x="567" y="691" on="0"/>
        <pt x="621" y="650" on="0"/>
        <pt x="657" y="593" on="0"/>
        <pt x="665" y="559" on="1"/>
        <pt x="618" y="535" on="1"/>
        <pt x="609" y="572" on="0"/>
        <pt x="571" y="622" on="0"/>
        <pt x="522" y="653" on="0"/>
        <pt x="465" y="667" on="0"/>
        <pt x="436" y="667" on="1"/>
        <pt x="387" y="667" on="0"/>
        <pt x="298" y="636" on="0"/>
        <pt x="223" y="582" on="0"/>
        <pt x="162" y="509" on="0"/>
        <pt x="120" y="427" on="0"/>
        <pt x="97" y="338" on="0"/>
        <pt x="97" y="296" on="1"/>
        <pt x="97" y="244" on="0"/>
        <pt x="126" y="152" on="0"/>
        <pt x="180" y="82" on="0"/>
        <pt x="257" y="41" on="0"/>
        <pt x="305" y="41" on="1"/>
        <pt x="335" y="41" on="0"/>
        <pt x="403" y="57" on="0"/>
        <pt x="469" y="91" on="0"/>
        <pt x="530" y="144" on="0"/>
        <pt x="555" y="180" on="1"/>
        <pt x="595" y="159" on="1"/>
        <pt x="570" y="120" on="0"/>
        <pt x="502" y="61" on="0"/>
        <pt x="424" y="19" on="0"/>
        <pt x="342" y="-4" on="0"/>
        <pt x="304" y="-5" on="1"/>
        <pt x="267" y="-53" on="1"/>
        <pt x="276" y="-49" on="0"/>
        <pt x="297" y="-47" on="0"/>
        <pt x="305" y="-47" on="1"/>
        <pt x="363" y="-47" on="0"/>
        <pt x="363" y="-93" on="1"/>
        <pt x="363" y="-131" on="0"/>
        <pt x="309" y="-171" on="0"/>
        <pt x="258" y="-171" on="1"/>
        <pt x="232" y="-171" on="0"/>
        <pt x="187" y="-160" on="0"/>
        <pt x="170" y="-152" on="1"/>
      </contour>
    </TTGlyph>
    <TTGlyph name="Ccircumflex" xMin="49" yMin="-6" xMax="668" yMax="917">
      <contour>
        <pt x="377" y="836" on="1"/>
        <pt x="486" y="917" on="1"/>
        <pt x="523" y="917" on="1"/>
        <pt x="598" y="836" on="1"/>
        <pt x="565" y="819" on="1"/>
        <pt x="497" y="882" on="1"/>
        <pt x="403" y="819" on="1"/>
      </contour>
      <contour>
        <pt x="295" y="-6" on="1"/>
        <pt x="236" y="-6" on="0"/>
        <pt x="145" y="44" on="0"/>
        <pt x="82" y="128" on="0"/>
        <pt x="49" y="236" on="0"/>
        <pt x="49" y="293" on="1"/>
        <pt x="49" y="366" on="0"/>
        <pt x="110" y="515" on="0"/>
        <pt x="218" y="637" on="0"/>
        <pt x="366" y="714" on="0"/>
        <pt x="453" y="714" on="1"/>
        <pt x="498" y="714" on="0"/>
        <pt x="570" y="691" on="0"/>
        <pt x="624" y="650" on="0"/>
        <pt x="660" y="593" on="0"/>
        <pt x="668" y="559" on="1"/>
        <pt x="621" y="535" on="1"/>
        <pt x="612" y="572" on="0"/>
        <pt x="574" y="622" on="0"/>
        <pt x="525" y="653" on="0"/>
        <pt x="468" y="667" on="0"/>
        <pt x="439" y="667" on="1"/>
        <pt x="390" y="667" on="0"/>
        <pt x="301" y="636" on="0"/>
        <pt x="226" y="582" on="0"/>
        <pt x="165" y="509" on="0"/>
        <pt x="123" y="427" on="0"/>
        <pt x="100" y="338" on="0"/>
        <pt x="100" y="296" on="1"/>
        <pt x="100" y="244" on="0"/>
        <pt x="129" y="152" on="0"/>
        <pt x="183" y="82" on="0"/>
        <pt x="260" y="41" on="0"/>
        <pt x="308" y="41" on="1"/>
        <pt x="338" y="41" on="0"/>
        <pt x="406" y="57" on="0"/>
        <pt x="472" y="91" on="0"/>
        <pt x="533" y="144" on="0"/>
        <pt x="558" y="180" on="1"/>
        <pt x="598" y="159" on="1"/>
        <pt x="572" y="119" on="0"/>
        <pt x="501" y="57" on="0"/>
        <pt x="419" y="15" on="0"/>
        <pt x="334" y="-6" on="0"/>
      </contour>
    </TTGlyph>
    <TTGlyph name="Cdotaccent" xMin="49" yMin="-6" xMax="668" yMax="917">
      <contour>
        <pt x="295" y="-6" on="1"/>
        <pt x="236" y="-6" on="0"/>
        <pt x="145" y="44" on="0"/>
        <pt x="82" y="128" on="0"/>
        <pt x="49" y="236" on="0"/>
        <pt x="49" y="293" on="1"/>
        <pt x="49" y="366" on="0"/>
        <pt x="110" y="515" on="0"/>
        <pt x="218" y="637" on="0"/>
        <pt x="366" y="714" on="0"/>
        <pt x="453" y="714" on="1"/>
        <pt x="498" y="714" on="0"/>
        <pt x="570" y="691" on="0"/>
        <pt x="624" y="650" on="0"/>
        <pt x="660" y="593" on="0"/>
        <pt x="668" y="559" on="1"/>
        <pt x="621" y="535" on="1"/>
        <pt x="612" y="572" on="0"/>
        <pt x="574" y="622" on="0"/>
        <pt x="525" y="653" on="0"/>
        <pt x="468" y="667" on="0"/>
        <pt x="439" y="667" on="1"/>
        <pt x="390" y="667" on="0"/>
        <pt x="301" y="636" on="0"/>
        <pt x="226" y="582" on="0"/>
        <pt x="165" y="509" on="0"/>
        <pt x="123" y="427" on="0"/>
        <pt x="100" y="338" on="0"/>
        <pt x="100" y="296" on="1"/>
        <pt x="100" y="244" on="0"/>
        <pt x="129" y="152" on="0"/>
        <pt x="183" y="82" on="0"/>
        <pt x="260" y="41" on="0"/>
        <pt x="308" y="41" on="1"/>
        <pt x="338" y="41" on="0"/>
        <pt x="406" y="57" on="0"/>
        <pt x="472" y="91" on="0"/>
        <pt x="533" y="144" on="0"/>
        <pt x="558" y="180" on="1"/>
        <pt x="598" y="159" on="1"/>
        <pt x="572" y="119" on="0"/>
        <pt x="501" y="57" on="0"/>
        <pt x="419" y="15" on="0"/>
        <pt x="334" y="-6" on="0"/>
      </contour>
      <contour>
        <pt x="462" y="827" on="1"/>
        <pt x="481" y="917" on="1"/>
        <pt x="527" y="917" on="1"/>
        <pt x="508" y="827" on="1"/>
      </contour>
    </TTGlyph>
    <TTGlyph name="D" xMin="27" yMin="0" xMax="660" yMax="710">
      <contour>
        <pt x="178" y="710" on="1"/>
        <pt x="403" y="710" on="1"/>
        <pt x="469" y="710" on="0"/>
        <pt x="566" y="668" on="0"/>
        <pt x="629" y="595" on="0"/>
        <pt x="660" y="496" on="0"/>
        <pt x="660" y="439" on="1"/>
        <pt x="660" y="344" on="0"/>
        <pt x="599" y="184" on="0"/>
        <pt x="490" y="66" on="0"/>
        <pt x="340" y="0" on="0"/>
        <pt x="252" y="0" on="1"/>
        <pt x="27" y="0" on="1"/>
      </contour>
      <contour>
        <pt x="262" y="46" on="1"/>
        <pt x="342" y="46" on="0"/>
        <pt x="470" y="109" on="0"/>
        <pt x="559" y="215" on="0"/>
        <pt x="607" y="354" on="0"/>
        <pt x="607" y="430" on="1"/>
        <pt x="607" y="481" on="0"/>
        <pt x="580" y="567" on="0"/>
        <pt x="526" y="629" on="0"/>
        <pt x="446" y="664" on="0"/>
        <pt x="393" y="664" on="1"/>
        <pt x="219" y="664" on="1"/>
        <pt x="88" y="46" on="1"/>
      </contour>
    </TTGlyph>
    <TTGlyph name="D.sc" xMin="22" yMin="0" xMax="546" yMax="545">
      <contour>
        <pt x="138" y="545" on="1"/>
        <pt x="327" y="545" on="1"/>
        <pt x="383" y="545" on="0"/>
        <pt x="466" y="512" on="0"/>
        <pt x="520" y="455" on="0"/>
        <pt x="546" y="377" on="0"/>
        <pt x="546" y="332" on="1"/>
        <pt x="546" y="260" on="0"/>
        <pt x="496" y="138" on="0"/>
        <pt x="406" y="50" on="0"/>
        <pt x="284" y="0" on="0"/>
        <pt x="212" y="0" on="1"/>
        <pt x="22" y="0" on="1"/>
      </contour>
      <contour>
        <pt x="220" y="42" on="1"/>
        <pt x="285" y="42" on="0"/>
        <pt x="388" y="88" on="0"/>
        <pt x="460" y="166" on="0"/>
        <pt x="498" y="269" on="0"/>
        <pt x="498" y="325" on="1"/>
        <pt x="498" y="403" on="0"/>
        <pt x="408" y="502" on="0"/>
        <pt x="318" y="502" on="1"/>
        <pt x="175" y="502" on="1"/>
        <pt x="78" y="42" on="1"/>
      </contour>
    </TTGlyph>
    <TTGlyph name="Dcaron" xMin="27" yMin="0" xMax="660" yMax="917">
      <contour>
        <pt x="340" y="900" on="1"/>
        <pt x="373" y="917" on="1"/>
        <pt x="441" y="854" on="1"/>
        <pt x="535" y="917" on="1"/>
        <pt x="561" y="900" on="1"/>
        <pt x="452" y="819" on="1"/>
        <pt x="415" y="819" on="1"/>
      </contour>
      <contour>
        <pt x="178" y="710" on="1"/>
        <pt x="403" y="710" on="1"/>
        <pt x="469" y="710" on="0"/>
        <pt x="566" y="668" on="0"/>
        <pt x="629" y="595" on="0"/>
        <pt x="660" y="496" on="0"/>
        <pt x="660" y="439" on="1"/>
        <pt x="660" y="344" on="0"/>
        <pt x="599" y="184" on="0"/>
        <pt x="490" y="66" on="0"/>
        <pt x="340" y="0" on="0"/>
        <pt x="252" y="0" on="1"/>
        <pt x="27" y="0" on="1"/>
      </contour>
      <contour>
        <pt x="262" y="46" on="1"/>
        <pt x="342" y="46" on="0"/>
        <pt x="470" y="109" on="0"/>
        <pt x="559" y="215" on="0"/>
        <pt x="607" y="354" on="0"/>
        <pt x="607" y="430" on="1"/>
        <pt x="607" y="481" on="0"/>
        <pt x="580" y="567" on="0"/>
        <pt x="526" y="629" on="0"/>
        <pt x="446" y="664" on="0"/>
        <pt x="393" y="664" on="1"/>
        <pt x="219" y="664" on="1"/>
        <pt x="88" y="46" on="1"/>
      </contour>
    </TTGlyph>
    <TTGlyph name="Dcroat" xMin="34" yMin="0" xMax="667" yMax="710">
      <contour>
        <pt x="54" y="378" on="1"/>
        <pt x="114" y="378" on="1"/>
        <pt x="185" y="710" on="1"/>
        <pt x="410" y="710" on="1"/>
        <pt x="476" y="710" on="0"/>
        <pt x="573" y="668" on="0"/>
        <pt x="636" y="595" on="0"/>
        <pt x="667" y="496" on="0"/>
        <pt x="667" y="439" on="1"/>
        <pt x="667" y="344" on="0"/>
        <pt x="606" y="184" on="0"/>
        <pt x="497" y="66" on="0"/>
        <pt x="347" y="0" on="0"/>
        <pt x="259" y="0" on="1"/>
        <pt x="34" y="0" on="1"/>
        <pt x="105" y="336" on="1"/>
        <pt x="45" y="336" on="1"/>
      </contour>
      <contour>
        <pt x="269" y="46" on="1"/>
        <pt x="349" y="46" on="0"/>
        <pt x="477" y="109" on="0"/>
        <pt x="566" y="215" on="0"/>
        <pt x="614" y="354" on="0"/>
        <pt x="614" y="430" on="1"/>
        <pt x="614" y="481" on="0"/>
        <pt x="587" y="567" on="0"/>
        <pt x="533" y="629" on="0"/>
        <pt x="453" y="664" on="0"/>
        <pt x="400" y="664" on="1"/>
        <pt x="226" y="664" on="1"/>
        <pt x="165" y="378" on="1"/>
        <pt x="334" y="378" on="1"/>
        <pt x="325" y="336" on="1"/>
        <pt x="156" y="336" on="1"/>
        <pt x="95" y="46" on="1"/>
      </contour>
    </TTGlyph>
    <TTGlyph name="Ddotbelow" xMin="27" yMin="-151" xMax="660" yMax="710">
      <contour>
        <pt x="207" y="-151" on="1"/>
        <pt x="226" y="-61" on="1"/>
        <pt x="272" y="-61" on="1"/>
        <pt x="253" y="-151" on="1"/>
      </contour>
      <contour>
        <pt x="178" y="710" on="1"/>
        <pt x="403" y="710" on="1"/>
        <pt x="469" y="710" on="0"/>
        <pt x="566" y="668" on="0"/>
        <pt x="629" y="595" on="0"/>
        <pt x="660" y="496" on="0"/>
        <pt x="660" y="439" on="1"/>
        <pt x="660" y="344" on="0"/>
        <pt x="599" y="184" on="0"/>
        <pt x="490" y="66" on="0"/>
        <pt x="340" y="0" on="0"/>
        <pt x="252" y="0" on="1"/>
        <pt x="27" y="0" on="1"/>
      </contour>
      <contour>
        <pt x="262" y="46" on="1"/>
        <pt x="342" y="46" on="0"/>
        <pt x="470" y="109" on="0"/>
        <pt x="559" y="215" on="0"/>
        <pt x="607" y="354" on="0"/>
        <pt x="607" y="430" on="1"/>
        <pt x="607" y="481" on="0"/>
        <pt x="580" y="567" on="0"/>
        <pt x="526" y="629" on="0"/>
        <pt x="446" y="664" on="0"/>
        <pt x="393" y="664" on="1"/>
        <pt x="219" y="664" on="1"/>
        <pt x="88" y="46" on="1"/>
      </contour>
    </TTGlyph>
    <TTGlyph name="Delta" xMin="-7" yMin="0" xMax="593" yMax="710">
      <contour>
        <pt x="593" y="41" on="1"/>
        <pt x="593" y="0" on="1"/>
        <pt x="-7" y="0" on="1"/>
        <pt x="-7" y="41" on="1"/>
        <pt x="272" y="710" on="1"/>
        <pt x="315" y="710" on="1"/>
      </contour>
      <contour>
        <pt x="537" y="46" on="1"/>
        <pt x="294" y="648" on="1"/>
        <pt x="49" y="46" on="1"/>
      </contour>
    </TTGlyph>
    <TTGlyph name="E" xMin="27" yMin="0" xMax="619" yMax="710">
      <contour>
        <pt x="178" y="710" on="1"/>
        <pt x="619" y="710" on="1"/>
        <pt x="610" y="664" on="1"/>
        <pt x="219" y="664" on="1"/>
        <pt x="160" y="385" on="1"/>
        <pt x="501" y="385" on="1"/>
        <pt x="491" y="341" on="1"/>
        <pt x="151" y="341" on="1"/>
        <pt x="88" y="46" on="1"/>
        <pt x="487" y="46" on="1"/>
        <pt x="477" y="0" on="1"/>
        <pt x="27" y="0" on="1"/>
      </contour>
    </TTGlyph>
    <TTGlyph name="E.sc" xMin="22" yMin="0" xMax="508" yMax="545">
      <contour>
        <pt x="138" y="545" on="1"/>
        <pt x="508" y="545" on="1"/>
        <pt x="499" y="502" on="1"/>
        <pt x="175" y="502" on="1"/>
        <pt x="132" y="298" on="1"/>
        <pt x="415" y="298" on="1"/>
        <pt x="406" y="258" on="1"/>
        <pt x="124" y="258" on="1"/>
        <pt x="78" y="42" on="1"/>
        <pt x="408" y="42" on="1"/>
        <pt x="399" y="0" on="1"/>
        <pt x="22" y="0" on="1"/>
      </contour>
    </TTGlyph>
    <TTGlyph name="Eacute" xMin="27" yMin="0" xMax="619" yMax="917">
      <contour>
        <pt x="413" y="816" on="1"/>
        <pt x="382" y="832" on="1"/>
        <pt x="458" y="917" on="1"/>
        <pt x="515" y="917" on="1"/>
      </contour>
      <contour>
        <pt x="178" y="710" on="1"/>
        <pt x="619" y="710" on="1"/>
        <pt x="610" y="664" on="1"/>
        <pt x="219" y="664" on="1"/>
        <pt x="160" y="385" on="1"/>
        <pt x="501" y="385" on="1"/>
        <pt x="491" y="341" on="1"/>
        <pt x="151" y="341" on="1"/>
        <pt x="88" y="46" on="1"/>
        <pt x="487" y="46" on="1"/>
        <pt x="477" y="0" on="1"/>
        <pt x="27" y="0" on="1"/>
      </contour>
    </TTGlyph>
    <TTGlyph name="Ebreve" xMin="27" yMin="0" xMax="619" yMax="917">
      <contour>
        <pt x="178" y="710" on="1"/>
        <pt x="619" y="710" on="1"/>
        <pt x="610" y="664" on="1"/>
        <pt x="219" y="664" on="1"/>
        <pt x="160" y="385" on="1"/>
        <pt x="501" y="385" on="1"/>
        <pt x="491" y="341" on="1"/>
        <pt x="151" y="341" on="1"/>
        <pt x="88" y="46" on="1"/>
        <pt x="487" y="46" on="1"/>
        <pt x="477" y="0" on="1"/>
        <pt x="27" y="0" on="1"/>
      </contour>
      <contour>
        <pt x="423" y="853" on="1"/>
        <pt x="443" y="853" on="0"/>
        <pt x="483" y="890" on="0"/>
        <pt x="491" y="917" on="1"/>
        <pt x="523" y="917" on="1"/>
        <pt x="519" y="898" on="0"/>
        <pt x="498" y="864" on="0"/>
        <pt x="469" y="839" on="0"/>
        <pt x="435" y="825" on="0"/>
        <pt x="418" y="825" on="1"/>
        <pt x="386" y="825" on="0"/>
        <pt x="348" y="866" on="0"/>
        <pt x="348" y="897" on="1"/>
        <pt x="348" y="906" on="0"/>
        <pt x="351" y="917" on="1"/>
        <pt x="384" y="917" on="1"/>
        <pt x="383" y="912" on="0"/>
        <pt x="383" y="903" on="1"/>
        <pt x="383" y="883" on="0"/>
        <pt x="406" y="853" on="0"/>
      </contour>
    </TTGlyph>
    <TTGlyph name="Ecaron" xMin="27" yMin="0" xMax="619" yMax="917">
      <contour>
        <pt x="323" y="900" on="1"/>
        <pt x="356" y="917" on="1"/>
        <pt x="424" y="854" on="1"/>
        <pt x="518" y="917" on="1"/>
        <pt x="544" y="900" on="1"/>
        <pt x="435" y="819" on="1"/>
        <pt x="398" y="819" on="1"/>
      </contour>
      <contour>
        <pt x="178" y="710" on="1"/>
        <pt x="619" y="710" on="1"/>
        <pt x="610" y="664" on="1"/>
        <pt x="219" y="664" on="1"/>
        <pt x="160" y="385" on="1"/>
        <pt x="501" y="385" on="1"/>
        <pt x="491" y="341" on="1"/>
        <pt x="151" y="341" on="1"/>
        <pt x="88" y="46" on="1"/>
        <pt x="487" y="46" on="1"/>
        <pt x="477" y="0" on="1"/>
        <pt x="27" y="0" on="1"/>
      </contour>
    </TTGlyph>
    <TTGlyph name="Ecircumflex" xMin="27" yMin="0" xMax="619" yMax="917">
      <contour>
        <pt x="323" y="836" on="1"/>
        <pt x="432" y="917" on="1"/>
        <pt x="469" y="917" on="1"/>
        <pt x="544" y="836" on="1"/>
        <pt x="511" y="819" on="1"/>
        <pt x="443" y="882" on="1"/>
        <pt x="349" y="819" on="1"/>
      </contour>
      <contour>
        <pt x="178" y="710" on="1"/>
        <pt x="619" y="710" on="1"/>
        <pt x="610" y="664" on="1"/>
        <pt x="219" y="664" on="1"/>
        <pt x="160" y="385" on="1"/>
        <pt x="501" y="385" on="1"/>
        <pt x="491" y="341" on="1"/>
        <pt x="151" y="341" on="1"/>
        <pt x="88" y="46" on="1"/>
        <pt x="487" y="46" on="1"/>
        <pt x="477" y="0" on="1"/>
        <pt x="27" y="0" on="1"/>
      </contour>
    </TTGlyph>
    <TTGlyph name="Edblgrave" xMin="27" yMin="0" xMax="619" yMax="918">
      <contour>
        <pt x="421" y="918" on="1"/>
        <pt x="471" y="918" on="1"/>
        <pt x="510" y="833" on="1"/>
        <pt x="478" y="817" on="1"/>
      </contour>
      <contour>
        <pt x="309" y="918" on="1"/>
        <pt x="361" y="918" on="1"/>
        <pt x="398" y="833" on="1"/>
        <pt x="366" y="817" on="1"/>
      </contour>
      <contour>
        <pt x="178" y="710" on="1"/>
        <pt x="619" y="710" on="1"/>
        <pt x="610" y="664" on="1"/>
        <pt x="219" y="664" on="1"/>
        <pt x="160" y="385" on="1"/>
        <pt x="501" y="385" on="1"/>
        <pt x="491" y="341" on="1"/>
        <pt x="151" y="341" on="1"/>
        <pt x="88" y="46" on="1"/>
        <pt x="487" y="46" on="1"/>
        <pt x="477" y="0" on="1"/>
        <pt x="27" y="0" on="1"/>
      </contour>
    </TTGlyph>
    <TTGlyph name="Edieresis" xMin="27" yMin="0" xMax="619" yMax="916">
      <contour>
        <pt x="336" y="828" on="1"/>
        <pt x="354" y="916" on="1"/>
        <pt x="398" y="916" on="1"/>
        <pt x="379" y="828" on="1"/>
      </contour>
      <contour>
        <pt x="467" y="828" on="1"/>
        <pt x="486" y="916" on="1"/>
        <pt x="529" y="916" on="1"/>
        <pt x="511" y="828" on="1"/>
      </contour>
      <contour>
        <pt x="178" y="710" on="1"/>
        <pt x="619" y="710" on="1"/>
        <pt x="610" y="664" on="1"/>
        <pt x="219" y="664" on="1"/>
        <pt x="160" y="385" on="1"/>
        <pt x="501" y="385" on="1"/>
        <pt x="491" y="341" on="1"/>
        <pt x="151" y="341" on="1"/>
        <pt x="88" y="46" on="1"/>
        <pt x="487" y="46" on="1"/>
        <pt x="477" y="0" on="1"/>
        <pt x="27" y="0" on="1"/>
      </contour>
    </TTGlyph>
    <TTGlyph name="Edotaccent" xMin="27" yMin="0" xMax="619" yMax="917">
      <contour>
        <pt x="178" y="710" on="1"/>
        <pt x="619" y="710" on="1"/>
        <pt x="610" y="664" on="1"/>
        <pt x="219" y="664" on="1"/>
        <pt x="160" y="385" on="1"/>
        <pt x="501" y="385" on="1"/>
        <pt x="491" y="341" on="1"/>
        <pt x="151" y="341" on="1"/>
        <pt x="88" y="46" on="1"/>
        <pt x="487" y="46" on="1"/>
        <pt x="477" y="0" on="1"/>
        <pt x="27" y="0" on="1"/>
      </contour>
      <contour>
        <pt x="404" y="827" on="1"/>
        <pt x="423" y="917" on="1"/>
        <pt x="469" y="917" on="1"/>
        <pt x="450" y="827" on="1"/>
      </contour>
    </TTGlyph>
    <TTGlyph name="Edotbelow" xMin="27" yMin="-151" xMax="619" yMax="710">
      <contour>
        <pt x="178" y="710" on="1"/>
        <pt x="619" y="710" on="1"/>
        <pt x="610" y="664" on="1"/>
        <pt x="219" y="664" on="1"/>
        <pt x="160" y="385" on="1"/>
        <pt x="501" y="385" on="1"/>
        <pt x="491" y="341" on="1"/>
        <pt x="151" y="341" on="1"/>
        <pt x="88" y="46" on="1"/>
        <pt x="487" y="46" on="1"/>
        <pt x="477" y="0" on="1"/>
        <pt x="27" y="0" on="1"/>
      </contour>
      <contour>
        <pt x="195" y="-151" on="1"/>
        <pt x="214" y="-61" on="1"/>
        <pt x="260" y="-61" on="1"/>
        <pt x="241" y="-151" on="1"/>
      </contour>
    </TTGlyph>
    <TTGlyph name="Egrave" xMin="27" yMin="0" xMax="619" yMax="918">
      <contour>
        <pt x="178" y="710" on="1"/>
        <pt x="619" y="710" on="1"/>
        <pt x="610" y="664" on="1"/>
        <pt x="219" y="664" on="1"/>
        <pt x="160" y="385" on="1"/>
        <pt x="501" y="385" on="1"/>
        <pt x="491" y="341" on="1"/>
        <pt x="151" y="341" on="1"/>
        <pt x="88" y="46" on="1"/>
        <pt x="487" y="46" on="1"/>
        <pt x="477" y="0" on="1"/>
        <pt x="27" y="0" on="1"/>
      </contour>
      <contour>
        <pt x="361" y="918" on="1"/>
        <pt x="416" y="918" on="1"/>
        <pt x="457" y="833" on="1"/>
        <pt x="420" y="817" on="1"/>
      </contour>
    </TTGlyph>
    <TTGlyph name="Einvertedbreve" xMin="27" yMin="0" xMax="619" yMax="917">
      <contour>
        <pt x="342" y="825" on="1"/>
        <pt x="350" y="863" on="0"/>
        <pt x="408" y="917" on="0"/>
        <pt x="446" y="917" on="1"/>
        <pt x="479" y="917" on="0"/>
        <pt x="515" y="873" on="0"/>
        <pt x="515" y="844" on="1"/>
        <pt x="515" y="839" on="0"/>
        <pt x="515" y="830" on="0"/>
        <pt x="513" y="825" on="1"/>
        <pt x="482" y="825" on="1"/>
        <pt x="482" y="830" on="0"/>
        <pt x="483" y="838" on="0"/>
        <pt x="483" y="843" on="1"/>
        <pt x="483" y="889" on="0"/>
        <pt x="443" y="889" on="1"/>
        <pt x="414" y="889" on="0"/>
        <pt x="380" y="851" on="0"/>
        <pt x="374" y="825" on="1"/>
      </contour>
      <contour>
        <pt x="178" y="710" on="1"/>
        <pt x="619" y="710" on="1"/>
        <pt x="610" y="664" on="1"/>
        <pt x="219" y="664" on="1"/>
        <pt x="160" y="385" on="1"/>
        <pt x="501" y="385" on="1"/>
        <pt x="491" y="341" on="1"/>
        <pt x="151" y="341" on="1"/>
        <pt x="88" y="46" on="1"/>
        <pt x="487" y="46" on="1"/>
        <pt x="477" y="0" on="1"/>
        <pt x="27" y="0" on="1"/>
      </contour>
    </TTGlyph>
    <TTGlyph name="Emacron" xMin="27" yMin="0" xMax="619" yMax="895">
      <contour>
        <pt x="178" y="710" on="1"/>
        <pt x="619" y="710" on="1"/>
        <pt x="610" y="664" on="1"/>
        <pt x="219" y="664" on="1"/>
        <pt x="160" y="385" on="1"/>
        <pt x="501" y="385" on="1"/>
        <pt x="491" y="341" on="1"/>
        <pt x="151" y="341" on="1"/>
        <pt x="88" y="46" on="1"/>
        <pt x="487" y="46" on="1"/>
        <pt x="477" y="0" on="1"/>
        <pt x="27" y="0" on="1"/>
      </contour>
      <contour>
        <pt x="294" y="858" on="1"/>
        <pt x="302" y="895" on="1"/>
        <pt x="574" y="895" on="1"/>
        <pt x="566" y="858" on="1"/>
      </contour>
    </TTGlyph>
    <TTGlyph name="Eng" xMin="27" yMin="-177" xMax="733" yMax="710">
      <contour>
        <pt x="405" y="-177" on="1"/>
        <pt x="375" y="-177" on="0"/>
        <pt x="326" y="-160" on="0"/>
        <pt x="309" y="-140" on="1"/>
        <pt x="343" y="-107" on="1"/>
        <pt x="355" y="-121" on="0"/>
        <pt x="391" y="-131" on="0"/>
        <pt x="410" y="-131" on="1"/>
        <pt x="428" y="-131" on="0"/>
        <pt x="464" y="-116" on="0"/>
        <pt x="496" y="-89" on="0"/>
        <pt x="521" y="-52" on="0"/>
        <pt x="526" y="-30" on="1"/>
        <pt x="534" y="4" on="1"/>
        <pt x="209" y="613" on="1"/>
        <pt x="78" y="0" on="1"/>
        <pt x="27" y="0" on="1"/>
        <pt x="178" y="710" on="1"/>
        <pt x="217" y="710" on="1"/>
        <pt x="550" y="87" on="1"/>
        <pt x="683" y="709" on="1"/>
        <pt x="733" y="709" on="1"/>
        <pt x="577" y="-29" on="1"/>
        <pt x="570" y="-62" on="0"/>
        <pt x="534" y="-116" on="0"/>
        <pt x="486" y="-155" on="0"/>
        <pt x="431" y="-177" on="0"/>
      </contour>
    </TTGlyph>
    <TTGlyph name="Eogonek" xMin="27" yMin="-169" xMax="619" yMax="710">
      <contour>
        <pt x="178" y="710" on="1"/>
        <pt x="619" y="710" on="1"/>
        <pt x="610" y="664" on="1"/>
        <pt x="219" y="664" on="1"/>
        <pt x="160" y="385" on="1"/>
        <pt x="501" y="385" on="1"/>
        <pt x="491" y="341" on="1"/>
        <pt x="151" y="341" on="1"/>
        <pt x="88" y="46" on="1"/>
        <pt x="487" y="46" on="1"/>
        <pt x="477" y="0" on="1"/>
        <pt x="281" y="0" on="1"/>
        <pt x="225" y="-34" on="0"/>
        <pt x="182" y="-79" on="0"/>
        <pt x="182" y="-102" on="1"/>
        <pt x="182" y="-133" on="0"/>
        <pt x="221" y="-139" on="1"/>
        <pt x="198" y="-169" on="1"/>
        <pt x="172" y="-163" on="0"/>
        <pt x="147" y="-133" on="0"/>
        <pt x="147" y="-113" on="1"/>
        <pt x="147" y="-84" on="0"/>
        <pt x="189" y="-32" on="0"/>
        <pt x="240" y="0" on="1"/>
        <pt x="27" y="0" on="1"/>
      </contour>
    </TTGlyph>
    <TTGlyph name="Eth" xMin="34" yMin="0" xMax="667" yMax="710">
      <contour>
        <pt x="54" y="378" on="1"/>
        <pt x="114" y="378" on="1"/>
        <pt x="185" y="710" on="1"/>
        <pt x="410" y="710" on="1"/>
        <pt x="476" y="710" on="0"/>
        <pt x="573" y="668" on="0"/>
        <pt x="636" y="595" on="0"/>
        <pt x="667" y="496" on="0"/>
        <pt x="667" y="439" on="1"/>
        <pt x="667" y="344" on="0"/>
        <pt x="606" y="184" on="0"/>
        <pt x="497" y="66" on="0"/>
        <pt x="347" y="0" on="0"/>
        <pt x="259" y="0" on="1"/>
        <pt x="34" y="0" on="1"/>
        <pt x="105" y="336" on="1"/>
        <pt x="45" y="336" on="1"/>
      </contour>
      <contour>
        <pt x="269" y="46" on="1"/>
        <pt x="349" y="46" on="0"/>
        <pt x="477" y="109" on="0"/>
        <pt x="566" y="215" on="0"/>
        <pt x="614" y="354" on="0"/>
        <pt x="614" y="430" on="1"/>
        <pt x="614" y="481" on="0"/>
        <pt x="587" y="567" on="0"/>
        <pt x="533" y="629" on="0"/>
        <pt x="453" y="664" on="0"/>
        <pt x="400" y="664" on="1"/>
        <pt x="226" y="664" on="1"/>
        <pt x="165" y="378" on="1"/>
        <pt x="334" y="378" on="1"/>
        <pt x="325" y="336" on="1"/>
        <pt x="156" y="336" on="1"/>
        <pt x="95" y="46" on="1"/>
      </contour>
    </TTGlyph>
    <TTGlyph name="Etilde" xMin="27" yMin="0" xMax="619" yMax="917">
      <contour>
        <pt x="178" y="710" on="1"/>
        <pt x="619" y="710" on="1"/>
        <pt x="610" y="664" on="1"/>
        <pt x="219" y="664" on="1"/>
        <pt x="160" y="385" on="1"/>
        <pt x="501" y="385" on="1"/>
        <pt x="491" y="341" on="1"/>
        <pt x="151" y="341" on="1"/>
        <pt x="88" y="46" on="1"/>
        <pt x="487" y="46" on="1"/>
        <pt x="477" y="0" on="1"/>
        <pt x="27" y="0" on="1"/>
      </contour>
      <contour>
        <pt x="476" y="834" on="1"/>
        <pt x="455" y="834" on="0"/>
        <pt x="425" y="846" on="0"/>
        <pt x="401" y="861" on="0"/>
        <pt x="379" y="874" on="0"/>
        <pt x="364" y="874" on="1"/>
        <pt x="348" y="874" on="0"/>
        <pt x="326" y="860" on="0"/>
        <pt x="313" y="843" on="0"/>
        <pt x="306" y="828" on="0"/>
        <pt x="306" y="826" on="1"/>
        <pt x="272" y="826" on="1"/>
        <pt x="273" y="830" on="0"/>
        <pt x="285" y="857" on="0"/>
        <pt x="309" y="886" on="0"/>
        <pt x="345" y="909" on="0"/>
        <pt x="371" y="909" on="1"/>
        <pt x="390" y="909" on="0"/>
        <pt x="417" y="896" on="0"/>
        <pt x="441" y="881" on="0"/>
        <pt x="465" y="869" on="0"/>
        <pt x="483" y="869" on="1"/>
        <pt x="502" y="869" on="0"/>
        <pt x="526" y="883" on="0"/>
        <pt x="541" y="900" on="0"/>
        <pt x="548" y="915" on="0"/>
        <pt x="548" y="917" on="1"/>
        <pt x="581" y="917" on="1"/>
        <pt x="580" y="912" on="0"/>
        <pt x="568" y="885" on="0"/>
        <pt x="543" y="857" on="0"/>
        <pt x="504" y="834" on="0"/>
      </contour>
    </TTGlyph>
    <TTGlyph name="Euro" xMin="28" yMin="-6" xMax="758" yMax="714">
      <contour>
        <pt x="157" y="410" on="1"/>
        <pt x="176" y="469" on="0"/>
        <pt x="249" y="579" on="0"/>
        <pt x="348" y="663" on="0"/>
        <pt x="472" y="714" on="0"/>
        <pt x="542" y="714" on="1"/>
        <pt x="587" y="714" on="0"/>
        <pt x="660" y="691" on="0"/>
        <pt x="714" y="650" on="0"/>
        <pt x="750" y="593" on="0"/>
        <pt x="758" y="559" on="1"/>
        <pt x="711" y="535" on="1"/>
        <pt x="701" y="572" on="0"/>
        <pt x="664" y="622" on="0"/>
        <pt x="615" y="653" on="0"/>
        <pt x="558" y="667" on="0"/>
        <pt x="529" y="667" on="1"/>
        <pt x="471" y="667" on="0"/>
        <pt x="370" y="624" on="0"/>
        <pt x="287" y="553" on="0"/>
        <pt x="226" y="460" on="0"/>
        <pt x="209" y="410" on="1"/>
        <pt x="551" y="410" on="1"/>
        <pt x="529" y="376" on="1"/>
        <pt x="200" y="376" on="1"/>
        <pt x="196" y="359" on="0"/>
        <pt x="191" y="327" on="0"/>
        <pt x="190" y="311" on="1"/>
        <pt x="494" y="311" on="1"/>
        <pt x="472" y="277" on="1"/>
        <pt x="190" y="277" on="1"/>
        <pt x="193" y="228" on="0"/>
        <pt x="224" y="142" on="0"/>
        <pt x="278" y="78" on="0"/>
        <pt x="352" y="41" on="0"/>
        <pt x="398" y="41" on="1"/>
        <pt x="428" y="41" on="0"/>
        <pt x="495" y="57" on="0"/>
        <pt x="561" y="91" on="0"/>
        <pt x="623" y="144" on="0"/>
        <pt x="649" y="180" on="1"/>
        <pt x="687" y="159" on="1"/>
        <pt x="662" y="119" on="0"/>
        <pt x="590" y="57" on="0"/>
        <pt x="509" y="15" on="0"/>
        <pt x="423" y="-6" on="0"/>
        <pt x="384" y="-6" on="1"/>
        <pt x="327" y="-6" on="0"/>
        <pt x="238" y="41" on="0"/>
        <pt x="175" y="120" on="0"/>
        <pt x="140" y="222" on="0"/>
        <pt x="138" y="277" on="1"/>
        <pt x="28" y="277" on="1"/>
        <pt x="50" y="311" on="1"/>
        <pt x="138" y="311" on="1"/>
        <pt x="139" y="327" on="0"/>
        <pt x="144" y="359" on="0"/>
        <pt x="148" y="376" on="1"/>
        <pt x="79" y="376" on="1"/>
        <pt x="102" y="410" on="1"/>
      </contour>
    </TTGlyph>
    <TTGlyph name="F" xMin="27" yMin="0" xMax="618" yMax="710">
      <contour>
        <pt x="178" y="710" on="1"/>
        <pt x="618" y="710" on="1"/>
        <pt x="608" y="664" on="1"/>
        <pt x="219" y="664" on="1"/>
        <pt x="160" y="382" on="1"/>
        <pt x="489" y="382" on="1"/>
        <pt x="480" y="338" on="1"/>
        <pt x="150" y="338" on="1"/>
        <pt x="78" y="0" on="1"/>
        <pt x="27" y="0" on="1"/>
      </contour>
    </TTGlyph>
    <TTGlyph name="F.sc" xMin="22" yMin="0" xMax="506" yMax="545">
      <contour>
        <pt x="138" y="545" on="1"/>
        <pt x="506" y="545" on="1"/>
        <pt x="497" y="502" on="1"/>
        <pt x="175" y="502" on="1"/>
        <pt x="132" y="296" on="1"/>
        <pt x="405" y="296" on="1"/>
        <pt x="396" y="255" on="1"/>
        <pt x="123" y="255" on="1"/>
        <pt x="69" y="0" on="1"/>
        <pt x="22" y="0" on="1"/>
      </contour>
    </TTGlyph>
    <TTGlyph name="G" xMin="49" yMin="-5" xMax="669" yMax="715">
      <contour>
        <pt x="546" y="110" on="1"/>
        <pt x="425" y="-5" on="0"/>
        <pt x="298" y="-5" on="1"/>
        <pt x="239" y="-5" on="0"/>
        <pt x="147" y="45" on="0"/>
        <pt x="83" y="128" on="0"/>
        <pt x="49" y="235" on="0"/>
        <pt x="49" y="292" on="1"/>
        <pt x="49" y="371" on="0"/>
        <pt x="114" y="523" on="0"/>
        <pt x="224" y="642" on="0"/>
        <pt x="367" y="715" on="0"/>
        <pt x="444" y="715" on="1"/>
        <pt x="495" y="715" on="0"/>
        <pt x="571" y="692" on="0"/>
        <pt x="625" y="651" on="0"/>
        <pt x="660" y="594" on="0"/>
        <pt x="669" y="560" on="1"/>
        <pt x="623" y="535" on="1"/>
        <pt x="603" y="605" on="0"/>
        <pt x="505" y="668" on="0"/>
        <pt x="433" y="668" on="1"/>
        <pt x="364" y="668" on="0"/>
        <pt x="243" y="601" on="0"/>
        <pt x="153" y="494" on="0"/>
        <pt x="100" y="361" on="0"/>
        <pt x="100" y="295" on="1"/>
        <pt x="100" y="244" on="0"/>
        <pt x="130" y="152" on="0"/>
        <pt x="185" y="83" on="0"/>
        <pt x="262" y="42" on="0"/>
        <pt x="310" y="42" on="1"/>
        <pt x="371" y="42" on="0"/>
        <pt x="493" y="101" on="0"/>
        <pt x="558" y="166" on="1"/>
        <pt x="588" y="304" on="1"/>
        <pt x="436" y="304" on="1"/>
        <pt x="445" y="345" on="1"/>
        <pt x="641" y="345" on="1"/>
        <pt x="568" y="0" on="1"/>
        <pt x="523" y="0" on="1"/>
      </contour>
    </TTGlyph>
    <TTGlyph name="G.alt" xMin="49" yMin="-5" xMax="683" yMax="715">
      <contour>
        <pt x="299" y="-5" on="1"/>
        <pt x="240" y="-5" on="0"/>
        <pt x="147" y="43" on="0"/>
        <pt x="83" y="124" on="0"/>
        <pt x="49" y="231" on="0"/>
        <pt x="49" y="289" on="1"/>
        <pt x="49" y="370" on="0"/>
        <pt x="116" y="523" on="0"/>
        <pt x="228" y="642" on="0"/>
        <pt x="373" y="715" on="0"/>
        <pt x="452" y="715" on="1"/>
        <pt x="537" y="715" on="0"/>
        <pt x="650" y="629" on="0"/>
        <pt x="676" y="560" on="1"/>
        <pt x="630" y="527" on="1"/>
        <pt x="620" y="555" on="0"/>
        <pt x="586" y="607" on="0"/>
        <pt x="538" y="645" on="0"/>
        <pt x="476" y="668" on="0"/>
        <pt x="439" y="668" on="1"/>
        <pt x="370" y="668" on="0"/>
        <pt x="247" y="601" on="0"/>
        <pt x="154" y="494" on="0"/>
        <pt x="100" y="360" on="0"/>
        <pt x="100" y="293" on="1"/>
        <pt x="100" y="243" on="0"/>
        <pt x="127" y="153" on="0"/>
        <pt x="180" y="83" on="0"/>
        <pt x="257" y="42" on="0"/>
        <pt x="307" y="42" on="1"/>
        <pt x="359" y="42" on="0"/>
        <pt x="456" y="84" on="0"/>
        <pt x="538" y="155" on="0"/>
        <pt x="601" y="246" on="0"/>
        <pt x="618" y="295" on="1"/>
        <pt x="409" y="295" on="1"/>
        <pt x="419" y="341" on="1"/>
        <pt x="683" y="341" on="1"/>
        <pt x="675" y="309" on="1"/>
        <pt x="661" y="254" on="0"/>
        <pt x="590" y="142" on="0"/>
        <pt x="489" y="52" on="0"/>
        <pt x="365" y="-5" on="0"/>
      </contour>
    </TTGlyph>
    <TTGlyph name="G.sc" xMin="36" yMin="-4" xMax="549" yMax="548">
      <contour>
        <pt x="449" y="82" on="1"/>
        <pt x="353" y="-4" on="0"/>
        <pt x="246" y="-4" on="1"/>
        <pt x="197" y="-4" on="0"/>
        <pt x="119" y="35" on="0"/>
        <pt x="65" y="100" on="0"/>
        <pt x="36" y="183" on="0"/>
        <pt x="36" y="228" on="1"/>
        <pt x="36" y="288" on="0"/>
        <pt x="89" y="403" on="0"/>
        <pt x="178" y="493" on="0"/>
        <pt x="295" y="548" on="0"/>
        <pt x="360" y="548" on="1"/>
        <pt x="443" y="548" on="0"/>
        <pt x="532" y="482" on="0"/>
        <pt x="549" y="430" on="1"/>
        <pt x="506" y="406" on="1"/>
        <pt x="489" y="458" on="0"/>
        <pt x="407" y="506" on="0"/>
        <pt x="349" y="506" on="1"/>
        <pt x="293" y="506" on="0"/>
        <pt x="196" y="457" on="0"/>
        <pt x="124" y="378" on="0"/>
        <pt x="83" y="280" on="0"/>
        <pt x="83" y="231" on="1"/>
        <pt x="83" y="192" on="0"/>
        <pt x="108" y="122" on="0"/>
        <pt x="154" y="69" on="0"/>
        <pt x="218" y="39" on="0"/>
        <pt x="258" y="39" on="1"/>
        <pt x="358" y="39" on="0"/>
        <pt x="460" y="132" on="1"/>
        <pt x="481" y="229" on="1"/>
        <pt x="355" y="229" on="1"/>
        <pt x="362" y="266" on="1"/>
        <pt x="529" y="266" on="1"/>
        <pt x="473" y="0" on="1"/>
        <pt x="432" y="0" on="1"/>
      </contour>
    </TTGlyph>
    <TTGlyph name="Gacute" xMin="49" yMin="-5" xMax="669" yMax="917">
      <contour>
        <pt x="455" y="816" on="1"/>
        <pt x="424" y="832" on="1"/>
        <pt x="500" y="917" on="1"/>
        <pt x="557" y="917" on="1"/>
      </contour>
      <contour>
        <pt x="546" y="110" on="1"/>
        <pt x="425" y="-5" on="0"/>
        <pt x="298" y="-5" on="1"/>
        <pt x="239" y="-5" on="0"/>
        <pt x="147" y="45" on="0"/>
        <pt x="83" y="128" on="0"/>
        <pt x="49" y="235" on="0"/>
        <pt x="49" y="292" on="1"/>
        <pt x="49" y="371" on="0"/>
        <pt x="114" y="523" on="0"/>
        <pt x="224" y="642" on="0"/>
        <pt x="367" y="715" on="0"/>
        <pt x="444" y="715" on="1"/>
        <pt x="495" y="715" on="0"/>
        <pt x="571" y="692" on="0"/>
        <pt x="625" y="651" on="0"/>
        <pt x="660" y="594" on="0"/>
        <pt x="669" y="560" on="1"/>
        <pt x="623" y="535" on="1"/>
        <pt x="603" y="605" on="0"/>
        <pt x="505" y="668" on="0"/>
        <pt x="433" y="668" on="1"/>
        <pt x="364" y="668" on="0"/>
        <pt x="243" y="601" on="0"/>
        <pt x="153" y="494" on="0"/>
        <pt x="100" y="361" on="0"/>
        <pt x="100" y="295" on="1"/>
        <pt x="100" y="244" on="0"/>
        <pt x="130" y="152" on="0"/>
        <pt x="185" y="83" on="0"/>
        <pt x="262" y="42" on="0"/>
        <pt x="310" y="42" on="1"/>
        <pt x="371" y="42" on="0"/>
        <pt x="493" y="101" on="0"/>
        <pt x="558" y="166" on="1"/>
        <pt x="588" y="304" on="1"/>
        <pt x="436" y="304" on="1"/>
        <pt x="445" y="345" on="1"/>
        <pt x="641" y="345" on="1"/>
        <pt x="568" y="0" on="1"/>
        <pt x="523" y="0" on="1"/>
      </contour>
    </TTGlyph>
    <TTGlyph name="Gbreve" xMin="49" yMin="-5" xMax="669" yMax="917">
      <contour>
        <pt x="546" y="110" on="1"/>
        <pt x="425" y="-5" on="0"/>
        <pt x="298" y="-5" on="1"/>
        <pt x="239" y="-5" on="0"/>
        <pt x="147" y="45" on="0"/>
        <pt x="83" y="128" on="0"/>
        <pt x="49" y="235" on="0"/>
        <pt x="49" y="292" on="1"/>
        <pt x="49" y="371" on="0"/>
        <pt x="114" y="523" on="0"/>
        <pt x="224" y="642" on="0"/>
        <pt x="367" y="715" on="0"/>
        <pt x="444" y="715" on="1"/>
        <pt x="495" y="715" on="0"/>
        <pt x="571" y="692" on="0"/>
        <pt x="625" y="651" on="0"/>
        <pt x="660" y="594" on="0"/>
        <pt x="669" y="560" on="1"/>
        <pt x="623" y="535" on="1"/>
        <pt x="603" y="605" on="0"/>
        <pt x="505" y="668" on="0"/>
        <pt x="433" y="668" on="1"/>
        <pt x="364" y="668" on="0"/>
        <pt x="243" y="601" on="0"/>
        <pt x="153" y="494" on="0"/>
        <pt x="100" y="361" on="0"/>
        <pt x="100" y="295" on="1"/>
        <pt x="100" y="244" on="0"/>
        <pt x="130" y="152" on="0"/>
        <pt x="185" y="83" on="0"/>
        <pt x="262" y="42" on="0"/>
        <pt x="310" y="42" on="1"/>
        <pt x="371" y="42" on="0"/>
        <pt x="493" y="101" on="0"/>
        <pt x="558" y="166" on="1"/>
        <pt x="588" y="304" on="1"/>
        <pt x="436" y="304" on="1"/>
        <pt x="445" y="345" on="1"/>
        <pt x="641" y="345" on="1"/>
        <pt x="568" y="0" on="1"/>
        <pt x="523" y="0" on="1"/>
      </contour>
      <contour>
        <pt x="468" y="853" on="1"/>
        <pt x="488" y="853" on="0"/>
        <pt x="528" y="890" on="0"/>
        <pt x="536" y="917" on="1"/>
        <pt x="568" y="917" on="1"/>
        <pt x="564" y="898" on="0"/>
        <pt x="543" y="864" on="0"/>
        <pt x="514" y="839" on="0"/>
        <pt x="480" y="825" on="0"/>
        <pt x="463" y="825" on="1"/>
        <pt x="431" y="825" on="0"/>
        <pt x="393" y="866" on="0"/>
        <pt x="393" y="897" on="1"/>
        <pt x="393" y="906" on="0"/>
        <pt x="396" y="917" on="1"/>
        <pt x="429" y="917" on="1"/>
        <pt x="428" y="912" on="0"/>
        <pt x="428" y="903" on="1"/>
        <pt x="428" y="883" on="0"/>
        <pt x="451" y="853" on="0"/>
      </contour>
    </TTGlyph>
    <TTGlyph name="Gcircumflex" xMin="49" yMin="-5" xMax="669" yMax="917">
      <contour>
        <pt x="360" y="836" on="1"/>
        <pt x="469" y="917" on="1"/>
        <pt x="506" y="917" on="1"/>
        <pt x="581" y="836" on="1"/>
        <pt x="548" y="819" on="1"/>
        <pt x="480" y="882" on="1"/>
        <pt x="386" y="819" on="1"/>
      </contour>
      <contour>
        <pt x="546" y="110" on="1"/>
        <pt x="425" y="-5" on="0"/>
        <pt x="298" y="-5" on="1"/>
        <pt x="239" y="-5" on="0"/>
        <pt x="147" y="45" on="0"/>
        <pt x="83" y="128" on="0"/>
        <pt x="49" y="235" on="0"/>
        <pt x="49" y="292" on="1"/>
        <pt x="49" y="371" on="0"/>
        <pt x="114" y="523" on="0"/>
        <pt x="224" y="642" on="0"/>
        <pt x="367" y="715" on="0"/>
        <pt x="444" y="715" on="1"/>
        <pt x="495" y="715" on="0"/>
        <pt x="571" y="692" on="0"/>
        <pt x="625" y="651" on="0"/>
        <pt x="660" y="594" on="0"/>
        <pt x="669" y="560" on="1"/>
        <pt x="623" y="535" on="1"/>
        <pt x="603" y="605" on="0"/>
        <pt x="505" y="668" on="0"/>
        <pt x="433" y="668" on="1"/>
        <pt x="364" y="668" on="0"/>
        <pt x="243" y="601" on="0"/>
        <pt x="153" y="494" on="0"/>
        <pt x="100" y="361" on="0"/>
        <pt x="100" y="295" on="1"/>
        <pt x="100" y="244" on="0"/>
        <pt x="130" y="152" on="0"/>
        <pt x="185" y="83" on="0"/>
        <pt x="262" y="42" on="0"/>
        <pt x="310" y="42" on="1"/>
        <pt x="371" y="42" on="0"/>
        <pt x="493" y="101" on="0"/>
        <pt x="558" y="166" on="1"/>
        <pt x="588" y="304" on="1"/>
        <pt x="436" y="304" on="1"/>
        <pt x="445" y="345" on="1"/>
        <pt x="641" y="345" on="1"/>
        <pt x="568" y="0" on="1"/>
        <pt x="523" y="0" on="1"/>
      </contour>
    </TTGlyph>
    <TTGlyph name="Gcommaaccent" xMin="49" yMin="-187" xMax="669" yMax="715">
      <contour>
        <pt x="232" y="-187" on="1"/>
        <pt x="261" y="-119" on="1"/>
        <pt x="245" y="-119" on="1"/>
        <pt x="260" y="-49" on="1"/>
        <pt x="308" y="-49" on="1"/>
        <pt x="294" y="-119" on="1"/>
        <pt x="259" y="-187" on="1"/>
      </contour>
      <contour>
        <pt x="546" y="110" on="1"/>
        <pt x="425" y="-5" on="0"/>
        <pt x="298" y="-5" on="1"/>
        <pt x="239" y="-5" on="0"/>
        <pt x="147" y="45" on="0"/>
        <pt x="83" y="128" on="0"/>
        <pt x="49" y="235" on="0"/>
        <pt x="49" y="292" on="1"/>
        <pt x="49" y="371" on="0"/>
        <pt x="114" y="523" on="0"/>
        <pt x="224" y="642" on="0"/>
        <pt x="367" y="715" on="0"/>
        <pt x="444" y="715" on="1"/>
        <pt x="495" y="715" on="0"/>
        <pt x="571" y="692" on="0"/>
        <pt x="625" y="651" on="0"/>
        <pt x="660" y="594" on="0"/>
        <pt x="669" y="560" on="1"/>
        <pt x="623" y="535" on="1"/>
        <pt x="603" y="605" on="0"/>
        <pt x="505" y="668" on="0"/>
        <pt x="433" y="668" on="1"/>
        <pt x="364" y="668" on="0"/>
        <pt x="243" y="601" on="0"/>
        <pt x="153" y="494" on="0"/>
        <pt x="100" y="361" on="0"/>
        <pt x="100" y="295" on="1"/>
        <pt x="100" y="244" on="0"/>
        <pt x="130" y="152" on="0"/>
        <pt x="185" y="83" on="0"/>
        <pt x="262" y="42" on="0"/>
        <pt x="310" y="42" on="1"/>
        <pt x="371" y="42" on="0"/>
        <pt x="493" y="101" on="0"/>
        <pt x="558" y="166" on="1"/>
        <pt x="588" y="304" on="1"/>
        <pt x="436" y="304" on="1"/>
        <pt x="445" y="345" on="1"/>
        <pt x="641" y="345" on="1"/>
        <pt x="568" y="0" on="1"/>
        <pt x="523" y="0" on="1"/>
      </contour>
    </TTGlyph>
    <TTGlyph name="Gdotaccent" xMin="49" yMin="-5" xMax="669" yMax="917">
      <contour>
        <pt x="546" y="110" on="1"/>
        <pt x="425" y="-5" on="0"/>
        <pt x="298" y="-5" on="1"/>
        <pt x="239" y="-5" on="0"/>
        <pt x="147" y="45" on="0"/>
        <pt x="83" y="128" on="0"/>
        <pt x="49" y="235" on="0"/>
        <pt x="49" y="292" on="1"/>
        <pt x="49" y="371" on="0"/>
        <pt x="114" y="523" on="0"/>
        <pt x="224" y="642" on="0"/>
        <pt x="367" y="715" on="0"/>
        <pt x="444" y="715" on="1"/>
        <pt x="495" y="715" on="0"/>
        <pt x="571" y="692" on="0"/>
        <pt x="625" y="651" on="0"/>
        <pt x="660" y="594" on="0"/>
        <pt x="669" y="560" on="1"/>
        <pt x="623" y="535" on="1"/>
        <pt x="603" y="605" on="0"/>
        <pt x="505" y="668" on="0"/>
        <pt x="433" y="668" on="1"/>
        <pt x="364" y="668" on="0"/>
        <pt x="243" y="601" on="0"/>
        <pt x="153" y="494" on="0"/>
        <pt x="100" y="361" on="0"/>
        <pt x="100" y="295" on="1"/>
        <pt x="100" y="244" on="0"/>
        <pt x="130" y="152" on="0"/>
        <pt x="185" y="83" on="0"/>
        <pt x="262" y="42" on="0"/>
        <pt x="310" y="42" on="1"/>
        <pt x="371" y="42" on="0"/>
        <pt x="493" y="101" on="0"/>
        <pt x="558" y="166" on="1"/>
        <pt x="588" y="304" on="1"/>
        <pt x="436" y="304" on="1"/>
        <pt x="445" y="345" on="1"/>
        <pt x="641" y="345" on="1"/>
        <pt x="568" y="0" on="1"/>
        <pt x="523" y="0" on="1"/>
      </contour>
      <contour>
        <pt x="449" y="827" on="1"/>
        <pt x="468" y="917" on="1"/>
        <pt x="514" y="917" on="1"/>
        <pt x="495" y="827" on="1"/>
      </contour>
    </TTGlyph>
    <TTGlyph name="H" xMin="27" yMin="0" xMax="702" yMax="710">
      <contour>
        <pt x="178" y="710" on="1"/>
        <pt x="229" y="710" on="1"/>
        <pt x="160" y="386" on="1"/>
        <pt x="582" y="386" on="1"/>
        <pt x="651" y="710" on="1"/>
        <pt x="702" y="710" on="1"/>
        <pt x="551" y="0" on="1"/>
        <pt x="500" y="0" on="1"/>
        <pt x="572" y="340" on="1"/>
        <pt x="151" y="340" on="1"/>
        <pt x="78" y="0" on="1"/>
        <pt x="27" y="0" on="1"/>
      </contour>
    </TTGlyph>
    <TTGlyph name="H.sc" xMin="22" yMin="0" xMax="578" yMax="545">
      <contour>
        <pt x="138" y="545" on="1"/>
        <pt x="185" y="545" on="1"/>
        <pt x="133" y="300" on="1"/>
        <pt x="480" y="300" on="1"/>
        <pt x="531" y="545" on="1"/>
        <pt x="578" y="545" on="1"/>
        <pt x="462" y="0" on="1"/>
        <pt x="416" y="0" on="1"/>
        <pt x="470" y="257" on="1"/>
        <pt x="123" y="257" on="1"/>
        <pt x="69" y="0" on="1"/>
        <pt x="22" y="0" on="1"/>
      </contour>
    </TTGlyph>
    <TTGlyph name="Hbar" xMin="32" yMin="0" xMax="727" yMax="710">
      <contour>
        <pt x="109" y="583" on="1"/>
        <pt x="156" y="583" on="1"/>
        <pt x="183" y="710" on="1"/>
        <pt x="234" y="710" on="1"/>
        <pt x="207" y="583" on="1"/>
        <pt x="629" y="583" on="1"/>
        <pt x="656" y="710" on="1"/>
        <pt x="707" y="710" on="1"/>
        <pt x="680" y="583" on="1"/>
        <pt x="727" y="583" on="1"/>
        <pt x="720" y="551" on="1"/>
        <pt x="673" y="551" on="1"/>
        <pt x="556" y="0" on="1"/>
        <pt x="505" y="0" on="1"/>
        <pt x="577" y="340" on="1"/>
        <pt x="155" y="340" on="1"/>
        <pt x="83" y="0" on="1"/>
        <pt x="32" y="0" on="1"/>
        <pt x="149" y="551" on="1"/>
        <pt x="102" y="551" on="1"/>
      </contour>
      <contour>
        <pt x="587" y="386" on="1"/>
        <pt x="622" y="551" on="1"/>
        <pt x="200" y="551" on="1"/>
        <pt x="165" y="386" on="1"/>
      </contour>
    </TTGlyph>
    <TTGlyph name="Hcircumflex" xMin="27" yMin="0" xMax="702" yMax="917">
      <contour>
        <pt x="355" y="836" on="1"/>
        <pt x="464" y="917" on="1"/>
        <pt x="501" y="917" on="1"/>
        <pt x="576" y="836" on="1"/>
        <pt x="543" y="819" on="1"/>
        <pt x="475" y="882" on="1"/>
        <pt x="381" y="819" on="1"/>
      </contour>
      <contour>
        <pt x="178" y="710" on="1"/>
        <pt x="229" y="710" on="1"/>
        <pt x="160" y="386" on="1"/>
        <pt x="582" y="386" on="1"/>
        <pt x="651" y="710" on="1"/>
        <pt x="702" y="710" on="1"/>
        <pt x="551" y="0" on="1"/>
        <pt x="500" y="0" on="1"/>
        <pt x="572" y="340" on="1"/>
        <pt x="151" y="340" on="1"/>
        <pt x="78" y="0" on="1"/>
        <pt x="27" y="0" on="1"/>
      </contour>
    </TTGlyph>
    <TTGlyph name="Hdotbelow" xMin="27" yMin="-151" xMax="702" yMax="710">
      <contour>
        <pt x="178" y="710" on="1"/>
        <pt x="229" y="710" on="1"/>
        <pt x="160" y="386" on="1"/>
        <pt x="582" y="386" on="1"/>
        <pt x="651" y="710" on="1"/>
        <pt x="702" y="710" on="1"/>
        <pt x="551" y="0" on="1"/>
        <pt x="500" y="0" on="1"/>
        <pt x="572" y="340" on="1"/>
        <pt x="151" y="340" on="1"/>
        <pt x="78" y="0" on="1"/>
        <pt x="27" y="0" on="1"/>
      </contour>
      <contour>
        <pt x="235" y="-151" on="1"/>
        <pt x="254" y="-61" on="1"/>
        <pt x="300" y="-61" on="1"/>
        <pt x="281" y="-151" on="1"/>
      </contour>
    </TTGlyph>
    <TTGlyph name="I" xMin="27" yMin="0" xMax="229" yMax="709">
      <contour>
        <pt x="178" y="709" on="1"/>
        <pt x="229" y="709" on="1"/>
        <pt x="78" y="0" on="1"/>
        <pt x="27" y="0" on="1"/>
      </contour>
    </TTGlyph>
    <TTGlyph name="I.sc" xMin="22" yMin="0" xMax="184" yMax="544">
      <contour>
        <pt x="138" y="544" on="1"/>
        <pt x="184" y="544" on="1"/>
        <pt x="69" y="0" on="1"/>
        <pt x="22" y="0" on="1"/>
      </contour>
    </TTGlyph>
    <TTGlyph name="IJ" xMin="27" yMin="-11" xMax="702" yMax="709">
      <contour>
        <pt x="178" y="709" on="1"/>
        <pt x="229" y="709" on="1"/>
        <pt x="78" y="0" on="1"/>
        <pt x="27" y="0" on="1"/>
      </contour>
      <contour>
        <pt x="335" y="-11" on="1"/>
        <pt x="250" y="-11" on="0"/>
        <pt x="198" y="33" on="1"/>
        <pt x="223" y="74" on="1"/>
        <pt x="242" y="57" on="0"/>
        <pt x="304" y="36" on="0"/>
        <pt x="345" y="36" on="1"/>
        <pt x="399" y="36" on="0"/>
        <pt x="473" y="78" on="0"/>
        <pt x="524" y="158" on="0"/>
        <pt x="558" y="275" on="0"/>
        <pt x="574" y="349" on="1"/>
        <pt x="651" y="709" on="1"/>
        <pt x="702" y="709" on="1"/>
        <pt x="625" y="349" on="1"/>
        <pt x="608" y="268" on="0"/>
        <pt x="566" y="135" on="0"/>
        <pt x="502" y="41" on="0"/>
        <pt x="406" y="-11" on="0"/>
      </contour>
    </TTGlyph>
    <TTGlyph name="Iacute" xMin="27" yMin="0" xMax="320" yMax="917">
      <contour>
        <pt x="178" y="709" on="1"/>
        <pt x="229" y="709" on="1"/>
        <pt x="78" y="0" on="1"/>
        <pt x="27" y="0" on="1"/>
      </contour>
      <contour>
        <pt x="218" y="816" on="1"/>
        <pt x="187" y="832" on="1"/>
        <pt x="263" y="917" on="1"/>
        <pt x="320" y="917" on="1"/>
      </contour>
    </TTGlyph>
    <TTGlyph name="Ibreve" xMin="27" yMin="0" xMax="323" yMax="917">
      <contour>
        <pt x="178" y="709" on="1"/>
        <pt x="229" y="709" on="1"/>
        <pt x="78" y="0" on="1"/>
        <pt x="27" y="0" on="1"/>
      </contour>
      <contour>
        <pt x="223" y="853" on="1"/>
        <pt x="243" y="853" on="0"/>
        <pt x="283" y="890" on="0"/>
        <pt x="291" y="917" on="1"/>
        <pt x="323" y="917" on="1"/>
        <pt x="319" y="898" on="0"/>
        <pt x="298" y="864" on="0"/>
        <pt x="269" y="839" on="0"/>
        <pt x="235" y="825" on="0"/>
        <pt x="218" y="825" on="1"/>
        <pt x="186" y="825" on="0"/>
        <pt x="148" y="866" on="0"/>
        <pt x="148" y="897" on="1"/>
        <pt x="148" y="906" on="0"/>
        <pt x="151" y="917" on="1"/>
        <pt x="184" y="917" on="1"/>
        <pt x="183" y="912" on="0"/>
        <pt x="183" y="903" on="1"/>
        <pt x="183" y="883" on="0"/>
        <pt x="206" y="853" on="0"/>
      </contour>
    </TTGlyph>
    <TTGlyph name="Icircumflex" xMin="27" yMin="0" xMax="340" yMax="917">
      <contour>
        <pt x="178" y="709" on="1"/>
        <pt x="229" y="709" on="1"/>
        <pt x="78" y="0" on="1"/>
        <pt x="27" y="0" on="1"/>
      </contour>
      <contour>
        <pt x="119" y="836" on="1"/>
        <pt x="228" y="917" on="1"/>
        <pt x="265" y="917" on="1"/>
        <pt x="340" y="836" on="1"/>
        <pt x="307" y="819" on="1"/>
        <pt x="239" y="882" on="1"/>
        <pt x="145" y="819" on="1"/>
      </contour>
    </TTGlyph>
    <TTGlyph name="Idblgrave" xMin="27" yMin="0" xMax="318" yMax="918">
      <contour>
        <pt x="178" y="709" on="1"/>
        <pt x="229" y="709" on="1"/>
        <pt x="78" y="0" on="1"/>
        <pt x="27" y="0" on="1"/>
      </contour>
      <contour>
        <pt x="229" y="918" on="1"/>
        <pt x="279" y="918" on="1"/>
        <pt x="318" y="833" on="1"/>
        <pt x="286" y="817" on="1"/>
      </contour>
      <contour>
        <pt x="117" y="918" on="1"/>
        <pt x="169" y="918" on="1"/>
        <pt x="206" y="833" on="1"/>
        <pt x="174" y="817" on="1"/>
      </contour>
    </TTGlyph>
    <TTGlyph name="Idieresis" xMin="27" yMin="0" xMax="333" yMax="916">
      <contour>
        <pt x="178" y="709" on="1"/>
        <pt x="229" y="709" on="1"/>
        <pt x="78" y="0" on="1"/>
        <pt x="27" y="0" on="1"/>
      </contour>
      <contour>
        <pt x="140" y="828" on="1"/>
        <pt x="158" y="916" on="1"/>
        <pt x="202" y="916" on="1"/>
        <pt x="183" y="828" on="1"/>
      </contour>
      <contour>
        <pt x="271" y="828" on="1"/>
        <pt x="290" y="916" on="1"/>
        <pt x="333" y="916" on="1"/>
        <pt x="315" y="828" on="1"/>
      </contour>
    </TTGlyph>
    <TTGlyph name="Idotaccent" xMin="27" yMin="0" xMax="270" yMax="917">
      <contour>
        <pt x="178" y="709" on="1"/>
        <pt x="229" y="709" on="1"/>
        <pt x="78" y="0" on="1"/>
        <pt x="27" y="0" on="1"/>
      </contour>
      <contour>
        <pt x="205" y="827" on="1"/>
        <pt x="224" y="917" on="1"/>
        <pt x="270" y="917" on="1"/>
        <pt x="251" y="827" on="1"/>
      </contour>
    </TTGlyph>
    <TTGlyph name="Idotbelow" xMin="-3" yMin="-151" xMax="229" yMax="709">
      <contour>
        <pt x="178" y="709" on="1"/>
        <pt x="229" y="709" on="1"/>
        <pt x="78" y="0" on="1"/>
        <pt x="27" y="0" on="1"/>
      </contour>
      <contour>
        <pt x="-3" y="-151" on="1"/>
        <pt x="16" y="-61" on="1"/>
        <pt x="62" y="-61" on="1"/>
        <pt x="43" y="-151" on="1"/>
      </contour>
    </TTGlyph>
    <TTGlyph name="Igrave" xMin="27" yMin="0" xMax="258" yMax="918">
      <contour>
        <pt x="178" y="709" on="1"/>
        <pt x="229" y="709" on="1"/>
        <pt x="78" y="0" on="1"/>
        <pt x="27" y="0" on="1"/>
      </contour>
      <contour>
        <pt x="162" y="918" on="1"/>
        <pt x="217" y="918" on="1"/>
        <pt x="258" y="833" on="1"/>
        <pt x="221" y="817" on="1"/>
      </contour>
    </TTGlyph>
    <TTGlyph name="Iinvertedbreve" xMin="27" yMin="0" xMax="319" yMax="917">
      <contour>
        <pt x="178" y="709" on="1"/>
        <pt x="229" y="709" on="1"/>
        <pt x="78" y="0" on="1"/>
        <pt x="27" y="0" on="1"/>
      </contour>
      <contour>
        <pt x="146" y="825" on="1"/>
        <pt x="154" y="863" on="0"/>
        <pt x="212" y="917" on="0"/>
        <pt x="250" y="917" on="1"/>
        <pt x="283" y="917" on="0"/>
        <pt x="319" y="873" on="0"/>
        <pt x="319" y="844" on="1"/>
        <pt x="319" y="839" on="0"/>
        <pt x="319" y="830" on="0"/>
        <pt x="317" y="825" on="1"/>
        <pt x="286" y="825" on="1"/>
        <pt x="286" y="830" on="0"/>
        <pt x="287" y="838" on="0"/>
        <pt x="287" y="843" on="1"/>
        <pt x="287" y="889" on="0"/>
        <pt x="247" y="889" on="1"/>
        <pt x="218" y="889" on="0"/>
        <pt x="184" y="851" on="0"/>
        <pt x="178" y="825" on="1"/>
      </contour>
    </TTGlyph>
    <TTGlyph name="Imacron" xMin="27" yMin="0" xMax="379" yMax="895">
      <contour>
        <pt x="178" y="709" on="1"/>
        <pt x="229" y="709" on="1"/>
        <pt x="78" y="0" on="1"/>
        <pt x="27" y="0" on="1"/>
      </contour>
      <contour>
        <pt x="99" y="858" on="1"/>
        <pt x="107" y="895" on="1"/>
        <pt x="379" y="895" on="1"/>
        <pt x="371" y="858" on="1"/>
      </contour>
    </TTGlyph>
    <TTGlyph name="Iogonek" xMin="-55" yMin="-169" xMax="230" yMax="709">
      <contour>
        <pt x="179" y="709" on="1"/>
        <pt x="230" y="709" on="1"/>
        <pt x="79" y="0" on="1"/>
        <pt x="23" y="-34" on="0"/>
        <pt x="-20" y="-79" on="0"/>
        <pt x="-20" y="-102" on="1"/>
        <pt x="-20" y="-133" on="0"/>
        <pt x="19" y="-139" on="1"/>
        <pt x="-4" y="-169" on="1"/>
        <pt x="-30" y="-163" on="0"/>
        <pt x="-55" y="-133" on="0"/>
        <pt x="-55" y="-113" on="1"/>
        <pt x="-55" y="-84" on="0"/>
        <pt x="-12" y="-32" on="0"/>
        <pt x="38" y="0" on="1"/>
        <pt x="28" y="0" on="1"/>
      </contour>
    </TTGlyph>
    <TTGlyph name="Itilde" xMin="27" yMin="0" xMax="390" yMax="917">
      <contour>
        <pt x="178" y="709" on="1"/>
        <pt x="229" y="709" on="1"/>
        <pt x="78" y="0" on="1"/>
        <pt x="27" y="0" on="1"/>
      </contour>
      <contour>
        <pt x="285" y="834" on="1"/>
        <pt x="264" y="834" on="0"/>
        <pt x="234" y="846" on="0"/>
        <pt x="210" y="861" on="0"/>
        <pt x="188" y="874" on="0"/>
        <pt x="173" y="874" on="1"/>
        <pt x="157" y="874" on="0"/>
        <pt x="135" y="860" on="0"/>
        <pt x="122" y="843" on="0"/>
        <pt x="115" y="828" on="0"/>
        <pt x="115" y="826" on="1"/>
        <pt x="81" y="826" on="1"/>
        <pt x="82" y="830" on="0"/>
        <pt x="94" y="857" on="0"/>
        <pt x="118" y="886" on="0"/>
        <pt x="154" y="909" on="0"/>
        <pt x="180" y="909" on="1"/>
        <pt x="199" y="909" on="0"/>
        <pt x="226" y="896" on="0"/>
        <pt x="250" y="881" on="0"/>
        <pt x="274" y="869" on="0"/>
        <pt x="292" y="869" on="1"/>
        <pt x="311" y="869" on="0"/>
        <pt x="335" y="883" on="0"/>
        <pt x="350" y="900" on="0"/>
        <pt x="357" y="915" on="0"/>
        <pt x="357" y="917" on="1"/>
        <pt x="390" y="917" on="1"/>
        <pt x="389" y="912" on="0"/>
        <pt x="377" y="885" on="0"/>
        <pt x="352" y="857" on="0"/>
        <pt x="313" y="834" on="0"/>
      </contour>
    </TTGlyph>
    <TTGlyph name="J" xMin="-35" yMin="-11" xMax="469" yMax="709">
      <contour>
        <pt x="102" y="-11" on="1"/>
        <pt x="17" y="-11" on="0"/>
        <pt x="-35" y="33" on="1"/>
        <pt x="-10" y="74" on="1"/>
        <pt x="9" y="57" on="0"/>
        <pt x="71" y="36" on="0"/>
        <pt x="112" y="36" on="1"/>
        <pt x="166" y="36" on="0"/>
        <pt x="240" y="78" on="0"/>
        <pt x="291" y="158" on="0"/>
        <pt x="325" y="275" on="0"/>
        <pt x="341" y="349" on="1"/>
        <pt x="418" y="709" on="1"/>
        <pt x="469" y="709" on="1"/>
        <pt x="392" y="349" on="1"/>
        <pt x="375" y="268" on="0"/>
        <pt x="333" y="135" on="0"/>
        <pt x="269" y="41" on="0"/>
        <pt x="173" y="-11" on="0"/>
      </contour>
    </TTGlyph>
    <TTGlyph name="J.sc" xMin="-31" yMin="-8" xMax="382" yMax="544">
      <contour>
        <pt x="84" y="-8" on="1"/>
        <pt x="11" y="-8" on="0"/>
        <pt x="-31" y="25" on="1"/>
        <pt x="-9" y="63" on="1"/>
        <pt x="7" y="51" on="0"/>
        <pt x="59" y="34" on="0"/>
        <pt x="93" y="34" on="1"/>
        <pt x="138" y="34" on="0"/>
        <pt x="198" y="65" on="0"/>
        <pt x="238" y="125" on="0"/>
        <pt x="265" y="212" on="0"/>
        <pt x="277" y="268" on="1"/>
        <pt x="336" y="544" on="1"/>
        <pt x="382" y="544" on="1"/>
        <pt x="323" y="268" on="1"/>
        <pt x="310" y="206" on="0"/>
        <pt x="277" y="104" on="0"/>
        <pt x="224" y="32" on="0"/>
        <pt x="144" y="-8" on="0"/>
      </contour>
    </TTGlyph>
    <TTGlyph name="Jcircumflex" xMin="-35" yMin="-11" xMax="578" yMax="917">
      <contour>
        <pt x="357" y="836" on="1"/>
        <pt x="466" y="917" on="1"/>
        <pt x="503" y="917" on="1"/>
        <pt x="578" y="836" on="1"/>
        <pt x="545" y="819" on="1"/>
        <pt x="477" y="882" on="1"/>
        <pt x="383" y="819" on="1"/>
      </contour>
      <contour>
        <pt x="102" y="-11" on="1"/>
        <pt x="17" y="-11" on="0"/>
        <pt x="-35" y="33" on="1"/>
        <pt x="-10" y="74" on="1"/>
        <pt x="9" y="57" on="0"/>
        <pt x="71" y="36" on="0"/>
        <pt x="112" y="36" on="1"/>
        <pt x="166" y="36" on="0"/>
        <pt x="240" y="78" on="0"/>
        <pt x="291" y="158" on="0"/>
        <pt x="325" y="275" on="0"/>
        <pt x="341" y="349" on="1"/>
        <pt x="418" y="709" on="1"/>
        <pt x="469" y="709" on="1"/>
        <pt x="392" y="349" on="1"/>
        <pt x="375" y="268" on="0"/>
        <pt x="333" y="135" on="0"/>
        <pt x="269" y="41" on="0"/>
        <pt x="173" y="-11" on="0"/>
      </contour>
    </TTGlyph>
    <TTGlyph name="K" xMin="27" yMin="0" xMax="678" yMax="710">
      <contour>
        <pt x="178" y="709" on="1"/>
        <pt x="229" y="709" on="1"/>
        <pt x="137" y="279" on="1"/>
        <pt x="619" y="710" on="1"/>
        <pt x="678" y="710" on="1"/>
        <pt x="332" y="399" on="1"/>
        <pt x="541" y="0" on="1"/>
        <pt x="483" y="0" on="1"/>
        <pt x="293" y="368" on="1"/>
        <pt x="125" y="219" on="1"/>
        <pt x="78" y="0" on="1"/>
        <pt x="27" y="0" on="1"/>
      </contour>
    </TTGlyph>
    <TTGlyph name="K.sc" xMin="22" yMin="0" xMax="559" yMax="545">
      <contour>
        <pt x="138" y="544" on="1"/>
        <pt x="184" y="544" on="1"/>
        <pt x="116" y="221" on="1"/>
        <pt x="505" y="545" on="1"/>
        <pt x="559" y="545" on="1"/>
        <pt x="275" y="306" on="1"/>
        <pt x="455" y="0" on="1"/>
        <pt x="403" y="0" on="1"/>
        <pt x="239" y="277" on="1"/>
        <pt x="105" y="168" on="1"/>
        <pt x="69" y="0" on="1"/>
        <pt x="22" y="0" on="1"/>
      </contour>
    </TTGlyph>
    <TTGlyph name="Kcommaaccent" xMin="27" yMin="-187" xMax="678" yMax="710">
      <contour>
        <pt x="191" y="-187" on="1"/>
        <pt x="220" y="-119" on="1"/>
        <pt x="204" y="-119" on="1"/>
        <pt x="219" y="-49" on="1"/>
        <pt x="267" y="-49" on="1"/>
        <pt x="253" y="-119" on="1"/>
        <pt x="218" y="-187" on="1"/>
      </contour>
      <contour>
        <pt x="178" y="709" on="1"/>
        <pt x="229" y="709" on="1"/>
        <pt x="137" y="279" on="1"/>
        <pt x="619" y="710" on="1"/>
        <pt x="678" y="710" on="1"/>
        <pt x="332" y="399" on="1"/>
        <pt x="541" y="0" on="1"/>
        <pt x="483" y="0" on="1"/>
        <pt x="293" y="368" on="1"/>
        <pt x="125" y="219" on="1"/>
        <pt x="78" y="0" on="1"/>
        <pt x="27" y="0" on="1"/>
      </contour>
    </TTGlyph>
    <TTGlyph name="L" xMin="27" yMin="0" xMax="489" yMax="710">
      <contour>
        <pt x="178" y="710" on="1"/>
        <pt x="229" y="710" on="1"/>
        <pt x="88" y="46" on="1"/>
        <pt x="489" y="46" on="1"/>
        <pt x="479" y="0" on="1"/>
        <pt x="27" y="0" on="1"/>
      </contour>
    </TTGlyph>
    <TTGlyph name="L.sc" xMin="22" yMin="0" xMax="401" yMax="545">
      <contour>
        <pt x="138" y="545" on="1"/>
        <pt x="185" y="545" on="1"/>
        <pt x="78" y="42" on="1"/>
        <pt x="401" y="42" on="1"/>
        <pt x="393" y="0" on="1"/>
        <pt x="22" y="0" on="1"/>
      </contour>
    </TTGlyph>
    <TTGlyph name="Lacute" xMin="27" yMin="0" xMax="489" yMax="917">
      <contour>
        <pt x="226" y="816" on="1"/>
        <pt x="195" y="832" on="1"/>
        <pt x="271" y="917" on="1"/>
        <pt x="328" y="917" on="1"/>
      </contour>
      <contour>
        <pt x="178" y="710" on="1"/>
        <pt x="229" y="710" on="1"/>
        <pt x="88" y="46" on="1"/>
        <pt x="489" y="46" on="1"/>
        <pt x="479" y="0" on="1"/>
        <pt x="27" y="0" on="1"/>
      </contour>
    </TTGlyph>
    <TTGlyph name="Lcaron" xMin="27" yMin="0" xMax="489" yMax="730">
      <contour>
        <pt x="282" y="645" on="1"/>
        <pt x="358" y="730" on="1"/>
        <pt x="415" y="730" on="1"/>
        <pt x="313" y="629" on="1"/>
      </contour>
      <contour>
        <pt x="178" y="710" on="1"/>
        <pt x="229" y="710" on="1"/>
        <pt x="88" y="46" on="1"/>
        <pt x="489" y="46" on="1"/>
        <pt x="479" y="0" on="1"/>
        <pt x="27" y="0" on="1"/>
      </contour>
    </TTGlyph>
    <TTGlyph name="Lcommaaccent" xMin="27" yMin="-187" xMax="489" yMax="710">
      <contour>
        <pt x="191" y="-187" on="1"/>
        <pt x="220" y="-119" on="1"/>
        <pt x="204" y="-119" on="1"/>
        <pt x="219" y="-49" on="1"/>
        <pt x="267" y="-49" on="1"/>
        <pt x="253" y="-119" on="1"/>
        <pt x="218" y="-187" on="1"/>
      </contour>
      <contour>
        <pt x="178" y="710" on="1"/>
        <pt x="229" y="710" on="1"/>
        <pt x="88" y="46" on="1"/>
        <pt x="489" y="46" on="1"/>
        <pt x="479" y="0" on="1"/>
        <pt x="27" y="0" on="1"/>
      </contour>
    </TTGlyph>
    <TTGlyph name="Ldot" xMin="27" yMin="0" xMax="489" yMax="710">
      <contour>
        <pt x="178" y="710" on="1"/>
        <pt x="229" y="710" on="1"/>
        <pt x="88" y="46" on="1"/>
        <pt x="489" y="46" on="1"/>
        <pt x="479" y="0" on="1"/>
        <pt x="27" y="0" on="1"/>
      </contour>
      <contour>
        <pt x="331" y="353" on="1"/>
        <pt x="353" y="454" on="1"/>
        <pt x="396" y="454" on="1"/>
        <pt x="375" y="353" on="1"/>
      </contour>
    </TTGlyph>
    <TTGlyph name="Lslash" xMin="14" yMin="0" xMax="496" yMax="710">
      <contour>
        <pt x="14" y="257" on="1"/>
        <pt x="105" y="327" on="1"/>
        <pt x="186" y="710" on="1"/>
        <pt x="237" y="710" on="1"/>
        <pt x="165" y="374" on="1"/>
        <pt x="354" y="522" on="1"/>
        <pt x="366" y="492" on="1"/>
        <pt x="155" y="327" on="1"/>
        <pt x="95" y="46" on="1"/>
        <pt x="496" y="46" on="1"/>
        <pt x="487" y="0" on="1"/>
        <pt x="35" y="0" on="1"/>
        <pt x="94" y="279" on="1"/>
        <pt x="26" y="226" on="1"/>
      </contour>
    </TTGlyph>
    <TTGlyph name="M" xMin="27" yMin="0" xMax="838" yMax="710">
      <contour>
        <pt x="178" y="710" on="1"/>
        <pt x="229" y="710" on="1"/>
        <pt x="400" y="202" on="1"/>
        <pt x="788" y="710" on="1"/>
        <pt x="838" y="710" on="1"/>
        <pt x="687" y="0" on="1"/>
        <pt x="636" y="0" on="1"/>
        <pt x="767" y="614" on="1"/>
        <pt x="402" y="135" on="1"/>
        <pt x="370" y="135" on="1"/>
        <pt x="209" y="614" on="1"/>
        <pt x="78" y="0" on="1"/>
        <pt x="27" y="0" on="1"/>
      </contour>
    </TTGlyph>
    <TTGlyph name="M.sc" xMin="22" yMin="0" xMax="690" yMax="545">
      <contour>
        <pt x="138" y="545" on="1"/>
        <pt x="185" y="545" on="1"/>
        <pt x="334" y="164" on="1"/>
        <pt x="643" y="545" on="1"/>
        <pt x="690" y="545" on="1"/>
        <pt x="574" y="0" on="1"/>
        <pt x="528" y="0" on="1"/>
        <pt x="625" y="459" on="1"/>
        <pt x="335" y="102" on="1"/>
        <pt x="306" y="102" on="1"/>
        <pt x="166" y="459" on="1"/>
        <pt x="69" y="0" on="1"/>
        <pt x="22" y="0" on="1"/>
      </contour>
    </TTGlyph>
    <TTGlyph name="N" xMin="27" yMin="0" xMax="737" yMax="710">
      <contour>
        <pt x="178" y="710" on="1"/>
        <pt x="218" y="710" on="1"/>
        <pt x="554" y="85" on="1"/>
        <pt x="686" y="709" on="1"/>
        <pt x="737" y="709" on="1"/>
        <pt x="586" y="0" on="1"/>
        <pt x="541" y="0" on="1"/>
        <pt x="209" y="614" on="1"/>
        <pt x="78" y="0" on="1"/>
        <pt x="27" y="0" on="1"/>
      </contour>
    </TTGlyph>
    <TTGlyph name="N.sc" xMin="22" yMin="0" xMax="606" yMax="545">
      <contour>
        <pt x="138" y="545" on="1"/>
        <pt x="174" y="545" on="1"/>
        <pt x="461" y="80" on="1"/>
        <pt x="560" y="544" on="1"/>
        <pt x="606" y="544" on="1"/>
        <pt x="491" y="0" on="1"/>
        <pt x="449" y="0" on="1"/>
        <pt x="166" y="457" on="1"/>
        <pt x="69" y="0" on="1"/>
        <pt x="22" y="0" on="1"/>
      </contour>
    </TTGlyph>
    <TTGlyph name="Nacute" xMin="27" yMin="0" xMax="737" yMax="917">
      <contour>
        <pt x="479" y="816" on="1"/>
        <pt x="448" y="832" on="1"/>
        <pt x="524" y="917" on="1"/>
        <pt x="581" y="917" on="1"/>
      </contour>
      <contour>
        <pt x="178" y="710" on="1"/>
        <pt x="218" y="710" on="1"/>
        <pt x="554" y="85" on="1"/>
        <pt x="686" y="709" on="1"/>
        <pt x="737" y="709" on="1"/>
        <pt x="586" y="0" on="1"/>
        <pt x="541" y="0" on="1"/>
        <pt x="209" y="614" on="1"/>
        <pt x="78" y="0" on="1"/>
        <pt x="27" y="0" on="1"/>
      </contour>
    </TTGlyph>
    <TTGlyph name="Ncaron" xMin="27" yMin="0" xMax="737" yMax="917">
      <contour>
        <pt x="385" y="900" on="1"/>
        <pt x="418" y="917" on="1"/>
        <pt x="486" y="854" on="1"/>
        <pt x="580" y="917" on="1"/>
        <pt x="606" y="900" on="1"/>
        <pt x="497" y="819" on="1"/>
        <pt x="460" y="819" on="1"/>
      </contour>
      <contour>
        <pt x="178" y="710" on="1"/>
        <pt x="218" y="710" on="1"/>
        <pt x="554" y="85" on="1"/>
        <pt x="686" y="709" on="1"/>
        <pt x="737" y="709" on="1"/>
        <pt x="586" y="0" on="1"/>
        <pt x="541" y="0" on="1"/>
        <pt x="209" y="614" on="1"/>
        <pt x="78" y="0" on="1"/>
        <pt x="27" y="0" on="1"/>
      </contour>
    </TTGlyph>
    <TTGlyph name="Ncommaaccent" xMin="27" yMin="-187" xMax="737" yMax="710">
      <contour>
        <pt x="249" y="-187" on="1"/>
        <pt x="278" y="-119" on="1"/>
        <pt x="262" y="-119" on="1"/>
        <pt x="277" y="-49" on="1"/>
        <pt x="325" y="-49" on="1"/>
        <pt x="311" y="-119" on="1"/>
        <pt x="276" y="-187" on="1"/>
      </contour>
      <contour>
        <pt x="178" y="710" on="1"/>
        <pt x="218" y="710" on="1"/>
        <pt x="554" y="85" on="1"/>
        <pt x="686" y="709" on="1"/>
        <pt x="737" y="709" on="1"/>
        <pt x="586" y="0" on="1"/>
        <pt x="541" y="0" on="1"/>
        <pt x="209" y="614" on="1"/>
        <pt x="78" y="0" on="1"/>
        <pt x="27" y="0" on="1"/>
      </contour>
    </TTGlyph>
    <TTGlyph name="Ndotaccent" xMin="27" yMin="0" xMax="737" yMax="917">
      <contour>
        <pt x="464" y="827" on="1"/>
        <pt x="483" y="917" on="1"/>
        <pt x="529" y="917" on="1"/>
        <pt x="510" y="827" on="1"/>
      </contour>
      <contour>
        <pt x="178" y="710" on="1"/>
        <pt x="218" y="710" on="1"/>
        <pt x="554" y="85" on="1"/>
        <pt x="686" y="709" on="1"/>
        <pt x="737" y="709" on="1"/>
        <pt x="586" y="0" on="1"/>
        <pt x="541" y="0" on="1"/>
        <pt x="209" y="614" on="1"/>
        <pt x="78" y="0" on="1"/>
        <pt x="27" y="0" on="1"/>
      </contour>
    </TTGlyph>
    <TTGlyph name="Ntilde" xMin="27" yMin="0" xMax="737" yMax="917">
      <contour>
        <pt x="178" y="710" on="1"/>
        <pt x="218" y="710" on="1"/>
        <pt x="554" y="85" on="1"/>
        <pt x="686" y="709" on="1"/>
        <pt x="737" y="709" on="1"/>
        <pt x="586" y="0" on="1"/>
        <pt x="541" y="0" on="1"/>
        <pt x="209" y="614" on="1"/>
        <pt x="78" y="0" on="1"/>
        <pt x="27" y="0" on="1"/>
      </contour>
      <contour>
        <pt x="547" y="834" on="1"/>
        <pt x="526" y="834" on="0"/>
        <pt x="496" y="846" on="0"/>
        <pt x="472" y="861" on="0"/>
        <pt x="450" y="874" on="0"/>
        <pt x="435" y="874" on="1"/>
        <pt x="419" y="874" on="0"/>
        <pt x="397" y="860" on="0"/>
        <pt x="384" y="843" on="0"/>
        <pt x="377" y="828" on="0"/>
        <pt x="377" y="826" on="1"/>
        <pt x="343" y="826" on="1"/>
        <pt x="344" y="830" on="0"/>
        <pt x="356" y="857" on="0"/>
        <pt x="380" y="886" on="0"/>
        <pt x="416" y="909" on="0"/>
        <pt x="442" y="909" on="1"/>
        <pt x="461" y="909" on="0"/>
        <pt x="488" y="896" on="0"/>
        <pt x="512" y="881" on="0"/>
        <pt x="536" y="869" on="0"/>
        <pt x="554" y="869" on="1"/>
        <pt x="573" y="869" on="0"/>
        <pt x="597" y="883" on="0"/>
        <pt x="612" y="900" on="0"/>
        <pt x="619" y="915" on="0"/>
        <pt x="619" y="917" on="1"/>
        <pt x="652" y="917" on="1"/>
        <pt x="651" y="912" on="0"/>
        <pt x="639" y="885" on="0"/>
        <pt x="614" y="857" on="0"/>
        <pt x="575" y="834" on="0"/>
      </contour>
    </TTGlyph>
    <TTGlyph name="O" xMin="48" yMin="-5" xMax="698" yMax="715">
      <contour>
        <pt x="297" y="-5" on="1"/>
        <pt x="237" y="-5" on="0"/>
        <pt x="144" y="43" on="0"/>
        <pt x="81" y="124" on="0"/>
        <pt x="48" y="230" on="0"/>
        <pt x="48" y="287" on="1"/>
        <pt x="48" y="369" on="0"/>
        <pt x="116" y="523" on="0"/>
        <pt x="228" y="643" on="0"/>
        <pt x="374" y="715" on="0"/>
        <pt x="451" y="715" on="1"/>
        <pt x="511" y="715" on="0"/>
        <pt x="603" y="665" on="0"/>
        <pt x="666" y="583" on="0"/>
        <pt x="698" y="477" on="0"/>
        <pt x="698" y="421" on="1"/>
        <pt x="698" y="340" on="0"/>
        <pt x="630" y="186" on="0"/>
        <pt x="518" y="67" on="0"/>
        <pt x="374" y="-5" on="0"/>
      </contour>
      <contour>
        <pt x="307" y="42" on="1"/>
        <pt x="376" y="42" on="0"/>
        <pt x="500" y="109" on="0"/>
        <pt x="592" y="216" on="0"/>
        <pt x="646" y="350" on="0"/>
        <pt x="646" y="416" on="1"/>
        <pt x="646" y="467" on="0"/>
        <pt x="618" y="558" on="0"/>
        <pt x="565" y="627" on="0"/>
        <pt x="488" y="668" on="0"/>
        <pt x="440" y="668" on="1"/>
        <pt x="371" y="668" on="0"/>
        <pt x="247" y="601" on="0"/>
        <pt x="154" y="494" on="0"/>
        <pt x="100" y="360" on="0"/>
        <pt x="100" y="293" on="1"/>
        <pt x="100" y="242" on="0"/>
        <pt x="128" y="151" on="0"/>
        <pt x="181" y="82" on="0"/>
        <pt x="258" y="42" on="0"/>
      </contour>
    </TTGlyph>
    <TTGlyph name="O.sc" xMin="35" yMin="-4" xMax="575" yMax="548">
      <contour>
        <pt x="247" y="-4" on="1"/>
        <pt x="196" y="-4" on="0"/>
        <pt x="117" y="34" on="0"/>
        <pt x="63" y="97" on="0"/>
        <pt x="35" y="180" on="0"/>
        <pt x="35" y="225" on="1"/>
        <pt x="35" y="286" on="0"/>
        <pt x="90" y="403" on="0"/>
        <pt x="182" y="493" on="0"/>
        <pt x="301" y="548" on="0"/>
        <pt x="365" y="548" on="1"/>
        <pt x="416" y="548" on="0"/>
        <pt x="494" y="509" on="0"/>
        <pt x="547" y="445" on="0"/>
        <pt x="575" y="362" on="0"/>
        <pt x="575" y="318" on="1"/>
        <pt x="575" y="256" on="0"/>
        <pt x="520" y="140" on="0"/>
        <pt x="429" y="50" on="0"/>
        <pt x="311" y="-4" on="0"/>
      </contour>
      <contour>
        <pt x="257" y="39" on="1"/>
        <pt x="313" y="39" on="0"/>
        <pt x="412" y="88" on="0"/>
        <pt x="485" y="167" on="0"/>
        <pt x="528" y="265" on="0"/>
        <pt x="528" y="314" on="1"/>
        <pt x="528" y="352" on="0"/>
        <pt x="504" y="421" on="0"/>
        <pt x="460" y="474" on="0"/>
        <pt x="395" y="505" on="0"/>
        <pt x="355" y="505" on="1"/>
        <pt x="299" y="505" on="0"/>
        <pt x="201" y="456" on="0"/>
        <pt x="126" y="377" on="0"/>
        <pt x="83" y="279" on="0"/>
        <pt x="83" y="230" on="1"/>
        <pt x="83" y="192" on="0"/>
        <pt x="106" y="123" on="0"/>
        <pt x="151" y="70" on="0"/>
        <pt x="216" y="39" on="0"/>
      </contour>
    </TTGlyph>
    <TTGlyph name="OE" xMin="48" yMin="-5" xMax="1153" yMax="715">
      <contour>
        <pt x="298" y="-5" on="1"/>
        <pt x="238" y="-5" on="0"/>
        <pt x="145" y="44" on="0"/>
        <pt x="81" y="125" on="0"/>
        <pt x="48" y="231" on="0"/>
        <pt x="48" y="288" on="1"/>
        <pt x="48" y="369" on="0"/>
        <pt x="116" y="523" on="0"/>
        <pt x="228" y="643" on="0"/>
        <pt x="374" y="715" on="0"/>
        <pt x="451" y="715" on="1"/>
        <pt x="498" y="715" on="0"/>
        <pt x="574" y="682" on="0"/>
        <pt x="629" y="626" on="0"/>
        <pt x="665" y="551" on="0"/>
        <pt x="671" y="509" on="1"/>
        <pt x="714" y="710" on="1"/>
        <pt x="1153" y="710" on="1"/>
        <pt x="1142" y="664" on="1"/>
        <pt x="755" y="664" on="1"/>
        <pt x="697" y="386" on="1"/>
        <pt x="1032" y="386" on="1"/>
        <pt x="1022" y="339" on="1"/>
        <pt x="686" y="339" on="1"/>
        <pt x="624" y="46" on="1"/>
        <pt x="1019" y="46" on="1"/>
        <pt x="1010" y="0" on="1"/>
        <pt x="563" y="0" on="1"/>
        <pt x="606" y="200" on="1"/>
        <pt x="580" y="157" on="0"/>
        <pt x="512" y="82" on="0"/>
        <pt x="432" y="27" on="0"/>
        <pt x="343" y="-5" on="0"/>
      </contour>
      <contour>
        <pt x="307" y="42" on="1"/>
        <pt x="376" y="42" on="0"/>
        <pt x="499" y="109" on="0"/>
        <pt x="592" y="216" on="0"/>
        <pt x="646" y="350" on="0"/>
        <pt x="646" y="417" on="1"/>
        <pt x="646" y="467" on="0"/>
        <pt x="618" y="558" on="0"/>
        <pt x="565" y="627" on="0"/>
        <pt x="488" y="668" on="0"/>
        <pt x="440" y="668" on="1"/>
        <pt x="371" y="668" on="0"/>
        <pt x="247" y="601" on="0"/>
        <pt x="154" y="494" on="0"/>
        <pt x="100" y="360" on="0"/>
        <pt x="100" y="293" on="1"/>
        <pt x="100" y="242" on="0"/>
        <pt x="128" y="151" on="0"/>
        <pt x="181" y="82" on="0"/>
        <pt x="258" y="42" on="0"/>
      </contour>
    </TTGlyph>
    <TTGlyph name="Oacute" xMin="48" yMin="-5" xMax="698" yMax="917">
      <contour>
        <pt x="469" y="816" on="1"/>
        <pt x="438" y="832" on="1"/>
        <pt x="514" y="917" on="1"/>
        <pt x="571" y="917" on="1"/>
      </contour>
      <contour>
        <pt x="297" y="-5" on="1"/>
        <pt x="237" y="-5" on="0"/>
        <pt x="144" y="43" on="0"/>
        <pt x="81" y="124" on="0"/>
        <pt x="48" y="230" on="0"/>
        <pt x="48" y="287" on="1"/>
        <pt x="48" y="369" on="0"/>
        <pt x="116" y="523" on="0"/>
        <pt x="228" y="643" on="0"/>
        <pt x="374" y="715" on="0"/>
        <pt x="451" y="715" on="1"/>
        <pt x="511" y="715" on="0"/>
        <pt x="603" y="665" on="0"/>
        <pt x="666" y="583" on="0"/>
        <pt x="698" y="477" on="0"/>
        <pt x="698" y="421" on="1"/>
        <pt x="698" y="340" on="0"/>
        <pt x="630" y="186" on="0"/>
        <pt x="518" y="67" on="0"/>
        <pt x="374" y="-5" on="0"/>
      </contour>
      <contour>
        <pt x="307" y="42" on="1"/>
        <pt x="376" y="42" on="0"/>
        <pt x="500" y="109" on="0"/>
        <pt x="592" y="216" on="0"/>
        <pt x="646" y="350" on="0"/>
        <pt x="646" y="416" on="1"/>
        <pt x="646" y="467" on="0"/>
        <pt x="618" y="558" on="0"/>
        <pt x="565" y="627" on="0"/>
        <pt x="488" y="668" on="0"/>
        <pt x="440" y="668" on="1"/>
        <pt x="371" y="668" on="0"/>
        <pt x="247" y="601" on="0"/>
        <pt x="154" y="494" on="0"/>
        <pt x="100" y="360" on="0"/>
        <pt x="100" y="293" on="1"/>
        <pt x="100" y="242" on="0"/>
        <pt x="128" y="151" on="0"/>
        <pt x="181" y="82" on="0"/>
        <pt x="258" y="42" on="0"/>
      </contour>
    </TTGlyph>
    <TTGlyph name="Obreve" xMin="48" yMin="-5" xMax="698" yMax="917">
      <contour>
        <pt x="297" y="-5" on="1"/>
        <pt x="237" y="-5" on="0"/>
        <pt x="144" y="43" on="0"/>
        <pt x="81" y="124" on="0"/>
        <pt x="48" y="230" on="0"/>
        <pt x="48" y="287" on="1"/>
        <pt x="48" y="369" on="0"/>
        <pt x="116" y="523" on="0"/>
        <pt x="228" y="643" on="0"/>
        <pt x="374" y="715" on="0"/>
        <pt x="451" y="715" on="1"/>
        <pt x="511" y="715" on="0"/>
        <pt x="603" y="665" on="0"/>
        <pt x="666" y="583" on="0"/>
        <pt x="698" y="477" on="0"/>
        <pt x="698" y="421" on="1"/>
        <pt x="698" y="340" on="0"/>
        <pt x="630" y="186" on="0"/>
        <pt x="518" y="67" on="0"/>
        <pt x="374" y="-5" on="0"/>
      </contour>
      <contour>
        <pt x="307" y="42" on="1"/>
        <pt x="376" y="42" on="0"/>
        <pt x="500" y="109" on="0"/>
        <pt x="592" y="216" on="0"/>
        <pt x="646" y="350" on="0"/>
        <pt x="646" y="416" on="1"/>
        <pt x="646" y="467" on="0"/>
        <pt x="618" y="558" on="0"/>
        <pt x="565" y="627" on="0"/>
        <pt x="488" y="668" on="0"/>
        <pt x="440" y="668" on="1"/>
        <pt x="371" y="668" on="0"/>
        <pt x="247" y="601" on="0"/>
        <pt x="154" y="494" on="0"/>
        <pt x="100" y="360" on="0"/>
        <pt x="100" y="293" on="1"/>
        <pt x="100" y="242" on="0"/>
        <pt x="128" y="151" on="0"/>
        <pt x="181" y="82" on="0"/>
        <pt x="258" y="42" on="0"/>
      </contour>
      <contour>
        <pt x="473" y="853" on="1"/>
        <pt x="493" y="853" on="0"/>
        <pt x="533" y="890" on="0"/>
        <pt x="541" y="917" on="1"/>
        <pt x="573" y="917" on="1"/>
        <pt x="569" y="898" on="0"/>
        <pt x="548" y="864" on="0"/>
        <pt x="519" y="839" on="0"/>
        <pt x="485" y="825" on="0"/>
        <pt x="468" y="825" on="1"/>
        <pt x="436" y="825" on="0"/>
        <pt x="398" y="866" on="0"/>
        <pt x="398" y="897" on="1"/>
        <pt x="398" y="906" on="0"/>
        <pt x="401" y="917" on="1"/>
        <pt x="434" y="917" on="1"/>
        <pt x="433" y="912" on="0"/>
        <pt x="433" y="903" on="1"/>
        <pt x="433" y="883" on="0"/>
        <pt x="456" y="853" on="0"/>
      </contour>
    </TTGlyph>
    <TTGlyph name="Ocircumflex" xMin="48" yMin="-5" xMax="698" yMax="917">
      <contour>
        <pt x="371" y="836" on="1"/>
        <pt x="480" y="917" on="1"/>
        <pt x="517" y="917" on="1"/>
        <pt x="592" y="836" on="1"/>
        <pt x="559" y="819" on="1"/>
        <pt x="491" y="882" on="1"/>
        <pt x="397" y="819" on="1"/>
      </contour>
      <contour>
        <pt x="297" y="-5" on="1"/>
        <pt x="237" y="-5" on="0"/>
        <pt x="144" y="43" on="0"/>
        <pt x="81" y="124" on="0"/>
        <pt x="48" y="230" on="0"/>
        <pt x="48" y="287" on="1"/>
        <pt x="48" y="369" on="0"/>
        <pt x="116" y="523" on="0"/>
        <pt x="228" y="643" on="0"/>
        <pt x="374" y="715" on="0"/>
        <pt x="451" y="715" on="1"/>
        <pt x="511" y="715" on="0"/>
        <pt x="603" y="665" on="0"/>
        <pt x="666" y="583" on="0"/>
        <pt x="698" y="477" on="0"/>
        <pt x="698" y="421" on="1"/>
        <pt x="698" y="340" on="0"/>
        <pt x="630" y="186" on="0"/>
        <pt x="518" y="67" on="0"/>
        <pt x="374" y="-5" on="0"/>
      </contour>
      <contour>
        <pt x="307" y="42" on="1"/>
        <pt x="376" y="42" on="0"/>
        <pt x="500" y="109" on="0"/>
        <pt x="592" y="216" on="0"/>
        <pt x="646" y="350" on="0"/>
        <pt x="646" y="416" on="1"/>
        <pt x="646" y="467" on="0"/>
        <pt x="618" y="558" on="0"/>
        <pt x="565" y="627" on="0"/>
        <pt x="488" y="668" on="0"/>
        <pt x="440" y="668" on="1"/>
        <pt x="371" y="668" on="0"/>
        <pt x="247" y="601" on="0"/>
        <pt x="154" y="494" on="0"/>
        <pt x="100" y="360" on="0"/>
        <pt x="100" y="293" on="1"/>
        <pt x="100" y="242" on="0"/>
        <pt x="128" y="151" on="0"/>
        <pt x="181" y="82" on="0"/>
        <pt x="258" y="42" on="0"/>
      </contour>
    </TTGlyph>
    <TTGlyph name="Odblgrave" xMin="48" yMin="-5" xMax="698" yMax="918">
      <contour>
        <pt x="489" y="918" on="1"/>
        <pt x="539" y="918" on="1"/>
        <pt x="578" y="833" on="1"/>
        <pt x="546" y="817" on="1"/>
      </contour>
      <contour>
        <pt x="377" y="918" on="1"/>
        <pt x="429" y="918" on="1"/>
        <pt x="466" y="833" on="1"/>
        <pt x="434" y="817" on="1"/>
      </contour>
      <contour>
        <pt x="297" y="-5" on="1"/>
        <pt x="237" y="-5" on="0"/>
        <pt x="144" y="43" on="0"/>
        <pt x="81" y="124" on="0"/>
        <pt x="48" y="230" on="0"/>
        <pt x="48" y="287" on="1"/>
        <pt x="48" y="369" on="0"/>
        <pt x="116" y="523" on="0"/>
        <pt x="228" y="643" on="0"/>
        <pt x="374" y="715" on="0"/>
        <pt x="451" y="715" on="1"/>
        <pt x="511" y="715" on="0"/>
        <pt x="603" y="665" on="0"/>
        <pt x="666" y="583" on="0"/>
        <pt x="698" y="477" on="0"/>
        <pt x="698" y="421" on="1"/>
        <pt x="698" y="340" on="0"/>
        <pt x="630" y="186" on="0"/>
        <pt x="518" y="67" on="0"/>
        <pt x="374" y="-5" on="0"/>
      </contour>
      <contour>
        <pt x="307" y="42" on="1"/>
        <pt x="376" y="42" on="0"/>
        <pt x="500" y="109" on="0"/>
        <pt x="592" y="216" on="0"/>
        <pt x="646" y="350" on="0"/>
        <pt x="646" y="416" on="1"/>
        <pt x="646" y="467" on="0"/>
        <pt x="618" y="558" on="0"/>
        <pt x="565" y="627" on="0"/>
        <pt x="488" y="668" on="0"/>
        <pt x="440" y="668" on="1"/>
        <pt x="371" y="668" on="0"/>
        <pt x="247" y="601" on="0"/>
        <pt x="154" y="494" on="0"/>
        <pt x="100" y="360" on="0"/>
        <pt x="100" y="293" on="1"/>
        <pt x="100" y="242" on="0"/>
        <pt x="128" y="151" on="0"/>
        <pt x="181" y="82" on="0"/>
        <pt x="258" y="42" on="0"/>
      </contour>
    </TTGlyph>
    <TTGlyph name="Odieresis" xMin="48" yMin="-5" xMax="698" yMax="916">
      <contour>
        <pt x="388" y="828" on="1"/>
        <pt x="406" y="916" on="1"/>
        <pt x="450" y="916" on="1"/>
        <pt x="431" y="828" on="1"/>
      </contour>
      <contour>
        <pt x="519" y="828" on="1"/>
        <pt x="538" y="916" on="1"/>
        <pt x="581" y="916" on="1"/>
        <pt x="563" y="828" on="1"/>
      </contour>
      <contour>
        <pt x="297" y="-5" on="1"/>
        <pt x="237" y="-5" on="0"/>
        <pt x="144" y="43" on="0"/>
        <pt x="81" y="124" on="0"/>
        <pt x="48" y="230" on="0"/>
        <pt x="48" y="287" on="1"/>
        <pt x="48" y="369" on="0"/>
        <pt x="116" y="523" on="0"/>
        <pt x="228" y="643" on="0"/>
        <pt x="374" y="715" on="0"/>
        <pt x="451" y="715" on="1"/>
        <pt x="511" y="715" on="0"/>
        <pt x="603" y="665" on="0"/>
        <pt x="666" y="583" on="0"/>
        <pt x="698" y="477" on="0"/>
        <pt x="698" y="421" on="1"/>
        <pt x="698" y="340" on="0"/>
        <pt x="630" y="186" on="0"/>
        <pt x="518" y="67" on="0"/>
        <pt x="374" y="-5" on="0"/>
      </contour>
      <contour>
        <pt x="307" y="42" on="1"/>
        <pt x="376" y="42" on="0"/>
        <pt x="500" y="109" on="0"/>
        <pt x="592" y="216" on="0"/>
        <pt x="646" y="350" on="0"/>
        <pt x="646" y="416" on="1"/>
        <pt x="646" y="467" on="0"/>
        <pt x="618" y="558" on="0"/>
        <pt x="565" y="627" on="0"/>
        <pt x="488" y="668" on="0"/>
        <pt x="440" y="668" on="1"/>
        <pt x="371" y="668" on="0"/>
        <pt x="247" y="601" on="0"/>
        <pt x="154" y="494" on="0"/>
        <pt x="100" y="360" on="0"/>
        <pt x="100" y="293" on="1"/>
        <pt x="100" y="242" on="0"/>
        <pt x="128" y="151" on="0"/>
        <pt x="181" y="82" on="0"/>
        <pt x="258" y="42" on="0"/>
      </contour>
    </TTGlyph>
    <TTGlyph name="Odotbelow" xMin="48" yMin="-151" xMax="698" yMax="715">
      <contour>
        <pt x="246" y="-151" on="1"/>
        <pt x="265" y="-61" on="1"/>
        <pt x="311" y="-61" on="1"/>
        <pt x="292" y="-151" on="1"/>
      </contour>
      <contour>
        <pt x="297" y="-5" on="1"/>
        <pt x="237" y="-5" on="0"/>
        <pt x="144" y="43" on="0"/>
        <pt x="81" y="124" on="0"/>
        <pt x="48" y="230" on="0"/>
        <pt x="48" y="287" on="1"/>
        <pt x="48" y="369" on="0"/>
        <pt x="116" y="523" on="0"/>
        <pt x="228" y="643" on="0"/>
        <pt x="374" y="715" on="0"/>
        <pt x="451" y="715" on="1"/>
        <pt x="511" y="715" on="0"/>
        <pt x="603" y="665" on="0"/>
        <pt x="666" y="583" on="0"/>
        <pt x="698" y="477" on="0"/>
        <pt x="698" y="421" on="1"/>
        <pt x="698" y="340" on="0"/>
        <pt x="630" y="186" on="0"/>
        <pt x="518" y="67" on="0"/>
        <pt x="374" y="-5" on="0"/>
      </contour>
      <contour>
        <pt x="307" y="42" on="1"/>
        <pt x="376" y="42" on="0"/>
        <pt x="500" y="109" on="0"/>
        <pt x="592" y="216" on="0"/>
        <pt x="646" y="350" on="0"/>
        <pt x="646" y="416" on="1"/>
        <pt x="646" y="467" on="0"/>
        <pt x="618" y="558" on="0"/>
        <pt x="565" y="627" on="0"/>
        <pt x="488" y="668" on="0"/>
        <pt x="440" y="668" on="1"/>
        <pt x="371" y="668" on="0"/>
        <pt x="247" y="601" on="0"/>
        <pt x="154" y="494" on="0"/>
        <pt x="100" y="360" on="0"/>
        <pt x="100" y="293" on="1"/>
        <pt x="100" y="242" on="0"/>
        <pt x="128" y="151" on="0"/>
        <pt x="181" y="82" on="0"/>
        <pt x="258" y="42" on="0"/>
      </contour>
    </TTGlyph>
    <TTGlyph name="Ograve" xMin="48" yMin="-5" xMax="698" yMax="918">
      <contour>
        <pt x="297" y="-5" on="1"/>
        <pt x="237" y="-5" on="0"/>
        <pt x="144" y="43" on="0"/>
        <pt x="81" y="124" on="0"/>
        <pt x="48" y="230" on="0"/>
        <pt x="48" y="287" on="1"/>
        <pt x="48" y="369" on="0"/>
        <pt x="116" y="523" on="0"/>
        <pt x="228" y="643" on="0"/>
        <pt x="374" y="715" on="0"/>
        <pt x="451" y="715" on="1"/>
        <pt x="511" y="715" on="0"/>
        <pt x="603" y="665" on="0"/>
        <pt x="666" y="583" on="0"/>
        <pt x="698" y="477" on="0"/>
        <pt x="698" y="421" on="1"/>
        <pt x="698" y="340" on="0"/>
        <pt x="630" y="186" on="0"/>
        <pt x="518" y="67" on="0"/>
        <pt x="374" y="-5" on="0"/>
      </contour>
      <contour>
        <pt x="307" y="42" on="1"/>
        <pt x="376" y="42" on="0"/>
        <pt x="500" y="109" on="0"/>
        <pt x="592" y="216" on="0"/>
        <pt x="646" y="350" on="0"/>
        <pt x="646" y="416" on="1"/>
        <pt x="646" y="467" on="0"/>
        <pt x="618" y="558" on="0"/>
        <pt x="565" y="627" on="0"/>
        <pt x="488" y="668" on="0"/>
        <pt x="440" y="668" on="1"/>
        <pt x="371" y="668" on="0"/>
        <pt x="247" y="601" on="0"/>
        <pt x="154" y="494" on="0"/>
        <pt x="100" y="360" on="0"/>
        <pt x="100" y="293" on="1"/>
        <pt x="100" y="242" on="0"/>
        <pt x="128" y="151" on="0"/>
        <pt x="181" y="82" on="0"/>
        <pt x="258" y="42" on="0"/>
      </contour>
      <contour>
        <pt x="424" y="918" on="1"/>
        <pt x="479" y="918" on="1"/>
        <pt x="520" y="833" on="1"/>
        <pt x="483" y="817" on="1"/>
      </contour>
    </TTGlyph>
    <TTGlyph name="Ohungarumlaut" xMin="48" yMin="-5" xMax="698" yMax="918">
      <contour>
        <pt x="402" y="817" on="1"/>
        <pt x="376" y="833" on="1"/>
        <pt x="451" y="918" on="1"/>
        <pt x="502" y="918" on="1"/>
      </contour>
      <contour>
        <pt x="514" y="817" on="1"/>
        <pt x="488" y="833" on="1"/>
        <pt x="562" y="918" on="1"/>
        <pt x="614" y="918" on="1"/>
      </contour>
      <contour>
        <pt x="297" y="-5" on="1"/>
        <pt x="237" y="-5" on="0"/>
        <pt x="144" y="43" on="0"/>
        <pt x="81" y="124" on="0"/>
        <pt x="48" y="230" on="0"/>
        <pt x="48" y="287" on="1"/>
        <pt x="48" y="369" on="0"/>
        <pt x="116" y="523" on="0"/>
        <pt x="228" y="643" on="0"/>
        <pt x="374" y="715" on="0"/>
        <pt x="451" y="715" on="1"/>
        <pt x="511" y="715" on="0"/>
        <pt x="603" y="665" on="0"/>
        <pt x="666" y="583" on="0"/>
        <pt x="698" y="477" on="0"/>
        <pt x="698" y="421" on="1"/>
        <pt x="698" y="340" on="0"/>
        <pt x="630" y="186" on="0"/>
        <pt x="518" y="67" on="0"/>
        <pt x="374" y="-5" on="0"/>
      </contour>
      <contour>
        <pt x="307" y="42" on="1"/>
        <pt x="376" y="42" on="0"/>
        <pt x="500" y="109" on="0"/>
        <pt x="592" y="216" on="0"/>
        <pt x="646" y="350" on="0"/>
        <pt x="646" y="416" on="1"/>
        <pt x="646" y="467" on="0"/>
        <pt x="618" y="558" on="0"/>
        <pt x="565" y="627" on="0"/>
        <pt x="488" y="668" on="0"/>
        <pt x="440" y="668" on="1"/>
        <pt x="371" y="668" on="0"/>
        <pt x="247" y="601" on="0"/>
        <pt x="154" y="494" on="0"/>
        <pt x="100" y="360" on="0"/>
        <pt x="100" y="293" on="1"/>
        <pt x="100" y="242" on="0"/>
        <pt x="128" y="151" on="0"/>
        <pt x="181" y="82" on="0"/>
        <pt x="258" y="42" on="0"/>
      </contour>
    </TTGlyph>
    <TTGlyph name="Oinvertedbreve" xMin="48" yMin="-5" xMax="698" yMax="917">
      <contour>
        <pt x="396" y="825" on="1"/>
        <pt x="404" y="863" on="0"/>
        <pt x="462" y="917" on="0"/>
        <pt x="500" y="917" on="1"/>
        <pt x="533" y="917" on="0"/>
        <pt x="569" y="873" on="0"/>
        <pt x="569" y="844" on="1"/>
        <pt x="569" y="839" on="0"/>
        <pt x="569" y="830" on="0"/>
        <pt x="567" y="825" on="1"/>
        <pt x="536" y="825" on="1"/>
        <pt x="536" y="830" on="0"/>
        <pt x="537" y="838" on="0"/>
        <pt x="537" y="843" on="1"/>
        <pt x="537" y="889" on="0"/>
        <pt x="497" y="889" on="1"/>
        <pt x="468" y="889" on="0"/>
        <pt x="434" y="851" on="0"/>
        <pt x="428" y="825" on="1"/>
      </contour>
      <contour>
        <pt x="297" y="-5" on="1"/>
        <pt x="237" y="-5" on="0"/>
        <pt x="144" y="43" on="0"/>
        <pt x="81" y="124" on="0"/>
        <pt x="48" y="230" on="0"/>
        <pt x="48" y="287" on="1"/>
        <pt x="48" y="369" on="0"/>
        <pt x="116" y="523" on="0"/>
        <pt x="228" y="643" on="0"/>
        <pt x="374" y="715" on="0"/>
        <pt x="451" y="715" on="1"/>
        <pt x="511" y="715" on="0"/>
        <pt x="603" y="665" on="0"/>
        <pt x="666" y="583" on="0"/>
        <pt x="698" y="477" on="0"/>
        <pt x="698" y="421" on="1"/>
        <pt x="698" y="340" on="0"/>
        <pt x="630" y="186" on="0"/>
        <pt x="518" y="67" on="0"/>
        <pt x="374" y="-5" on="0"/>
      </contour>
      <contour>
        <pt x="307" y="42" on="1"/>
        <pt x="376" y="42" on="0"/>
        <pt x="500" y="109" on="0"/>
        <pt x="592" y="216" on="0"/>
        <pt x="646" y="350" on="0"/>
        <pt x="646" y="416" on="1"/>
        <pt x="646" y="467" on="0"/>
        <pt x="618" y="558" on="0"/>
        <pt x="565" y="627" on="0"/>
        <pt x="488" y="668" on="0"/>
        <pt x="440" y="668" on="1"/>
        <pt x="371" y="668" on="0"/>
        <pt x="247" y="601" on="0"/>
        <pt x="154" y="494" on="0"/>
        <pt x="100" y="360" on="0"/>
        <pt x="100" y="293" on="1"/>
        <pt x="100" y="242" on="0"/>
        <pt x="128" y="151" on="0"/>
        <pt x="181" y="82" on="0"/>
        <pt x="258" y="42" on="0"/>
      </contour>
    </TTGlyph>
    <TTGlyph name="Omacron" xMin="48" yMin="-5" xMax="698" yMax="895">
      <contour>
        <pt x="345" y="858" on="1"/>
        <pt x="353" y="895" on="1"/>
        <pt x="625" y="895" on="1"/>
        <pt x="617" y="858" on="1"/>
      </contour>
      <contour>
        <pt x="297" y="-5" on="1"/>
        <pt x="237" y="-5" on="0"/>
        <pt x="144" y="43" on="0"/>
        <pt x="81" y="124" on="0"/>
        <pt x="48" y="230" on="0"/>
        <pt x="48" y="287" on="1"/>
        <pt x="48" y="369" on="0"/>
        <pt x="116" y="523" on="0"/>
        <pt x="228" y="643" on="0"/>
        <pt x="374" y="715" on="0"/>
        <pt x="451" y="715" on="1"/>
        <pt x="511" y="715" on="0"/>
        <pt x="603" y="665" on="0"/>
        <pt x="666" y="583" on="0"/>
        <pt x="698" y="477" on="0"/>
        <pt x="698" y="421" on="1"/>
        <pt x="698" y="340" on="0"/>
        <pt x="630" y="186" on="0"/>
        <pt x="518" y="67" on="0"/>
        <pt x="374" y="-5" on="0"/>
      </contour>
      <contour>
        <pt x="307" y="42" on="1"/>
        <pt x="376" y="42" on="0"/>
        <pt x="500" y="109" on="0"/>
        <pt x="592" y="216" on="0"/>
        <pt x="646" y="350" on="0"/>
        <pt x="646" y="416" on="1"/>
        <pt x="646" y="467" on="0"/>
        <pt x="618" y="558" on="0"/>
        <pt x="565" y="627" on="0"/>
        <pt x="488" y="668" on="0"/>
        <pt x="440" y="668" on="1"/>
        <pt x="371" y="668" on="0"/>
        <pt x="247" y="601" on="0"/>
        <pt x="154" y="494" on="0"/>
        <pt x="100" y="360" on="0"/>
        <pt x="100" y="293" on="1"/>
        <pt x="100" y="242" on="0"/>
        <pt x="128" y="151" on="0"/>
        <pt x="181" y="82" on="0"/>
        <pt x="258" y="42" on="0"/>
      </contour>
    </TTGlyph>
    <TTGlyph name="Omega" xMin="58" yMin="0" xMax="730" yMax="715">
      <contour>
        <pt x="58" y="47" on="1"/>
        <pt x="259" y="47" on="1"/>
        <pt x="168" y="92" on="0"/>
        <pt x="65" y="262" on="0"/>
        <pt x="65" y="365" on="1"/>
        <pt x="65" y="434" on="0"/>
        <pt x="115" y="561" on="0"/>
        <pt x="203" y="657" on="0"/>
        <pt x="323" y="715" on="0"/>
        <pt x="394" y="715" on="1"/>
        <pt x="464" y="715" on="0"/>
        <pt x="585" y="657" on="0"/>
        <pt x="672" y="561" on="0"/>
        <pt x="722" y="434" on="0"/>
        <pt x="722" y="365" on="1"/>
        <pt x="722" y="262" on="0"/>
        <pt x="619" y="92" on="0"/>
        <pt x="528" y="47" on="1"/>
        <pt x="730" y="47" on="1"/>
        <pt x="730" y="0" on="1"/>
        <pt x="441" y="0" on="1"/>
        <pt x="441" y="47" on="1"/>
        <pt x="496" y="60" on="0"/>
        <pt x="582" y="125" on="0"/>
        <pt x="640" y="213" on="0"/>
        <pt x="671" y="315" on="0"/>
        <pt x="671" y="365" on="1"/>
        <pt x="671" y="421" on="0"/>
        <pt x="633" y="530" on="0"/>
        <pt x="561" y="615" on="0"/>
        <pt x="458" y="667" on="0"/>
        <pt x="394" y="667" on="1"/>
        <pt x="329" y="667" on="0"/>
        <pt x="227" y="615" on="0"/>
        <pt x="155" y="530" on="0"/>
        <pt x="117" y="421" on="0"/>
        <pt x="117" y="365" on="1"/>
        <pt x="117" y="315" on="0"/>
        <pt x="148" y="213" on="0"/>
        <pt x="206" y="125" on="0"/>
        <pt x="292" y="60" on="0"/>
        <pt x="347" y="47" on="1"/>
        <pt x="347" y="0" on="1"/>
        <pt x="58" y="0" on="1"/>
      </contour>
    </TTGlyph>
    <TTGlyph name="Oogonek" xMin="48" yMin="-171" xMax="698" yMax="715">
      <contour>
        <pt x="234" y="-171" on="1"/>
        <pt x="208" y="-165" on="0"/>
        <pt x="183" y="-135" on="0"/>
        <pt x="183" y="-115" on="1"/>
        <pt x="183" y="-87" on="0"/>
        <pt x="224" y="-36" on="0"/>
        <pt x="273" y="-4" on="1"/>
        <pt x="219" y="1" on="0"/>
        <pt x="135" y="53" on="0"/>
        <pt x="78" y="132" on="0"/>
        <pt x="48" y="233" on="0"/>
        <pt x="48" y="287" on="1"/>
        <pt x="48" y="369" on="0"/>
        <pt x="116" y="523" on="0"/>
        <pt x="228" y="643" on="0"/>
        <pt x="374" y="715" on="0"/>
        <pt x="451" y="715" on="1"/>
        <pt x="511" y="715" on="0"/>
        <pt x="603" y="665" on="0"/>
        <pt x="666" y="583" on="0"/>
        <pt x="698" y="477" on="0"/>
        <pt x="698" y="421" on="1"/>
        <pt x="698" y="341" on="0"/>
        <pt x="634" y="192" on="0"/>
        <pt x="527" y="74" on="0"/>
        <pt x="388" y="0" on="0"/>
        <pt x="313" y="-4" on="1"/>
        <pt x="259" y="-37" on="0"/>
        <pt x="218" y="-81" on="0"/>
        <pt x="218" y="-104" on="1"/>
        <pt x="218" y="-135" on="0"/>
        <pt x="257" y="-141" on="1"/>
      </contour>
      <contour>
        <pt x="307" y="42" on="1"/>
        <pt x="376" y="42" on="0"/>
        <pt x="500" y="109" on="0"/>
        <pt x="592" y="216" on="0"/>
        <pt x="646" y="350" on="0"/>
        <pt x="646" y="416" on="1"/>
        <pt x="646" y="467" on="0"/>
        <pt x="618" y="558" on="0"/>
        <pt x="565" y="627" on="0"/>
        <pt x="488" y="668" on="0"/>
        <pt x="440" y="668" on="1"/>
        <pt x="371" y="668" on="0"/>
        <pt x="247" y="601" on="0"/>
        <pt x="154" y="494" on="0"/>
        <pt x="100" y="360" on="0"/>
        <pt x="100" y="293" on="1"/>
        <pt x="100" y="242" on="0"/>
        <pt x="128" y="151" on="0"/>
        <pt x="181" y="82" on="0"/>
        <pt x="258" y="42" on="0"/>
      </contour>
    </TTGlyph>
    <TTGlyph name="Oslash" xMin="48" yMin="-5" xMax="701" yMax="715">
      <contour>
        <pt x="701" y="710" on="1"/>
        <pt x="631" y="627" on="1"/>
        <pt x="664" y="585" on="0"/>
        <pt x="698" y="478" on="0"/>
        <pt x="698" y="421" on="1"/>
        <pt x="698" y="340" on="0"/>
        <pt x="630" y="186" on="0"/>
        <pt x="518" y="67" on="0"/>
        <pt x="374" y="-5" on="0"/>
        <pt x="297" y="-5" on="1"/>
        <pt x="251" y="-5" on="0"/>
        <pt x="176" y="23" on="0"/>
        <pt x="146" y="48" on="1"/>
        <pt x="106" y="0" on="1"/>
        <pt x="49" y="0" on="1"/>
        <pt x="116" y="80" on="1"/>
        <pt x="82" y="121" on="0"/>
        <pt x="48" y="228" on="0"/>
        <pt x="48" y="287" on="1"/>
        <pt x="48" y="369" on="0"/>
        <pt x="116" y="523" on="0"/>
        <pt x="228" y="643" on="0"/>
        <pt x="374" y="715" on="0"/>
        <pt x="451" y="715" on="1"/>
        <pt x="497" y="715" on="0"/>
        <pt x="572" y="685" on="0"/>
        <pt x="601" y="659" on="1"/>
        <pt x="644" y="710" on="1"/>
      </contour>
      <contour>
        <pt x="100" y="293" on="1"/>
        <pt x="100" y="192" on="0"/>
        <pt x="151" y="121" on="1"/>
        <pt x="567" y="618" on="1"/>
        <pt x="542" y="641" on="0"/>
        <pt x="478" y="668" on="0"/>
        <pt x="440" y="668" on="1"/>
        <pt x="371" y="668" on="0"/>
        <pt x="247" y="601" on="0"/>
        <pt x="154" y="494" on="0"/>
        <pt x="100" y="360" on="0"/>
      </contour>
      <contour>
        <pt x="307" y="42" on="1"/>
        <pt x="376" y="42" on="0"/>
        <pt x="500" y="109" on="0"/>
        <pt x="592" y="216" on="0"/>
        <pt x="646" y="350" on="0"/>
        <pt x="646" y="416" on="1"/>
        <pt x="646" y="464" on="0"/>
        <pt x="620" y="551" on="0"/>
        <pt x="596" y="585" on="1"/>
        <pt x="180" y="89" on="1"/>
        <pt x="205" y="66" on="0"/>
        <pt x="269" y="42" on="0"/>
      </contour>
    </TTGlyph>
    <TTGlyph name="Oslashacute" xMin="48" yMin="-5" xMax="701" yMax="917">
      <contour>
        <pt x="701" y="710" on="1"/>
        <pt x="631" y="627" on="1"/>
        <pt x="664" y="585" on="0"/>
        <pt x="698" y="478" on="0"/>
        <pt x="698" y="421" on="1"/>
        <pt x="698" y="340" on="0"/>
        <pt x="630" y="186" on="0"/>
        <pt x="518" y="67" on="0"/>
        <pt x="374" y="-5" on="0"/>
        <pt x="297" y="-5" on="1"/>
        <pt x="251" y="-5" on="0"/>
        <pt x="176" y="23" on="0"/>
        <pt x="146" y="48" on="1"/>
        <pt x="106" y="0" on="1"/>
        <pt x="49" y="0" on="1"/>
        <pt x="116" y="80" on="1"/>
        <pt x="82" y="121" on="0"/>
        <pt x="48" y="228" on="0"/>
        <pt x="48" y="287" on="1"/>
        <pt x="48" y="369" on="0"/>
        <pt x="116" y="523" on="0"/>
        <pt x="228" y="643" on="0"/>
        <pt x="374" y="715" on="0"/>
        <pt x="451" y="715" on="1"/>
        <pt x="497" y="715" on="0"/>
        <pt x="572" y="685" on="0"/>
        <pt x="601" y="659" on="1"/>
        <pt x="644" y="710" on="1"/>
      </contour>
      <contour>
        <pt x="100" y="293" on="1"/>
        <pt x="100" y="192" on="0"/>
        <pt x="151" y="121" on="1"/>
        <pt x="567" y="618" on="1"/>
        <pt x="542" y="641" on="0"/>
        <pt x="478" y="668" on="0"/>
        <pt x="440" y="668" on="1"/>
        <pt x="371" y="668" on="0"/>
        <pt x="247" y="601" on="0"/>
        <pt x="154" y="494" on="0"/>
        <pt x="100" y="360" on="0"/>
      </contour>
      <contour>
        <pt x="307" y="42" on="1"/>
        <pt x="376" y="42" on="0"/>
        <pt x="500" y="109" on="0"/>
        <pt x="592" y="216" on="0"/>
        <pt x="646" y="350" on="0"/>
        <pt x="646" y="416" on="1"/>
        <pt x="646" y="464" on="0"/>
        <pt x="620" y="551" on="0"/>
        <pt x="596" y="585" on="1"/>
        <pt x="180" y="89" on="1"/>
        <pt x="205" y="66" on="0"/>
        <pt x="269" y="42" on="0"/>
      </contour>
      <contour>
        <pt x="465" y="816" on="1"/>
        <pt x="434" y="832" on="1"/>
        <pt x="510" y="917" on="1"/>
        <pt x="567" y="917" on="1"/>
      </contour>
    </TTGlyph>
    <TTGlyph name="Otilde" xMin="48" yMin="-5" xMax="698" yMax="917">
      <contour>
        <pt x="297" y="-5" on="1"/>
        <pt x="237" y="-5" on="0"/>
        <pt x="144" y="43" on="0"/>
        <pt x="81" y="124" on="0"/>
        <pt x="48" y="230" on="0"/>
        <pt x="48" y="287" on="1"/>
        <pt x="48" y="369" on="0"/>
        <pt x="116" y="523" on="0"/>
        <pt x="228" y="643" on="0"/>
        <pt x="374" y="715" on="0"/>
        <pt x="451" y="715" on="1"/>
        <pt x="511" y="715" on="0"/>
        <pt x="603" y="665" on="0"/>
        <pt x="666" y="583" on="0"/>
        <pt x="698" y="477" on="0"/>
        <pt x="698" y="421" on="1"/>
        <pt x="698" y="340" on="0"/>
        <pt x="630" y="186" on="0"/>
        <pt x="518" y="67" on="0"/>
        <pt x="374" y="-5" on="0"/>
      </contour>
      <contour>
        <pt x="307" y="42" on="1"/>
        <pt x="376" y="42" on="0"/>
        <pt x="500" y="109" on="0"/>
        <pt x="592" y="216" on="0"/>
        <pt x="646" y="350" on="0"/>
        <pt x="646" y="416" on="1"/>
        <pt x="646" y="467" on="0"/>
        <pt x="618" y="558" on="0"/>
        <pt x="565" y="627" on="0"/>
        <pt x="488" y="668" on="0"/>
        <pt x="440" y="668" on="1"/>
        <pt x="371" y="668" on="0"/>
        <pt x="247" y="601" on="0"/>
        <pt x="154" y="494" on="0"/>
        <pt x="100" y="360" on="0"/>
        <pt x="100" y="293" on="1"/>
        <pt x="100" y="242" on="0"/>
        <pt x="128" y="151" on="0"/>
        <pt x="181" y="82" on="0"/>
        <pt x="258" y="42" on="0"/>
      </contour>
      <contour>
        <pt x="534" y="834" on="1"/>
        <pt x="513" y="834" on="0"/>
        <pt x="483" y="846" on="0"/>
        <pt x="459" y="861" on="0"/>
        <pt x="437" y="874" on="0"/>
        <pt x="422" y="874" on="1"/>
        <pt x="406" y="874" on="0"/>
        <pt x="384" y="860" on="0"/>
        <pt x="371" y="843" on="0"/>
        <pt x="364" y="828" on="0"/>
        <pt x="364" y="826" on="1"/>
        <pt x="330" y="826" on="1"/>
        <pt x="331" y="830" on="0"/>
        <pt x="343" y="857" on="0"/>
        <pt x="367" y="886" on="0"/>
        <pt x="403" y="909" on="0"/>
        <pt x="429" y="909" on="1"/>
        <pt x="448" y="909" on="0"/>
        <pt x="475" y="896" on="0"/>
        <pt x="499" y="881" on="0"/>
        <pt x="523" y="869" on="0"/>
        <pt x="541" y="869" on="1"/>
        <pt x="560" y="869" on="0"/>
        <pt x="584" y="883" on="0"/>
        <pt x="599" y="900" on="0"/>
        <pt x="606" y="915" on="0"/>
        <pt x="606" y="917" on="1"/>
        <pt x="639" y="917" on="1"/>
        <pt x="638" y="912" on="0"/>
        <pt x="626" y="885" on="0"/>
        <pt x="601" y="857" on="0"/>
        <pt x="562" y="834" on="0"/>
      </contour>
    </TTGlyph>
    <TTGlyph name="P" xMin="27" yMin="0" xMax="611" yMax="710">
      <contour>
        <pt x="178" y="710" on="1"/>
        <pt x="456" y="710" on="1"/>
        <pt x="493" y="710" on="0"/>
        <pt x="550" y="679" on="0"/>
        <pt x="590" y="628" on="0"/>
        <pt x="611" y="563" on="0"/>
        <pt x="611" y="528" on="1"/>
        <pt x="611" y="481" on="0"/>
        <pt x="572" y="388" on="0"/>
        <pt x="506" y="314" on="0"/>
        <pt x="417" y="268" on="0"/>
        <pt x="368" y="268" on="1"/>
        <pt x="135" y="268" on="1"/>
        <pt x="78" y="0" on="1"/>
        <pt x="27" y="0" on="1"/>
      </contour>
      <contour>
        <pt x="376" y="315" on="1"/>
        <pt x="414" y="315" on="0"/>
        <pt x="481" y="352" on="0"/>
        <pt x="530" y="412" on="0"/>
        <pt x="559" y="486" on="0"/>
        <pt x="559" y="523" on="1"/>
        <pt x="559" y="552" on="0"/>
        <pt x="542" y="603" on="0"/>
        <pt x="512" y="642" on="0"/>
        <pt x="469" y="664" on="0"/>
        <pt x="443" y="664" on="1"/>
        <pt x="219" y="664" on="1"/>
        <pt x="145" y="315" on="1"/>
      </contour>
    </TTGlyph>
    <TTGlyph name="P.sc" xMin="22" yMin="0" xMax="503" yMax="545">
      <contour>
        <pt x="138" y="545" on="1"/>
        <pt x="370" y="545" on="1"/>
        <pt x="401" y="545" on="0"/>
        <pt x="451" y="521" on="0"/>
        <pt x="485" y="480" on="0"/>
        <pt x="503" y="429" on="0"/>
        <pt x="503" y="402" on="1"/>
        <pt x="503" y="366" on="0"/>
        <pt x="471" y="294" on="0"/>
        <pt x="417" y="238" on="0"/>
        <pt x="344" y="203" on="0"/>
        <pt x="303" y="203" on="1"/>
        <pt x="112" y="203" on="1"/>
        <pt x="69" y="0" on="1"/>
        <pt x="22" y="0" on="1"/>
      </contour>
      <contour>
        <pt x="310" y="245" on="1"/>
        <pt x="341" y="245" on="0"/>
        <pt x="394" y="272" on="0"/>
        <pt x="433" y="315" on="0"/>
        <pt x="455" y="369" on="0"/>
        <pt x="455" y="396" on="1"/>
        <pt x="455" y="441" on="0"/>
        <pt x="403" y="502" on="0"/>
        <pt x="359" y="502" on="1"/>
        <pt x="175" y="502" on="1"/>
        <pt x="121" y="245" on="1"/>
      </contour>
    </TTGlyph>
    <TTGlyph name="Q" xMin="48" yMin="-5" xMax="698" yMax="715">
      <contour>
        <pt x="502" y="64" on="1"/>
        <pt x="455" y="32" on="0"/>
        <pt x="351" y="-5" on="0"/>
        <pt x="297" y="-5" on="1"/>
        <pt x="237" y="-5" on="0"/>
        <pt x="145" y="43" on="0"/>
        <pt x="81" y="124" on="0"/>
        <pt x="48" y="230" on="0"/>
        <pt x="48" y="287" on="1"/>
        <pt x="48" y="369" on="0"/>
        <pt x="116" y="523" on="0"/>
        <pt x="228" y="643" on="0"/>
        <pt x="374" y="715" on="0"/>
        <pt x="451" y="715" on="1"/>
        <pt x="511" y="715" on="0"/>
        <pt x="603" y="665" on="0"/>
        <pt x="666" y="583" on="0"/>
        <pt x="698" y="477" on="0"/>
        <pt x="698" y="421" on="1"/>
        <pt x="698" y="374" on="0"/>
        <pt x="675" y="283" on="0"/>
        <pt x="633" y="198" on="0"/>
        <pt x="574" y="123" on="0"/>
        <pt x="538" y="92" on="1"/>
        <pt x="593" y="0" on="1"/>
        <pt x="540" y="0" on="1"/>
      </contour>
      <contour>
        <pt x="307" y="42" on="1"/>
        <pt x="355" y="42" on="0"/>
        <pt x="442" y="74" on="0"/>
        <pt x="480" y="102" on="1"/>
        <pt x="420" y="206" on="1"/>
        <pt x="472" y="206" on="1"/>
        <pt x="516" y="131" on="1"/>
        <pt x="545" y="159" on="0"/>
        <pt x="593" y="226" on="0"/>
        <pt x="627" y="300" on="0"/>
        <pt x="646" y="378" on="0"/>
        <pt x="646" y="416" on="1"/>
        <pt x="646" y="467" on="0"/>
        <pt x="618" y="558" on="0"/>
        <pt x="565" y="627" on="0"/>
        <pt x="488" y="668" on="0"/>
        <pt x="440" y="668" on="1"/>
        <pt x="371" y="668" on="0"/>
        <pt x="247" y="601" on="0"/>
        <pt x="154" y="494" on="0"/>
        <pt x="100" y="360" on="0"/>
        <pt x="100" y="293" on="1"/>
        <pt x="100" y="242" on="0"/>
        <pt x="128" y="151" on="0"/>
        <pt x="181" y="82" on="0"/>
        <pt x="258" y="42" on="0"/>
      </contour>
    </TTGlyph>
    <TTGlyph name="Q.sc" xMin="35" yMin="-4" xMax="575" yMax="548">
      <contour>
        <pt x="417" y="48" on="1"/>
        <pt x="379" y="23" on="0"/>
        <pt x="292" y="-4" on="0"/>
        <pt x="247" y="-4" on="1"/>
        <pt x="196" y="-4" on="0"/>
        <pt x="117" y="34" on="0"/>
        <pt x="63" y="97" on="0"/>
        <pt x="35" y="180" on="0"/>
        <pt x="35" y="225" on="1"/>
        <pt x="35" y="286" on="0"/>
        <pt x="90" y="403" on="0"/>
        <pt x="182" y="493" on="0"/>
        <pt x="301" y="548" on="0"/>
        <pt x="365" y="548" on="1"/>
        <pt x="416" y="548" on="0"/>
        <pt x="494" y="509" on="0"/>
        <pt x="547" y="445" on="0"/>
        <pt x="575" y="362" on="0"/>
        <pt x="575" y="318" on="1"/>
        <pt x="575" y="248" on="0"/>
        <pt x="506" y="119" on="0"/>
        <pt x="449" y="72" on="1"/>
        <pt x="496" y="0" on="1"/>
        <pt x="448" y="0" on="1"/>
      </contour>
      <contour>
        <pt x="257" y="39" on="1"/>
        <pt x="295" y="39" on="0"/>
        <pt x="364" y="63" on="0"/>
        <pt x="395" y="83" on="1"/>
        <pt x="343" y="164" on="1"/>
        <pt x="390" y="164" on="1"/>
        <pt x="426" y="107" on="1"/>
        <pt x="472" y="148" on="0"/>
        <pt x="527" y="258" on="0"/>
        <pt x="527" y="314" on="1"/>
        <pt x="527" y="352" on="0"/>
        <pt x="504" y="422" on="0"/>
        <pt x="459" y="475" on="0"/>
        <pt x="395" y="506" on="0"/>
        <pt x="355" y="506" on="1"/>
        <pt x="299" y="506" on="0"/>
        <pt x="200" y="457" on="0"/>
        <pt x="126" y="378" on="0"/>
        <pt x="83" y="279" on="0"/>
        <pt x="83" y="230" on="1"/>
        <pt x="83" y="192" on="0"/>
        <pt x="106" y="123" on="0"/>
        <pt x="151" y="70" on="0"/>
        <pt x="216" y="39" on="0"/>
      </contour>
    </TTGlyph>
    <TTGlyph name="R" xMin="27" yMin="0" xMax="615" yMax="710">
      <contour>
        <pt x="27" y="0" on="1"/>
        <pt x="178" y="710" on="1"/>
        <pt x="460" y="710" on="1"/>
        <pt x="496" y="710" on="0"/>
        <pt x="554" y="679" on="0"/>
        <pt x="594" y="628" on="0"/>
        <pt x="615" y="563" on="0"/>
        <pt x="615" y="528" on="1"/>
        <pt x="615" y="484" on="0"/>
        <pt x="582" y="399" on="0"/>
        <pt x="525" y="330" on="0"/>
        <pt x="450" y="282" on="0"/>
        <pt x="407" y="276" on="1"/>
        <pt x="515" y="0" on="1"/>
        <pt x="457" y="0" on="1"/>
        <pt x="351" y="268" on="1"/>
        <pt x="135" y="268" on="1"/>
        <pt x="78" y="0" on="1"/>
      </contour>
      <contour>
        <pt x="380" y="315" on="1"/>
        <pt x="417" y="315" on="0"/>
        <pt x="484" y="352" on="0"/>
        <pt x="533" y="411" on="0"/>
        <pt x="562" y="485" on="0"/>
        <pt x="562" y="522" on="1"/>
        <pt x="562" y="550" on="0"/>
        <pt x="545" y="602" on="0"/>
        <pt x="515" y="641" on="0"/>
        <pt x="473" y="664" on="0"/>
        <pt x="447" y="664" on="1"/>
        <pt x="219" y="664" on="1"/>
        <pt x="145" y="315" on="1"/>
      </contour>
    </TTGlyph>
    <TTGlyph name="R.sc" xMin="22" yMin="0" xMax="507" yMax="545">
      <contour>
        <pt x="138" y="545" on="1"/>
        <pt x="374" y="545" on="1"/>
        <pt x="405" y="545" on="0"/>
        <pt x="455" y="521" on="0"/>
        <pt x="489" y="480" on="0"/>
        <pt x="507" y="429" on="0"/>
        <pt x="507" y="402" on="1"/>
        <pt x="507" y="369" on="0"/>
        <pt x="481" y="305" on="0"/>
        <pt x="435" y="253" on="0"/>
        <pt x="374" y="217" on="0"/>
        <pt x="339" y="211" on="1"/>
        <pt x="434" y="0" on="1"/>
        <pt x="380" y="0" on="1"/>
        <pt x="289" y="203" on="1"/>
        <pt x="112" y="203" on="1"/>
        <pt x="69" y="0" on="1"/>
        <pt x="22" y="0" on="1"/>
      </contour>
      <contour>
        <pt x="313" y="245" on="1"/>
        <pt x="343" y="245" on="0"/>
        <pt x="396" y="272" on="0"/>
        <pt x="436" y="315" on="0"/>
        <pt x="459" y="369" on="0"/>
        <pt x="459" y="396" on="1"/>
        <pt x="459" y="439" on="0"/>
        <pt x="407" y="502" on="0"/>
        <pt x="362" y="502" on="1"/>
        <pt x="175" y="502" on="1"/>
        <pt x="121" y="245" on="1"/>
      </contour>
    </TTGlyph>
    <TTGlyph name="Racute" xMin="27" yMin="0" xMax="615" yMax="920">
      <contour>
        <pt x="400" y="819" on="1"/>
        <pt x="369" y="835" on="1"/>
        <pt x="445" y="920" on="1"/>
        <pt x="502" y="920" on="1"/>
      </contour>
      <contour>
        <pt x="27" y="0" on="1"/>
        <pt x="178" y="710" on="1"/>
        <pt x="460" y="710" on="1"/>
        <pt x="496" y="710" on="0"/>
        <pt x="554" y="679" on="0"/>
        <pt x="594" y="628" on="0"/>
        <pt x="615" y="563" on="0"/>
        <pt x="615" y="528" on="1"/>
        <pt x="615" y="484" on="0"/>
        <pt x="582" y="399" on="0"/>
        <pt x="525" y="330" on="0"/>
        <pt x="450" y="282" on="0"/>
        <pt x="407" y="276" on="1"/>
        <pt x="515" y="0" on="1"/>
        <pt x="457" y="0" on="1"/>
        <pt x="351" y="268" on="1"/>
        <pt x="135" y="268" on="1"/>
        <pt x="78" y="0" on="1"/>
      </contour>
      <contour>
        <pt x="380" y="315" on="1"/>
        <pt x="417" y="315" on="0"/>
        <pt x="484" y="352" on="0"/>
        <pt x="533" y="411" on="0"/>
        <pt x="562" y="485" on="0"/>
        <pt x="562" y="522" on="1"/>
        <pt x="562" y="550" on="0"/>
        <pt x="545" y="602" on="0"/>
        <pt x="515" y="641" on="0"/>
        <pt x="473" y="664" on="0"/>
        <pt x="447" y="664" on="1"/>
        <pt x="219" y="664" on="1"/>
        <pt x="145" y="315" on="1"/>
      </contour>
    </TTGlyph>
    <TTGlyph name="Rcaron" xMin="27" yMin="0" xMax="615" yMax="920">
      <contour>
        <pt x="327" y="903" on="1"/>
        <pt x="360" y="920" on="1"/>
        <pt x="428" y="857" on="1"/>
        <pt x="522" y="920" on="1"/>
        <pt x="548" y="903" on="1"/>
        <pt x="439" y="822" on="1"/>
        <pt x="402" y="822" on="1"/>
      </contour>
      <contour>
        <pt x="27" y="0" on="1"/>
        <pt x="178" y="710" on="1"/>
        <pt x="460" y="710" on="1"/>
        <pt x="496" y="710" on="0"/>
        <pt x="554" y="679" on="0"/>
        <pt x="594" y="628" on="0"/>
        <pt x="615" y="563" on="0"/>
        <pt x="615" y="528" on="1"/>
        <pt x="615" y="484" on="0"/>
        <pt x="582" y="399" on="0"/>
        <pt x="525" y="330" on="0"/>
        <pt x="450" y="282" on="0"/>
        <pt x="407" y="276" on="1"/>
        <pt x="515" y="0" on="1"/>
        <pt x="457" y="0" on="1"/>
        <pt x="351" y="268" on="1"/>
        <pt x="135" y="268" on="1"/>
        <pt x="78" y="0" on="1"/>
      </contour>
      <contour>
        <pt x="380" y="315" on="1"/>
        <pt x="417" y="315" on="0"/>
        <pt x="484" y="352" on="0"/>
        <pt x="533" y="411" on="0"/>
        <pt x="562" y="485" on="0"/>
        <pt x="562" y="522" on="1"/>
        <pt x="562" y="550" on="0"/>
        <pt x="545" y="602" on="0"/>
        <pt x="515" y="641" on="0"/>
        <pt x="473" y="664" on="0"/>
        <pt x="447" y="664" on="1"/>
        <pt x="219" y="664" on="1"/>
        <pt x="145" y="315" on="1"/>
      </contour>
    </TTGlyph>
    <TTGlyph name="Rcommaaccent" xMin="27" yMin="-187" xMax="615" yMax="710">
      <contour>
        <pt x="188" y="-187" on="1"/>
        <pt x="217" y="-119" on="1"/>
        <pt x="201" y="-119" on="1"/>
        <pt x="216" y="-49" on="1"/>
        <pt x="264" y="-49" on="1"/>
        <pt x="250" y="-119" on="1"/>
        <pt x="215" y="-187" on="1"/>
      </contour>
      <contour>
        <pt x="27" y="0" on="1"/>
        <pt x="178" y="710" on="1"/>
        <pt x="460" y="710" on="1"/>
        <pt x="496" y="710" on="0"/>
        <pt x="554" y="679" on="0"/>
        <pt x="594" y="628" on="0"/>
        <pt x="615" y="563" on="0"/>
        <pt x="615" y="528" on="1"/>
        <pt x="615" y="484" on="0"/>
        <pt x="582" y="399" on="0"/>
        <pt x="525" y="330" on="0"/>
        <pt x="450" y="282" on="0"/>
        <pt x="407" y="276" on="1"/>
        <pt x="515" y="0" on="1"/>
        <pt x="457" y="0" on="1"/>
        <pt x="351" y="268" on="1"/>
        <pt x="135" y="268" on="1"/>
        <pt x="78" y="0" on="1"/>
      </contour>
      <contour>
        <pt x="380" y="315" on="1"/>
        <pt x="417" y="315" on="0"/>
        <pt x="484" y="352" on="0"/>
        <pt x="533" y="411" on="0"/>
        <pt x="562" y="485" on="0"/>
        <pt x="562" y="522" on="1"/>
        <pt x="562" y="550" on="0"/>
        <pt x="545" y="602" on="0"/>
        <pt x="515" y="641" on="0"/>
        <pt x="473" y="664" on="0"/>
        <pt x="447" y="664" on="1"/>
        <pt x="219" y="664" on="1"/>
        <pt x="145" y="315" on="1"/>
      </contour>
    </TTGlyph>
    <TTGlyph name="Rdblgrave" xMin="27" yMin="0" xMax="615" yMax="918">
      <contour>
        <pt x="421" y="918" on="1"/>
        <pt x="471" y="918" on="1"/>
        <pt x="510" y="833" on="1"/>
        <pt x="478" y="817" on="1"/>
      </contour>
      <contour>
        <pt x="309" y="918" on="1"/>
        <pt x="361" y="918" on="1"/>
        <pt x="398" y="833" on="1"/>
        <pt x="366" y="817" on="1"/>
      </contour>
      <contour>
        <pt x="27" y="0" on="1"/>
        <pt x="178" y="710" on="1"/>
        <pt x="460" y="710" on="1"/>
        <pt x="496" y="710" on="0"/>
        <pt x="554" y="679" on="0"/>
        <pt x="594" y="628" on="0"/>
        <pt x="615" y="563" on="0"/>
        <pt x="615" y="528" on="1"/>
        <pt x="615" y="484" on="0"/>
        <pt x="582" y="399" on="0"/>
        <pt x="525" y="330" on="0"/>
        <pt x="450" y="282" on="0"/>
        <pt x="407" y="276" on="1"/>
        <pt x="515" y="0" on="1"/>
        <pt x="457" y="0" on="1"/>
        <pt x="351" y="268" on="1"/>
        <pt x="135" y="268" on="1"/>
        <pt x="78" y="0" on="1"/>
      </contour>
      <contour>
        <pt x="380" y="315" on="1"/>
        <pt x="417" y="315" on="0"/>
        <pt x="484" y="352" on="0"/>
        <pt x="533" y="411" on="0"/>
        <pt x="562" y="485" on="0"/>
        <pt x="562" y="522" on="1"/>
        <pt x="562" y="550" on="0"/>
        <pt x="545" y="602" on="0"/>
        <pt x="515" y="641" on="0"/>
        <pt x="473" y="664" on="0"/>
        <pt x="447" y="664" on="1"/>
        <pt x="219" y="664" on="1"/>
        <pt x="145" y="315" on="1"/>
      </contour>
    </TTGlyph>
    <TTGlyph name="Rdotbelow" xMin="27" yMin="-151" xMax="615" yMax="710">
      <contour>
        <pt x="27" y="0" on="1"/>
        <pt x="178" y="710" on="1"/>
        <pt x="460" y="710" on="1"/>
        <pt x="496" y="710" on="0"/>
        <pt x="554" y="679" on="0"/>
        <pt x="594" y="628" on="0"/>
        <pt x="615" y="563" on="0"/>
        <pt x="615" y="528" on="1"/>
        <pt x="615" y="484" on="0"/>
        <pt x="582" y="399" on="0"/>
        <pt x="525" y="330" on="0"/>
        <pt x="450" y="282" on="0"/>
        <pt x="407" y="276" on="1"/>
        <pt x="515" y="0" on="1"/>
        <pt x="457" y="0" on="1"/>
        <pt x="351" y="268" on="1"/>
        <pt x="135" y="268" on="1"/>
        <pt x="78" y="0" on="1"/>
      </contour>
      <contour>
        <pt x="380" y="315" on="1"/>
        <pt x="417" y="315" on="0"/>
        <pt x="484" y="352" on="0"/>
        <pt x="533" y="411" on="0"/>
        <pt x="562" y="485" on="0"/>
        <pt x="562" y="522" on="1"/>
        <pt x="562" y="550" on="0"/>
        <pt x="545" y="602" on="0"/>
        <pt x="515" y="641" on="0"/>
        <pt x="473" y="664" on="0"/>
        <pt x="447" y="664" on="1"/>
        <pt x="219" y="664" on="1"/>
        <pt x="145" y="315" on="1"/>
      </contour>
      <contour>
        <pt x="197" y="-151" on="1"/>
        <pt x="216" y="-61" on="1"/>
        <pt x="262" y="-61" on="1"/>
        <pt x="243" y="-151" on="1"/>
      </contour>
    </TTGlyph>
    <TTGlyph name="Rinvertedbreve" xMin="27" yMin="0" xMax="615" yMax="917">
      <contour>
        <pt x="338" y="825" on="1"/>
        <pt x="346" y="863" on="0"/>
        <pt x="404" y="917" on="0"/>
        <pt x="442" y="917" on="1"/>
        <pt x="475" y="917" on="0"/>
        <pt x="511" y="873" on="0"/>
        <pt x="511" y="844" on="1"/>
        <pt x="511" y="839" on="0"/>
        <pt x="511" y="830" on="0"/>
        <pt x="509" y="825" on="1"/>
        <pt x="478" y="825" on="1"/>
        <pt x="478" y="830" on="0"/>
        <pt x="479" y="838" on="0"/>
        <pt x="479" y="843" on="1"/>
        <pt x="479" y="889" on="0"/>
        <pt x="439" y="889" on="1"/>
        <pt x="410" y="889" on="0"/>
        <pt x="376" y="851" on="0"/>
        <pt x="370" y="825" on="1"/>
      </contour>
      <contour>
        <pt x="27" y="0" on="1"/>
        <pt x="178" y="710" on="1"/>
        <pt x="460" y="710" on="1"/>
        <pt x="496" y="710" on="0"/>
        <pt x="554" y="679" on="0"/>
        <pt x="594" y="628" on="0"/>
        <pt x="615" y="563" on="0"/>
        <pt x="615" y="528" on="1"/>
        <pt x="615" y="484" on="0"/>
        <pt x="582" y="399" on="0"/>
        <pt x="525" y="330" on="0"/>
        <pt x="450" y="282" on="0"/>
        <pt x="407" y="276" on="1"/>
        <pt x="515" y="0" on="1"/>
        <pt x="457" y="0" on="1"/>
        <pt x="351" y="268" on="1"/>
        <pt x="135" y="268" on="1"/>
        <pt x="78" y="0" on="1"/>
      </contour>
      <contour>
        <pt x="380" y="315" on="1"/>
        <pt x="417" y="315" on="0"/>
        <pt x="484" y="352" on="0"/>
        <pt x="533" y="411" on="0"/>
        <pt x="562" y="485" on="0"/>
        <pt x="562" y="522" on="1"/>
        <pt x="562" y="550" on="0"/>
        <pt x="545" y="602" on="0"/>
        <pt x="515" y="641" on="0"/>
        <pt x="473" y="664" on="0"/>
        <pt x="447" y="664" on="1"/>
        <pt x="219" y="664" on="1"/>
        <pt x="145" y="315" on="1"/>
      </contour>
    </TTGlyph>
    <TTGlyph name="S" xMin="-6" yMin="-6" xMax="581" yMax="715">
      <contour>
        <pt x="240" y="-6" on="1"/>
        <pt x="82" y="-6" on="0"/>
        <pt x="-6" y="100" on="1"/>
        <pt x="30" y="141" on="1"/>
        <pt x="62" y="94" on="0"/>
        <pt x="173" y="39" on="0"/>
        <pt x="251" y="39" on="1"/>
        <pt x="352" y="39" on="0"/>
        <pt x="470" y="123" on="0"/>
        <pt x="470" y="202" on="1"/>
        <pt x="470" y="257" on="0"/>
        <pt x="377" y="314" on="0"/>
        <pt x="289" y="334" on="1"/>
        <pt x="244" y="344" on="0"/>
        <pt x="175" y="368" on="0"/>
        <pt x="127" y="401" on="0"/>
        <pt x="102" y="448" on="0"/>
        <pt x="102" y="481" on="1"/>
        <pt x="102" y="536" on="0"/>
        <pt x="146" y="623" on="0"/>
        <pt x="222" y="683" on="0"/>
        <pt x="327" y="715" on="0"/>
        <pt x="388" y="715" on="1"/>
        <pt x="454" y="715" on="0"/>
        <pt x="549" y="674" on="0"/>
        <pt x="581" y="632" on="1"/>
        <pt x="546" y="592" on="1"/>
        <pt x="498" y="669" on="0"/>
        <pt x="378" y="669" on="1"/>
        <pt x="319" y="669" on="0"/>
        <pt x="236" y="642" on="0"/>
        <pt x="182" y="596" on="0"/>
        <pt x="157" y="533" on="0"/>
        <pt x="157" y="496" on="1"/>
        <pt x="157" y="470" on="0"/>
        <pt x="178" y="434" on="0"/>
        <pt x="220" y="408" on="0"/>
        <pt x="283" y="388" on="0"/>
        <pt x="325" y="378" on="1"/>
        <pt x="370" y="367" on="0"/>
        <pt x="445" y="342" on="0"/>
        <pt x="497" y="305" on="0"/>
        <pt x="526" y="254" on="0"/>
        <pt x="526" y="217" on="1"/>
        <pt x="526" y="163" on="0"/>
        <pt x="483" y="79" on="0"/>
        <pt x="406" y="23" on="0"/>
        <pt x="301" y="-6" on="0"/>
      </contour>
    </TTGlyph>
    <TTGlyph name="S.sc" xMin="-7" yMin="-5" xMax="475" yMax="548">
      <contour>
        <pt x="199" y="-5" on="1"/>
        <pt x="70" y="-5" on="0"/>
        <pt x="-7" y="75" on="1"/>
        <pt x="26" y="113" on="1"/>
        <pt x="53" y="78" on="0"/>
        <pt x="145" y="36" on="0"/>
        <pt x="210" y="36" on="1"/>
        <pt x="288" y="36" on="0"/>
        <pt x="383" y="95" on="0"/>
        <pt x="383" y="154" on="1"/>
        <pt x="383" y="196" on="0"/>
        <pt x="307" y="237" on="0"/>
        <pt x="233" y="253" on="1"/>
        <pt x="196" y="261" on="0"/>
        <pt x="138" y="280" on="0"/>
        <pt x="99" y="307" on="0"/>
        <pt x="79" y="344" on="0"/>
        <pt x="79" y="370" on="1"/>
        <pt x="79" y="412" on="0"/>
        <pt x="115" y="478" on="0"/>
        <pt x="178" y="524" on="0"/>
        <pt x="263" y="548" on="0"/>
        <pt x="313" y="548" on="1"/>
        <pt x="368" y="548" on="0"/>
        <pt x="447" y="517" on="0"/>
        <pt x="475" y="485" on="1"/>
        <pt x="445" y="448" on="1"/>
        <pt x="423" y="477" on="0"/>
        <pt x="355" y="507" on="0"/>
        <pt x="304" y="507" on="1"/>
        <pt x="257" y="507" on="0"/>
        <pt x="191" y="488" on="0"/>
        <pt x="148" y="454" on="0"/>
        <pt x="128" y="409" on="0"/>
        <pt x="128" y="382" on="1"/>
        <pt x="128" y="363" on="0"/>
        <pt x="145" y="336" on="0"/>
        <pt x="180" y="316" on="0"/>
        <pt x="233" y="300" on="0"/>
        <pt x="268" y="292" on="1"/>
        <pt x="305" y="284" on="0"/>
        <pt x="367" y="264" on="0"/>
        <pt x="410" y="236" on="0"/>
        <pt x="434" y="196" on="0"/>
        <pt x="434" y="167" on="1"/>
        <pt x="434" y="125" on="0"/>
        <pt x="399" y="60" on="0"/>
        <pt x="336" y="17" on="0"/>
        <pt x="250" y="-5" on="0"/>
      </contour>
    </TTGlyph>
    <TTGlyph name="Sacute" xMin="-6" yMin="-6" xMax="581" yMax="936">
      <contour>
        <pt x="401" y="835" on="1"/>
        <pt x="370" y="851" on="1"/>
        <pt x="446" y="936" on="1"/>
        <pt x="503" y="936" on="1"/>
      </contour>
      <contour>
        <pt x="240" y="-6" on="1"/>
        <pt x="82" y="-6" on="0"/>
        <pt x="-6" y="100" on="1"/>
        <pt x="30" y="141" on="1"/>
        <pt x="62" y="94" on="0"/>
        <pt x="173" y="39" on="0"/>
        <pt x="251" y="39" on="1"/>
        <pt x="352" y="39" on="0"/>
        <pt x="470" y="123" on="0"/>
        <pt x="470" y="202" on="1"/>
        <pt x="470" y="257" on="0"/>
        <pt x="377" y="314" on="0"/>
        <pt x="289" y="334" on="1"/>
        <pt x="244" y="344" on="0"/>
        <pt x="175" y="368" on="0"/>
        <pt x="127" y="401" on="0"/>
        <pt x="102" y="448" on="0"/>
        <pt x="102" y="481" on="1"/>
        <pt x="102" y="536" on="0"/>
        <pt x="146" y="623" on="0"/>
        <pt x="222" y="683" on="0"/>
        <pt x="327" y="715" on="0"/>
        <pt x="388" y="715" on="1"/>
        <pt x="454" y="715" on="0"/>
        <pt x="549" y="674" on="0"/>
        <pt x="581" y="632" on="1"/>
        <pt x="546" y="592" on="1"/>
        <pt x="498" y="669" on="0"/>
        <pt x="378" y="669" on="1"/>
        <pt x="319" y="669" on="0"/>
        <pt x="236" y="642" on="0"/>
        <pt x="182" y="596" on="0"/>
        <pt x="157" y="533" on="0"/>
        <pt x="157" y="496" on="1"/>
        <pt x="157" y="470" on="0"/>
        <pt x="178" y="434" on="0"/>
        <pt x="220" y="408" on="0"/>
        <pt x="283" y="388" on="0"/>
        <pt x="325" y="378" on="1"/>
        <pt x="370" y="367" on="0"/>
        <pt x="445" y="342" on="0"/>
        <pt x="497" y="305" on="0"/>
        <pt x="526" y="254" on="0"/>
        <pt x="526" y="217" on="1"/>
        <pt x="526" y="163" on="0"/>
        <pt x="483" y="79" on="0"/>
        <pt x="406" y="23" on="0"/>
        <pt x="301" y="-6" on="0"/>
      </contour>
    </TTGlyph>
    <TTGlyph name="Scaron" xMin="-6" yMin="-6" xMax="581" yMax="936">
      <contour>
        <pt x="317" y="919" on="1"/>
        <pt x="350" y="936" on="1"/>
        <pt x="418" y="873" on="1"/>
        <pt x="512" y="936" on="1"/>
        <pt x="538" y="919" on="1"/>
        <pt x="429" y="838" on="1"/>
        <pt x="392" y="838" on="1"/>
      </contour>
      <contour>
        <pt x="240" y="-6" on="1"/>
        <pt x="82" y="-6" on="0"/>
        <pt x="-6" y="100" on="1"/>
        <pt x="30" y="141" on="1"/>
        <pt x="62" y="94" on="0"/>
        <pt x="173" y="39" on="0"/>
        <pt x="251" y="39" on="1"/>
        <pt x="352" y="39" on="0"/>
        <pt x="470" y="123" on="0"/>
        <pt x="470" y="202" on="1"/>
        <pt x="470" y="257" on="0"/>
        <pt x="377" y="314" on="0"/>
        <pt x="289" y="334" on="1"/>
        <pt x="244" y="344" on="0"/>
        <pt x="175" y="368" on="0"/>
        <pt x="127" y="401" on="0"/>
        <pt x="102" y="448" on="0"/>
        <pt x="102" y="481" on="1"/>
        <pt x="102" y="536" on="0"/>
        <pt x="146" y="623" on="0"/>
        <pt x="222" y="683" on="0"/>
        <pt x="327" y="715" on="0"/>
        <pt x="388" y="715" on="1"/>
        <pt x="454" y="715" on="0"/>
        <pt x="549" y="674" on="0"/>
        <pt x="581" y="632" on="1"/>
        <pt x="546" y="592" on="1"/>
        <pt x="498" y="669" on="0"/>
        <pt x="378" y="669" on="1"/>
        <pt x="319" y="669" on="0"/>
        <pt x="236" y="642" on="0"/>
        <pt x="182" y="596" on="0"/>
        <pt x="157" y="533" on="0"/>
        <pt x="157" y="496" on="1"/>
        <pt x="157" y="470" on="0"/>
        <pt x="178" y="434" on="0"/>
        <pt x="220" y="408" on="0"/>
        <pt x="283" y="388" on="0"/>
        <pt x="325" y="378" on="1"/>
        <pt x="370" y="367" on="0"/>
        <pt x="445" y="342" on="0"/>
        <pt x="497" y="305" on="0"/>
        <pt x="526" y="254" on="0"/>
        <pt x="526" y="217" on="1"/>
        <pt x="526" y="163" on="0"/>
        <pt x="483" y="79" on="0"/>
        <pt x="406" y="23" on="0"/>
        <pt x="301" y="-6" on="0"/>
      </contour>
    </TTGlyph>
    <TTGlyph name="Schwa" xMin="30" yMin="-8" xMax="680" yMax="715">
      <contour>
        <pt x="281" y="-8" on="1"/>
        <pt x="224" y="-8" on="0"/>
        <pt x="132" y="34" on="0"/>
        <pt x="66" y="109" on="0"/>
        <pt x="30" y="211" on="0"/>
        <pt x="30" y="271" on="1"/>
        <pt x="30" y="303" on="0"/>
        <pt x="40" y="356" on="0"/>
        <pt x="46" y="375" on="1"/>
        <pt x="620" y="375" on="1"/>
        <pt x="623" y="402" on="0"/>
        <pt x="623" y="427" on="1"/>
        <pt x="623" y="479" on="0"/>
        <pt x="594" y="568" on="0"/>
        <pt x="540" y="631" on="0"/>
        <pt x="465" y="667" on="0"/>
        <pt x="419" y="667" on="1"/>
        <pt x="384" y="667" on="0"/>
        <pt x="312" y="646" on="0"/>
        <pt x="246" y="607" on="0"/>
        <pt x="190" y="554" on="0"/>
        <pt x="172" y="521" on="1"/>
        <pt x="128" y="544" on="1"/>
        <pt x="151" y="581" on="0"/>
        <pt x="220" y="644" on="0"/>
        <pt x="301" y="689" on="0"/>
        <pt x="389" y="715" on="0"/>
        <pt x="432" y="715" on="1"/>
        <pt x="488" y="715" on="0"/>
        <pt x="580" y="670" on="0"/>
        <pt x="645" y="590" on="0"/>
        <pt x="680" y="483" on="0"/>
        <pt x="680" y="422" on="1"/>
        <pt x="680" y="335" on="0"/>
        <pt x="612" y="178" on="0"/>
        <pt x="500" y="61" on="0"/>
        <pt x="357" y="-8" on="0"/>
      </contour>
      <contour>
        <pt x="290" y="40" on="1"/>
        <pt x="344" y="40" on="0"/>
        <pt x="448" y="84" on="0"/>
        <pt x="533" y="162" on="0"/>
        <pt x="596" y="267" on="0"/>
        <pt x="610" y="329" on="1"/>
        <pt x="88" y="329" on="1"/>
        <pt x="85" y="313" on="0"/>
        <pt x="81" y="281" on="0"/>
        <pt x="81" y="265" on="1"/>
        <pt x="81" y="221" on="0"/>
        <pt x="107" y="140" on="0"/>
        <pt x="159" y="77" on="0"/>
        <pt x="237" y="40" on="0"/>
      </contour>
    </TTGlyph>
    <TTGlyph name="Scircumflex" xMin="-6" yMin="-6" xMax="581" yMax="936">
      <contour>
        <pt x="309" y="855" on="1"/>
        <pt x="418" y="936" on="1"/>
        <pt x="455" y="936" on="1"/>
        <pt x="530" y="855" on="1"/>
        <pt x="497" y="838" on="1"/>
        <pt x="429" y="901" on="1"/>
        <pt x="335" y="838" on="1"/>
      </contour>
      <contour>
        <pt x="240" y="-6" on="1"/>
        <pt x="82" y="-6" on="0"/>
        <pt x="-6" y="100" on="1"/>
        <pt x="30" y="141" on="1"/>
        <pt x="62" y="94" on="0"/>
        <pt x="173" y="39" on="0"/>
        <pt x="251" y="39" on="1"/>
        <pt x="352" y="39" on="0"/>
        <pt x="470" y="123" on="0"/>
        <pt x="470" y="202" on="1"/>
        <pt x="470" y="257" on="0"/>
        <pt x="377" y="314" on="0"/>
        <pt x="289" y="334" on="1"/>
        <pt x="244" y="344" on="0"/>
        <pt x="175" y="368" on="0"/>
        <pt x="127" y="401" on="0"/>
        <pt x="102" y="448" on="0"/>
        <pt x="102" y="481" on="1"/>
        <pt x="102" y="536" on="0"/>
        <pt x="146" y="623" on="0"/>
        <pt x="222" y="683" on="0"/>
        <pt x="327" y="715" on="0"/>
        <pt x="388" y="715" on="1"/>
        <pt x="454" y="715" on="0"/>
        <pt x="549" y="674" on="0"/>
        <pt x="581" y="632" on="1"/>
        <pt x="546" y="592" on="1"/>
        <pt x="498" y="669" on="0"/>
        <pt x="378" y="669" on="1"/>
        <pt x="319" y="669" on="0"/>
        <pt x="236" y="642" on="0"/>
        <pt x="182" y="596" on="0"/>
        <pt x="157" y="533" on="0"/>
        <pt x="157" y="496" on="1"/>
        <pt x="157" y="470" on="0"/>
        <pt x="178" y="434" on="0"/>
        <pt x="220" y="408" on="0"/>
        <pt x="283" y="388" on="0"/>
        <pt x="325" y="378" on="1"/>
        <pt x="370" y="367" on="0"/>
        <pt x="445" y="342" on="0"/>
        <pt x="497" y="305" on="0"/>
        <pt x="526" y="254" on="0"/>
        <pt x="526" y="217" on="1"/>
        <pt x="526" y="163" on="0"/>
        <pt x="483" y="79" on="0"/>
        <pt x="406" y="23" on="0"/>
        <pt x="301" y="-6" on="0"/>
      </contour>
    </TTGlyph>
    <TTGlyph name="Sdotbelow" xMin="-6" yMin="-151" xMax="581" yMax="715">
      <contour>
        <pt x="240" y="-6" on="1"/>
        <pt x="82" y="-6" on="0"/>
        <pt x="-6" y="100" on="1"/>
        <pt x="30" y="141" on="1"/>
        <pt x="62" y="94" on="0"/>
        <pt x="173" y="39" on="0"/>
        <pt x="251" y="39" on="1"/>
        <pt x="352" y="39" on="0"/>
        <pt x="470" y="123" on="0"/>
        <pt x="470" y="202" on="1"/>
        <pt x="470" y="257" on="0"/>
        <pt x="377" y="314" on="0"/>
        <pt x="289" y="334" on="1"/>
        <pt x="244" y="344" on="0"/>
        <pt x="175" y="368" on="0"/>
        <pt x="127" y="401" on="0"/>
        <pt x="102" y="448" on="0"/>
        <pt x="102" y="481" on="1"/>
        <pt x="102" y="536" on="0"/>
        <pt x="146" y="623" on="0"/>
        <pt x="222" y="683" on="0"/>
        <pt x="327" y="715" on="0"/>
        <pt x="388" y="715" on="1"/>
        <pt x="454" y="715" on="0"/>
        <pt x="549" y="674" on="0"/>
        <pt x="581" y="632" on="1"/>
        <pt x="546" y="592" on="1"/>
        <pt x="498" y="669" on="0"/>
        <pt x="378" y="669" on="1"/>
        <pt x="319" y="669" on="0"/>
        <pt x="236" y="642" on="0"/>
        <pt x="182" y="596" on="0"/>
        <pt x="157" y="533" on="0"/>
        <pt x="157" y="496" on="1"/>
        <pt x="157" y="470" on="0"/>
        <pt x="178" y="434" on="0"/>
        <pt x="220" y="408" on="0"/>
        <pt x="283" y="388" on="0"/>
        <pt x="325" y="378" on="1"/>
        <pt x="370" y="367" on="0"/>
        <pt x="445" y="342" on="0"/>
        <pt x="497" y="305" on="0"/>
        <pt x="526" y="254" on="0"/>
        <pt x="526" y="217" on="1"/>
        <pt x="526" y="163" on="0"/>
        <pt x="483" y="79" on="0"/>
        <pt x="406" y="23" on="0"/>
        <pt x="301" y="-6" on="0"/>
      </contour>
      <contour>
        <pt x="184" y="-151" on="1"/>
        <pt x="203" y="-61" on="1"/>
        <pt x="249" y="-61" on="1"/>
        <pt x="230" y="-151" on="1"/>
      </contour>
    </TTGlyph>
    <TTGlyph name="T" xMin="93" yMin="0" xMax="646" yMax="710">
      <contour>
        <pt x="339" y="664" on="1"/>
        <pt x="93" y="664" on="1"/>
        <pt x="102" y="710" on="1"/>
        <pt x="646" y="710" on="1"/>
        <pt x="636" y="664" on="1"/>
        <pt x="390" y="664" on="1"/>
        <pt x="248" y="0" on="1"/>
        <pt x="198" y="0" on="1"/>
      </contour>
    </TTGlyph>
    <TTGlyph name="T.sc" xMin="66" yMin="0" xMax="530" yMax="545">
      <contour>
        <pt x="271" y="502" on="1"/>
        <pt x="66" y="502" on="1"/>
        <pt x="75" y="545" on="1"/>
        <pt x="530" y="545" on="1"/>
        <pt x="520" y="502" on="1"/>
        <pt x="318" y="502" on="1"/>
        <pt x="211" y="0" on="1"/>
        <pt x="164" y="0" on="1"/>
      </contour>
    </TTGlyph>
    <TTGlyph name="Tbar" xMin="82" yMin="0" xMax="665" yMax="710">
      <contour>
        <pt x="88" y="412" on="1"/>
        <pt x="304" y="412" on="1"/>
        <pt x="358" y="664" on="1"/>
        <pt x="112" y="664" on="1"/>
        <pt x="121" y="710" on="1"/>
        <pt x="665" y="710" on="1"/>
        <pt x="655" y="664" on="1"/>
        <pt x="409" y="664" on="1"/>
        <pt x="355" y="412" on="1"/>
        <pt x="571" y="412" on="1"/>
        <pt x="564" y="380" on="1"/>
        <pt x="348" y="380" on="1"/>
        <pt x="268" y="0" on="1"/>
        <pt x="217" y="0" on="1"/>
        <pt x="297" y="380" on="1"/>
        <pt x="82" y="380" on="1"/>
      </contour>
    </TTGlyph>
    <TTGlyph name="Tcaron" xMin="93" yMin="0" xMax="646" yMax="917">
      <contour>
        <pt x="297" y="900" on="1"/>
        <pt x="330" y="917" on="1"/>
        <pt x="398" y="854" on="1"/>
        <pt x="492" y="917" on="1"/>
        <pt x="518" y="900" on="1"/>
        <pt x="409" y="819" on="1"/>
        <pt x="372" y="819" on="1"/>
      </contour>
      <contour>
        <pt x="339" y="664" on="1"/>
        <pt x="93" y="664" on="1"/>
        <pt x="102" y="710" on="1"/>
        <pt x="646" y="710" on="1"/>
        <pt x="636" y="664" on="1"/>
        <pt x="390" y="664" on="1"/>
        <pt x="248" y="0" on="1"/>
        <pt x="198" y="0" on="1"/>
      </contour>
    </TTGlyph>
    <TTGlyph name="Tdotbelow" xMin="93" yMin="-151" xMax="646" yMax="710">
      <contour>
        <pt x="168" y="-151" on="1"/>
        <pt x="187" y="-61" on="1"/>
        <pt x="233" y="-61" on="1"/>
        <pt x="214" y="-151" on="1"/>
      </contour>
      <contour>
        <pt x="339" y="664" on="1"/>
        <pt x="93" y="664" on="1"/>
        <pt x="102" y="710" on="1"/>
        <pt x="646" y="710" on="1"/>
        <pt x="636" y="664" on="1"/>
        <pt x="390" y="664" on="1"/>
        <pt x="248" y="0" on="1"/>
        <pt x="198" y="0" on="1"/>
      </contour>
    </TTGlyph>
    <TTGlyph name="Thorn" xMin="27" yMin="0" xMax="562" yMax="710">
      <contour>
        <pt x="178" y="710" on="1"/>
        <pt x="229" y="710" on="1"/>
        <pt x="198" y="566" on="1"/>
        <pt x="407" y="566" on="1"/>
        <pt x="444" y="566" on="0"/>
        <pt x="501" y="535" on="0"/>
        <pt x="541" y="484" on="0"/>
        <pt x="562" y="419" on="0"/>
        <pt x="562" y="384" on="1"/>
        <pt x="562" y="337" on="0"/>
        <pt x="523" y="244" on="0"/>
        <pt x="457" y="170" on="0"/>
        <pt x="368" y="124" on="0"/>
        <pt x="319" y="124" on="1"/>
        <pt x="104" y="124" on="1"/>
        <pt x="78" y="0" on="1"/>
        <pt x="27" y="0" on="1"/>
      </contour>
      <contour>
        <pt x="327" y="171" on="1"/>
        <pt x="366" y="171" on="0"/>
        <pt x="433" y="208" on="0"/>
        <pt x="482" y="268" on="0"/>
        <pt x="511" y="342" on="0"/>
        <pt x="511" y="378" on="1"/>
        <pt x="511" y="406" on="0"/>
        <pt x="494" y="458" on="0"/>
        <pt x="464" y="496" on="0"/>
        <pt x="421" y="519" on="0"/>
        <pt x="395" y="519" on="1"/>
        <pt x="189" y="519" on="1"/>
        <pt x="115" y="171" on="1"/>
      </contour>
    </TTGlyph>
    <TTGlyph name="U" xMin="78" yMin="-5" xMax="730" yMax="710">
      <contour>
        <pt x="298" y="-5" on="1"/>
        <pt x="236" y="-5" on="0"/>
        <pt x="152" y="32" on="0"/>
        <pt x="101" y="95" on="0"/>
        <pt x="78" y="180" on="0"/>
        <pt x="78" y="229" on="1"/>
        <pt x="78" y="288" on="0"/>
        <pt x="92" y="353" on="1"/>
        <pt x="168" y="710" on="1"/>
        <pt x="219" y="710" on="1"/>
        <pt x="143" y="353" on="1"/>
        <pt x="137" y="323" on="0"/>
        <pt x="129" y="265" on="0"/>
        <pt x="129" y="237" on="1"/>
        <pt x="129" y="196" on="0"/>
        <pt x="147" y="125" on="0"/>
        <pt x="189" y="72" on="0"/>
        <pt x="257" y="42" on="0"/>
        <pt x="307" y="42" on="1"/>
        <pt x="375" y="42" on="0"/>
        <pt x="476" y="96" on="0"/>
        <pt x="547" y="184" on="0"/>
        <pt x="592" y="296" on="0"/>
        <pt x="604" y="353" on="1"/>
        <pt x="679" y="710" on="1"/>
        <pt x="730" y="710" on="1"/>
        <pt x="655" y="353" on="1"/>
        <pt x="640" y="281" on="0"/>
        <pt x="583" y="152" on="0"/>
        <pt x="495" y="53" on="0"/>
        <pt x="376" y="-5" on="0"/>
      </contour>
    </TTGlyph>
    <TTGlyph name="U.sc" xMin="61" yMin="-4" xMax="598" yMax="545">
      <contour>
        <pt x="248" y="-4" on="1"/>
        <pt x="196" y="-4" on="0"/>
        <pt x="124" y="25" on="0"/>
        <pt x="80" y="76" on="0"/>
        <pt x="61" y="143" on="0"/>
        <pt x="61" y="182" on="1"/>
        <pt x="61" y="204" on="0"/>
        <pt x="66" y="248" on="0"/>
        <pt x="71" y="271" on="1"/>
        <pt x="129" y="545" on="1"/>
        <pt x="176" y="545" on="1"/>
        <pt x="118" y="271" on="1"/>
        <pt x="109" y="230" on="0"/>
        <pt x="109" y="190" on="1"/>
        <pt x="109" y="158" on="0"/>
        <pt x="124" y="103" on="0"/>
        <pt x="158" y="63" on="0"/>
        <pt x="215" y="39" on="0"/>
        <pt x="256" y="39" on="1"/>
        <pt x="311" y="39" on="0"/>
        <pt x="393" y="79" on="0"/>
        <pt x="450" y="145" on="0"/>
        <pt x="485" y="228" on="0"/>
        <pt x="494" y="271" on="1"/>
        <pt x="552" y="545" on="1"/>
        <pt x="598" y="545" on="1"/>
        <pt x="540" y="271" on="1"/>
        <pt x="528" y="216" on="0"/>
        <pt x="483" y="116" on="0"/>
        <pt x="411" y="41" on="0"/>
        <pt x="312" y="-4" on="0"/>
      </contour>
    </TTGlyph>
    <TTGlyph name="Uacute" xMin="78" yMin="-5" xMax="730" yMax="917">
      <contour>
        <pt x="453" y="816" on="1"/>
        <pt x="422" y="832" on="1"/>
        <pt x="498" y="917" on="1"/>
        <pt x="555" y="917" on="1"/>
      </contour>
      <contour>
        <pt x="298" y="-5" on="1"/>
        <pt x="236" y="-5" on="0"/>
        <pt x="152" y="32" on="0"/>
        <pt x="101" y="95" on="0"/>
        <pt x="78" y="180" on="0"/>
        <pt x="78" y="229" on="1"/>
        <pt x="78" y="288" on="0"/>
        <pt x="92" y="353" on="1"/>
        <pt x="168" y="710" on="1"/>
        <pt x="219" y="710" on="1"/>
        <pt x="143" y="353" on="1"/>
        <pt x="137" y="323" on="0"/>
        <pt x="129" y="265" on="0"/>
        <pt x="129" y="237" on="1"/>
        <pt x="129" y="196" on="0"/>
        <pt x="147" y="125" on="0"/>
        <pt x="189" y="72" on="0"/>
        <pt x="257" y="42" on="0"/>
        <pt x="307" y="42" on="1"/>
        <pt x="375" y="42" on="0"/>
        <pt x="476" y="96" on="0"/>
        <pt x="547" y="184" on="0"/>
        <pt x="592" y="296" on="0"/>
        <pt x="604" y="353" on="1"/>
        <pt x="679" y="710" on="1"/>
        <pt x="730" y="710" on="1"/>
        <pt x="655" y="353" on="1"/>
        <pt x="640" y="281" on="0"/>
        <pt x="583" y="152" on="0"/>
        <pt x="495" y="53" on="0"/>
        <pt x="376" y="-5" on="0"/>
      </contour>
    </TTGlyph>
    <TTGlyph name="Ubreve" xMin="78" yMin="-5" xMax="730" yMax="917">
      <contour>
        <pt x="298" y="-5" on="1"/>
        <pt x="236" y="-5" on="0"/>
        <pt x="152" y="32" on="0"/>
        <pt x="101" y="95" on="0"/>
        <pt x="78" y="180" on="0"/>
        <pt x="78" y="229" on="1"/>
        <pt x="78" y="288" on="0"/>
        <pt x="92" y="353" on="1"/>
        <pt x="168" y="710" on="1"/>
        <pt x="219" y="710" on="1"/>
        <pt x="143" y="353" on="1"/>
        <pt x="137" y="323" on="0"/>
        <pt x="129" y="265" on="0"/>
        <pt x="129" y="237" on="1"/>
        <pt x="129" y="196" on="0"/>
        <pt x="147" y="125" on="0"/>
        <pt x="189" y="72" on="0"/>
        <pt x="257" y="42" on="0"/>
        <pt x="307" y="42" on="1"/>
        <pt x="375" y="42" on="0"/>
        <pt x="476" y="96" on="0"/>
        <pt x="547" y="184" on="0"/>
        <pt x="592" y="296" on="0"/>
        <pt x="604" y="353" on="1"/>
        <pt x="679" y="710" on="1"/>
        <pt x="730" y="710" on="1"/>
        <pt x="655" y="353" on="1"/>
        <pt x="640" y="281" on="0"/>
        <pt x="583" y="152" on="0"/>
        <pt x="495" y="53" on="0"/>
        <pt x="376" y="-5" on="0"/>
      </contour>
      <contour>
        <pt x="470" y="853" on="1"/>
        <pt x="490" y="853" on="0"/>
        <pt x="530" y="890" on="0"/>
        <pt x="538" y="917" on="1"/>
        <pt x="570" y="917" on="1"/>
        <pt x="566" y="898" on="0"/>
        <pt x="545" y="864" on="0"/>
        <pt x="516" y="839" on="0"/>
        <pt x="482" y="825" on="0"/>
        <pt x="465" y="825" on="1"/>
        <pt x="433" y="825" on="0"/>
        <pt x="395" y="866" on="0"/>
        <pt x="395" y="897" on="1"/>
        <pt x="395" y="906" on="0"/>
        <pt x="398" y="917" on="1"/>
        <pt x="431" y="917" on="1"/>
        <pt x="430" y="912" on="0"/>
        <pt x="430" y="903" on="1"/>
        <pt x="430" y="883" on="0"/>
        <pt x="453" y="853" on="0"/>
      </contour>
    </TTGlyph>
    <TTGlyph name="Ucircumflex" xMin="78" yMin="-5" xMax="730" yMax="917">
      <contour>
        <pt x="364" y="836" on="1"/>
        <pt x="473" y="917" on="1"/>
        <pt x="510" y="917" on="1"/>
        <pt x="585" y="836" on="1"/>
        <pt x="552" y="819" on="1"/>
        <pt x="484" y="882" on="1"/>
        <pt x="390" y="819" on="1"/>
      </contour>
      <contour>
        <pt x="298" y="-5" on="1"/>
        <pt x="236" y="-5" on="0"/>
        <pt x="152" y="32" on="0"/>
        <pt x="101" y="95" on="0"/>
        <pt x="78" y="180" on="0"/>
        <pt x="78" y="229" on="1"/>
        <pt x="78" y="288" on="0"/>
        <pt x="92" y="353" on="1"/>
        <pt x="168" y="710" on="1"/>
        <pt x="219" y="710" on="1"/>
        <pt x="143" y="353" on="1"/>
        <pt x="137" y="323" on="0"/>
        <pt x="129" y="265" on="0"/>
        <pt x="129" y="237" on="1"/>
        <pt x="129" y="196" on="0"/>
        <pt x="147" y="125" on="0"/>
        <pt x="189" y="72" on="0"/>
        <pt x="257" y="42" on="0"/>
        <pt x="307" y="42" on="1"/>
        <pt x="375" y="42" on="0"/>
        <pt x="476" y="96" on="0"/>
        <pt x="547" y="184" on="0"/>
        <pt x="592" y="296" on="0"/>
        <pt x="604" y="353" on="1"/>
        <pt x="679" y="710" on="1"/>
        <pt x="730" y="710" on="1"/>
        <pt x="655" y="353" on="1"/>
        <pt x="640" y="281" on="0"/>
        <pt x="583" y="152" on="0"/>
        <pt x="495" y="53" on="0"/>
        <pt x="376" y="-5" on="0"/>
      </contour>
    </TTGlyph>
    <TTGlyph name="Udblgrave" xMin="78" yMin="-5" xMax="730" yMax="918">
      <contour>
        <pt x="476" y="918" on="1"/>
        <pt x="526" y="918" on="1"/>
        <pt x="565" y="833" on="1"/>
        <pt x="533" y="817" on="1"/>
      </contour>
      <contour>
        <pt x="364" y="918" on="1"/>
        <pt x="416" y="918" on="1"/>
        <pt x="453" y="833" on="1"/>
        <pt x="421" y="817" on="1"/>
      </contour>
      <contour>
        <pt x="298" y="-5" on="1"/>
        <pt x="236" y="-5" on="0"/>
        <pt x="152" y="32" on="0"/>
        <pt x="101" y="95" on="0"/>
        <pt x="78" y="180" on="0"/>
        <pt x="78" y="229" on="1"/>
        <pt x="78" y="288" on="0"/>
        <pt x="92" y="353" on="1"/>
        <pt x="168" y="710" on="1"/>
        <pt x="219" y="710" on="1"/>
        <pt x="143" y="353" on="1"/>
        <pt x="137" y="323" on="0"/>
        <pt x="129" y="265" on="0"/>
        <pt x="129" y="237" on="1"/>
        <pt x="129" y="196" on="0"/>
        <pt x="147" y="125" on="0"/>
        <pt x="189" y="72" on="0"/>
        <pt x="257" y="42" on="0"/>
        <pt x="307" y="42" on="1"/>
        <pt x="375" y="42" on="0"/>
        <pt x="476" y="96" on="0"/>
        <pt x="547" y="184" on="0"/>
        <pt x="592" y="296" on="0"/>
        <pt x="604" y="353" on="1"/>
        <pt x="679" y="710" on="1"/>
        <pt x="730" y="710" on="1"/>
        <pt x="655" y="353" on="1"/>
        <pt x="640" y="281" on="0"/>
        <pt x="583" y="152" on="0"/>
        <pt x="495" y="53" on="0"/>
        <pt x="376" y="-5" on="0"/>
      </contour>
    </TTGlyph>
    <TTGlyph name="Udieresis" xMin="78" yMin="-5" xMax="730" yMax="916">
      <contour>
        <pt x="383" y="828" on="1"/>
        <pt x="401" y="916" on="1"/>
        <pt x="445" y="916" on="1"/>
        <pt x="426" y="828" on="1"/>
      </contour>
      <contour>
        <pt x="514" y="828" on="1"/>
        <pt x="533" y="916" on="1"/>
        <pt x="576" y="916" on="1"/>
        <pt x="558" y="828" on="1"/>
      </contour>
      <contour>
        <pt x="298" y="-5" on="1"/>
        <pt x="236" y="-5" on="0"/>
        <pt x="152" y="32" on="0"/>
        <pt x="101" y="95" on="0"/>
        <pt x="78" y="180" on="0"/>
        <pt x="78" y="229" on="1"/>
        <pt x="78" y="288" on="0"/>
        <pt x="92" y="353" on="1"/>
        <pt x="168" y="710" on="1"/>
        <pt x="219" y="710" on="1"/>
        <pt x="143" y="353" on="1"/>
        <pt x="137" y="323" on="0"/>
        <pt x="129" y="265" on="0"/>
        <pt x="129" y="237" on="1"/>
        <pt x="129" y="196" on="0"/>
        <pt x="147" y="125" on="0"/>
        <pt x="189" y="72" on="0"/>
        <pt x="257" y="42" on="0"/>
        <pt x="307" y="42" on="1"/>
        <pt x="375" y="42" on="0"/>
        <pt x="476" y="96" on="0"/>
        <pt x="547" y="184" on="0"/>
        <pt x="592" y="296" on="0"/>
        <pt x="604" y="353" on="1"/>
        <pt x="679" y="710" on="1"/>
        <pt x="730" y="710" on="1"/>
        <pt x="655" y="353" on="1"/>
        <pt x="640" y="281" on="0"/>
        <pt x="583" y="152" on="0"/>
        <pt x="495" y="53" on="0"/>
        <pt x="376" y="-5" on="0"/>
      </contour>
    </TTGlyph>
    <TTGlyph name="Udotbelow" xMin="78" yMin="-151" xMax="730" yMax="710">
      <contour>
        <pt x="298" y="-5" on="1"/>
        <pt x="236" y="-5" on="0"/>
        <pt x="152" y="32" on="0"/>
        <pt x="101" y="95" on="0"/>
        <pt x="78" y="180" on="0"/>
        <pt x="78" y="229" on="1"/>
        <pt x="78" y="288" on="0"/>
        <pt x="92" y="353" on="1"/>
        <pt x="168" y="710" on="1"/>
        <pt x="219" y="710" on="1"/>
        <pt x="143" y="353" on="1"/>
        <pt x="137" y="323" on="0"/>
        <pt x="129" y="265" on="0"/>
        <pt x="129" y="237" on="1"/>
        <pt x="129" y="196" on="0"/>
        <pt x="147" y="125" on="0"/>
        <pt x="189" y="72" on="0"/>
        <pt x="257" y="42" on="0"/>
        <pt x="307" y="42" on="1"/>
        <pt x="375" y="42" on="0"/>
        <pt x="476" y="96" on="0"/>
        <pt x="547" y="184" on="0"/>
        <pt x="592" y="296" on="0"/>
        <pt x="604" y="353" on="1"/>
        <pt x="679" y="710" on="1"/>
        <pt x="730" y="710" on="1"/>
        <pt x="655" y="353" on="1"/>
        <pt x="640" y="281" on="0"/>
        <pt x="583" y="152" on="0"/>
        <pt x="495" y="53" on="0"/>
        <pt x="376" y="-5" on="0"/>
      </contour>
      <contour>
        <pt x="241" y="-151" on="1"/>
        <pt x="260" y="-61" on="1"/>
        <pt x="306" y="-61" on="1"/>
        <pt x="287" y="-151" on="1"/>
      </contour>
    </TTGlyph>
    <TTGlyph name="Ugrave" xMin="78" yMin="-5" xMax="730" yMax="918">
      <contour>
        <pt x="298" y="-5" on="1"/>
        <pt x="236" y="-5" on="0"/>
        <pt x="152" y="32" on="0"/>
        <pt x="101" y="95" on="0"/>
        <pt x="78" y="180" on="0"/>
        <pt x="78" y="229" on="1"/>
        <pt x="78" y="288" on="0"/>
        <pt x="92" y="353" on="1"/>
        <pt x="168" y="710" on="1"/>
        <pt x="219" y="710" on="1"/>
        <pt x="143" y="353" on="1"/>
        <pt x="137" y="323" on="0"/>
        <pt x="129" y="265" on="0"/>
        <pt x="129" y="237" on="1"/>
        <pt x="129" y="196" on="0"/>
        <pt x="147" y="125" on="0"/>
        <pt x="189" y="72" on="0"/>
        <pt x="257" y="42" on="0"/>
        <pt x="307" y="42" on="1"/>
        <pt x="375" y="42" on="0"/>
        <pt x="476" y="96" on="0"/>
        <pt x="547" y="184" on="0"/>
        <pt x="592" y="296" on="0"/>
        <pt x="604" y="353" on="1"/>
        <pt x="679" y="710" on="1"/>
        <pt x="730" y="710" on="1"/>
        <pt x="655" y="353" on="1"/>
        <pt x="640" y="281" on="0"/>
        <pt x="583" y="152" on="0"/>
        <pt x="495" y="53" on="0"/>
        <pt x="376" y="-5" on="0"/>
      </contour>
      <contour>
        <pt x="416" y="918" on="1"/>
        <pt x="471" y="918" on="1"/>
        <pt x="512" y="833" on="1"/>
        <pt x="475" y="817" on="1"/>
      </contour>
    </TTGlyph>
    <TTGlyph name="Uhungarumlaut" xMin="78" yMin="-5" xMax="730" yMax="918">
      <contour>
        <pt x="298" y="-5" on="1"/>
        <pt x="236" y="-5" on="0"/>
        <pt x="152" y="32" on="0"/>
        <pt x="101" y="95" on="0"/>
        <pt x="78" y="180" on="0"/>
        <pt x="78" y="229" on="1"/>
        <pt x="78" y="288" on="0"/>
        <pt x="92" y="353" on="1"/>
        <pt x="168" y="710" on="1"/>
        <pt x="219" y="710" on="1"/>
        <pt x="143" y="353" on="1"/>
        <pt x="137" y="323" on="0"/>
        <pt x="129" y="265" on="0"/>
        <pt x="129" y="237" on="1"/>
        <pt x="129" y="196" on="0"/>
        <pt x="147" y="125" on="0"/>
        <pt x="189" y="72" on="0"/>
        <pt x="257" y="42" on="0"/>
        <pt x="307" y="42" on="1"/>
        <pt x="375" y="42" on="0"/>
        <pt x="476" y="96" on="0"/>
        <pt x="547" y="184" on="0"/>
        <pt x="592" y="296" on="0"/>
        <pt x="604" y="353" on="1"/>
        <pt x="679" y="710" on="1"/>
        <pt x="730" y="710" on="1"/>
        <pt x="655" y="353" on="1"/>
        <pt x="640" y="281" on="0"/>
        <pt x="583" y="152" on="0"/>
        <pt x="495" y="53" on="0"/>
        <pt x="376" y="-5" on="0"/>
      </contour>
      <contour>
        <pt x="394" y="817" on="1"/>
        <pt x="368" y="833" on="1"/>
        <pt x="443" y="918" on="1"/>
        <pt x="494" y="918" on="1"/>
      </contour>
      <contour>
        <pt x="506" y="817" on="1"/>
        <pt x="480" y="833" on="1"/>
        <pt x="554" y="918" on="1"/>
        <pt x="606" y="918" on="1"/>
      </contour>
    </TTGlyph>
    <TTGlyph name="Uinvertedbreve" xMin="78" yMin="-5" xMax="730" yMax="917">
      <contour>
        <pt x="389" y="825" on="1"/>
        <pt x="397" y="863" on="0"/>
        <pt x="455" y="917" on="0"/>
        <pt x="493" y="917" on="1"/>
        <pt x="526" y="917" on="0"/>
        <pt x="562" y="873" on="0"/>
        <pt x="562" y="844" on="1"/>
        <pt x="562" y="839" on="0"/>
        <pt x="562" y="830" on="0"/>
        <pt x="560" y="825" on="1"/>
        <pt x="529" y="825" on="1"/>
        <pt x="529" y="830" on="0"/>
        <pt x="530" y="838" on="0"/>
        <pt x="530" y="843" on="1"/>
        <pt x="530" y="889" on="0"/>
        <pt x="490" y="889" on="1"/>
        <pt x="461" y="889" on="0"/>
        <pt x="427" y="851" on="0"/>
        <pt x="421" y="825" on="1"/>
      </contour>
      <contour>
        <pt x="298" y="-5" on="1"/>
        <pt x="236" y="-5" on="0"/>
        <pt x="152" y="32" on="0"/>
        <pt x="101" y="95" on="0"/>
        <pt x="78" y="180" on="0"/>
        <pt x="78" y="229" on="1"/>
        <pt x="78" y="288" on="0"/>
        <pt x="92" y="353" on="1"/>
        <pt x="168" y="710" on="1"/>
        <pt x="219" y="710" on="1"/>
        <pt x="143" y="353" on="1"/>
        <pt x="137" y="323" on="0"/>
        <pt x="129" y="265" on="0"/>
        <pt x="129" y="237" on="1"/>
        <pt x="129" y="196" on="0"/>
        <pt x="147" y="125" on="0"/>
        <pt x="189" y="72" on="0"/>
        <pt x="257" y="42" on="0"/>
        <pt x="307" y="42" on="1"/>
        <pt x="375" y="42" on="0"/>
        <pt x="476" y="96" on="0"/>
        <pt x="547" y="184" on="0"/>
        <pt x="592" y="296" on="0"/>
        <pt x="604" y="353" on="1"/>
        <pt x="679" y="710" on="1"/>
        <pt x="730" y="710" on="1"/>
        <pt x="655" y="353" on="1"/>
        <pt x="640" y="281" on="0"/>
        <pt x="583" y="152" on="0"/>
        <pt x="495" y="53" on="0"/>
        <pt x="376" y="-5" on="0"/>
      </contour>
    </TTGlyph>
    <TTGlyph name="Umacron" xMin="78" yMin="-5" xMax="730" yMax="895">
      <contour>
        <pt x="298" y="-5" on="1"/>
        <pt x="236" y="-5" on="0"/>
        <pt x="152" y="32" on="0"/>
        <pt x="101" y="95" on="0"/>
        <pt x="78" y="180" on="0"/>
        <pt x="78" y="229" on="1"/>
        <pt x="78" y="288" on="0"/>
        <pt x="92" y="353" on="1"/>
        <pt x="168" y="710" on="1"/>
        <pt x="219" y="710" on="1"/>
        <pt x="143" y="353" on="1"/>
        <pt x="137" y="323" on="0"/>
        <pt x="129" y="265" on="0"/>
        <pt x="129" y="237" on="1"/>
        <pt x="129" y="196" on="0"/>
        <pt x="147" y="125" on="0"/>
        <pt x="189" y="72" on="0"/>
        <pt x="257" y="42" on="0"/>
        <pt x="307" y="42" on="1"/>
        <pt x="375" y="42" on="0"/>
        <pt x="476" y="96" on="0"/>
        <pt x="547" y="184" on="0"/>
        <pt x="592" y="296" on="0"/>
        <pt x="604" y="353" on="1"/>
        <pt x="679" y="710" on="1"/>
        <pt x="730" y="710" on="1"/>
        <pt x="655" y="353" on="1"/>
        <pt x="640" y="281" on="0"/>
        <pt x="583" y="152" on="0"/>
        <pt x="495" y="53" on="0"/>
        <pt x="376" y="-5" on="0"/>
      </contour>
      <contour>
        <pt x="340" y="858" on="1"/>
        <pt x="348" y="895" on="1"/>
        <pt x="620" y="895" on="1"/>
        <pt x="612" y="858" on="1"/>
      </contour>
    </TTGlyph>
    <TTGlyph name="Uogonek" xMin="78" yMin="-171" xMax="730" yMax="710">
      <contour>
        <pt x="234" y="-171" on="1"/>
        <pt x="208" y="-165" on="0"/>
        <pt x="183" y="-135" on="0"/>
        <pt x="183" y="-115" on="1"/>
        <pt x="183" y="-87" on="0"/>
        <pt x="224" y="-36" on="0"/>
        <pt x="272" y="-4" on="1"/>
        <pt x="218" y="0" on="0"/>
        <pt x="144" y="39" on="0"/>
        <pt x="98" y="101" on="0"/>
        <pt x="78" y="183" on="0"/>
        <pt x="78" y="229" on="1"/>
        <pt x="78" y="288" on="0"/>
        <pt x="92" y="353" on="1"/>
        <pt x="168" y="710" on="1"/>
        <pt x="219" y="710" on="1"/>
        <pt x="143" y="353" on="1"/>
        <pt x="137" y="323" on="0"/>
        <pt x="129" y="265" on="0"/>
        <pt x="129" y="237" on="1"/>
        <pt x="129" y="196" on="0"/>
        <pt x="147" y="125" on="0"/>
        <pt x="189" y="72" on="0"/>
        <pt x="257" y="42" on="0"/>
        <pt x="307" y="42" on="1"/>
        <pt x="375" y="42" on="0"/>
        <pt x="476" y="96" on="0"/>
        <pt x="547" y="184" on="0"/>
        <pt x="592" y="296" on="0"/>
        <pt x="604" y="353" on="1"/>
        <pt x="679" y="710" on="1"/>
        <pt x="730" y="710" on="1"/>
        <pt x="655" y="353" on="1"/>
        <pt x="640" y="283" on="0"/>
        <pt x="585" y="156" on="0"/>
        <pt x="501" y="58" on="0"/>
        <pt x="386" y="-1" on="0"/>
        <pt x="312" y="-4" on="1"/>
        <pt x="259" y="-37" on="0"/>
        <pt x="218" y="-81" on="0"/>
        <pt x="218" y="-104" on="1"/>
        <pt x="218" y="-135" on="0"/>
        <pt x="257" y="-141" on="1"/>
        <pt x="234" y="-171" on="1"/>
      </contour>
    </TTGlyph>
    <TTGlyph name="Uring" xMin="78" yMin="-5" xMax="730" yMax="917">
      <contour>
        <pt x="411" y="843" on="1"/>
        <pt x="411" y="875" on="0"/>
        <pt x="459" y="917" on="0"/>
        <pt x="491" y="917" on="1"/>
        <pt x="515" y="917" on="0"/>
        <pt x="543" y="889" on="0"/>
        <pt x="543" y="867" on="1"/>
        <pt x="543" y="835" on="0"/>
        <pt x="496" y="792" on="0"/>
        <pt x="464" y="792" on="1"/>
        <pt x="439" y="792" on="0"/>
        <pt x="411" y="820" on="0"/>
      </contour>
      <contour>
        <pt x="485" y="894" on="1"/>
        <pt x="467" y="894" on="0"/>
        <pt x="438" y="868" on="0"/>
        <pt x="438" y="847" on="1"/>
        <pt x="438" y="833" on="0"/>
        <pt x="455" y="815" on="0"/>
        <pt x="469" y="815" on="1"/>
        <pt x="485" y="815" on="0"/>
        <pt x="517" y="842" on="0"/>
        <pt x="517" y="862" on="1"/>
        <pt x="517" y="877" on="0"/>
        <pt x="499" y="894" on="0"/>
      </contour>
      <contour>
        <pt x="298" y="-5" on="1"/>
        <pt x="236" y="-5" on="0"/>
        <pt x="152" y="32" on="0"/>
        <pt x="101" y="95" on="0"/>
        <pt x="78" y="180" on="0"/>
        <pt x="78" y="229" on="1"/>
        <pt x="78" y="288" on="0"/>
        <pt x="92" y="353" on="1"/>
        <pt x="168" y="710" on="1"/>
        <pt x="219" y="710" on="1"/>
        <pt x="143" y="353" on="1"/>
        <pt x="137" y="323" on="0"/>
        <pt x="129" y="265" on="0"/>
        <pt x="129" y="237" on="1"/>
        <pt x="129" y="196" on="0"/>
        <pt x="147" y="125" on="0"/>
        <pt x="189" y="72" on="0"/>
        <pt x="257" y="42" on="0"/>
        <pt x="307" y="42" on="1"/>
        <pt x="375" y="42" on="0"/>
        <pt x="476" y="96" on="0"/>
        <pt x="547" y="184" on="0"/>
        <pt x="592" y="296" on="0"/>
        <pt x="604" y="353" on="1"/>
        <pt x="679" y="710" on="1"/>
        <pt x="730" y="710" on="1"/>
        <pt x="655" y="353" on="1"/>
        <pt x="640" y="281" on="0"/>
        <pt x="583" y="152" on="0"/>
        <pt x="495" y="53" on="0"/>
        <pt x="376" y="-5" on="0"/>
      </contour>
    </TTGlyph>
</ttFont>
